<svg height="512" viewBox="0 0 60 60" width="512" xmlns="http://www.w3.org/2000/svg"><g id="Page-1" fill="none" fill-rule="evenodd"><g id="001---Wheel-Barrow" fill="rgb(0,0,0)" fill-rule="nonzero" transform="translate(0 -1)"><path id="Shape" d="m6.5 38h38c.6638566.0026715 1.3012947-.2598627 1.770716-.729284s.7319555-1.1068594.729284-1.770716c-.0042026-.3075728-.0617217-.612086-.17-.9l2.38-4.79c.33-.67.45-.89 1.06-.82.3543509.6220187 1.0141341 1.00721 1.73 1.01h5c1.1045695 0 2-.8954305 2-2s-.8954305-2-2-2h-5c-.7137984.0007321-1.373101.3818319-1.73 1-1.56-.09-2.2.57-2.86 1.92l-2.1 4.21c-.2604401-.0898908-.5345107-.1338774-.81-.13h-38c-1.38071187 0-2.5 1.1192881-2.5 2.5s1.11928813 2.5 2.5 2.5z"/><path id="Shape" d="m37 28c-.7034308.004283-1.3932927.1939951-2 .55-.2359116-3.1367958-2.854358-5.5588587-6-5.55-1.0945137-.0067494-2.1688216.2947499-3.1.87-1.215535-1.7897935-3.2364731-2.8638847-5.4-2.87-3.5898509 0-6.5 2.9101491-6.5 6.5v.64c-.3258119-.0900269-.6619914-.137092-1-.14-1.8228823.0013597-3.41427982 1.2350012-3.87 3h31.74c-.4557202-1.7649988-2.0471177-2.9986403-3.87-3z"/><path id="Shape" d="m29 21c.868147-.0012542 1.7302711.1441236 2.55.43l1.33-4.65c.0742606-.2546078.0443371-.5282875-.0831876-.7608326s-.3422046-.4049068-.5968124-.4791674l-2.84-.81-1.15 3.84c-.1320515.4372829-.5436301.7295036-1 .71-.0961531.0140911-.1938469.0140911-.29 0-.254725-.0841855-.4649415-.2671904-.5834115-.5078912-.1184699-.2407009-.1352568-.5189093-.0465885-.7721088l1.15-3.83-2.93-.84c-.2559518-.0738884-.5308064-.0425936-.7635964.0869428-.2327899.1295363-.4042702.3466052-.4764036.6030572l-1.45 5.08c1.7427086.2774354 3.3566822 1.0879157 4.62 2.32.8243594-.2801108 1.6893529-.4220238 2.56-.42z"/><path id="Shape" d="m29.36 14.73 3.2-10.67 1.93.56c.0927618.01460743.1872382.01460743.28 0 .4620038.017082.8754894-.28476248 1-.73.056319-.25996572.0067445-.53165738-.1377583-.7549799-.1445028-.22332251-.3720252-.3798715-.6322417-.4350201l-2.83-.83-2.89-.87c-.5522847-.15463973-1.1253603.16771525-1.28.72s.1677153 1.12536027.72 1.28l1.92.55-3.2 10.66.92.27z"/><path id="Shape" d="m53 59h-13.28c.1797532-.3028656.2763425-.6478276.28-1v-10l-9.87 2 5.28 9h-22.54c2.5476783-1.4081702 4.1293997-4.0890538 4.13-7 .0006399-.5037755-.0496153-1.006327-.15-1.5l1.61-.31h.09l10.51-2 10.94-2.19 3-6h-34.15l5.83 6.32 2 2.18-.46.09c-1.4720139-3.1405278-4.8000406-4.9747963-8.24136001-4.5422912s-6.21195319 3.0332533-6.86105977 6.4403636.97118914 6.8443977 4.01241978 8.5119276h-4.13c-.55228475 0-1 .4477153-1 1s.44771525 1 1 1h52c.5522847 0 1-.4477153 1-1s-.4477153-1-1-1zm-44-11c1.155255.0115263 2.2491044.5219893 3 1.4l-3.19.6c-.35726559.0339402-.66928571.2559012-.8185254.5822724-.1492397.3263712-.1130259.7075691.095 1 .20802589.292431.55625981.4516678.9135254.4177276h.19l3.74-.72c.0424894.2377502.0658974.4785177.07.72 0 2.209139-1.790861 4-4 4s-4-1.790861-4-4 1.790861-4 4-4z"/><path id="Shape" d="m59 59h-2c-.5522847 0-1 .4477153-1 1s.4477153 1 1 1h2c.5522847 0 1-.4477153 1-1s-.4477153-1-1-1z"/></g></g></svg>