<svg height="512" viewBox="0 0 56 56" width="512" xmlns="http://www.w3.org/2000/svg"><g id="Page-1" fill="none" fill-rule="evenodd"><g id="003---Digging" fill="rgb(0,0,0)" fill-rule="nonzero"><path id="Shape" d="m26.22 29.66.61 7.27c.024892.4622437.3199786.8663479.7527025 1.030783.4327238.164435.9217096.0582783 1.2472975-.270783.223932-.1959906.3606589-.4730424.38-.77l.61-7.26c-1.1433821.4532739-2.4166179.4532739-3.56 0z"/><path id="Shape" d="m27.4 27.94c.8827649.1801936 1.799775-.0458978 2.4976038-.6157913.6978287-.5698935 1.1025801-1.4232406 1.1023962-2.3242087v-10c0-.5522847-.4477153-1-1-1h-4c-.5522847 0-1 .4477153-1 1v9.88c-.0264958 1.4599497.9757874 2.7378608 2.4 3.06zm.6-10.44c.5456217.0006825.9899814.4386062.9986237.9841599s-.4216234.9973326-.9669497 1.0152971c-.5453263.0179646-1.0043925-.4045174-1.031674-.949457-.0137058-.2737686.0855689-.5411614.2746112-.739656.1890424-.1984945.4512775-.3106869.7253888-.310344zm.05 5c.5522847 0 1 .4477153 1 1s-.4477153 1-1 1-1-.4477153-1-1c-.0006671-.5333335.4173332-.9733337.95-1z"/><circle id="Oval" cx="6.5" cy="48.5" r="1.5"/><path id="Shape" d="m16.38 26.33c1.47.58 3.52 2.17 4.84 6.37.2071091.6574252.3806664 1.3249532.52 2 .209575.9914353.3697724 1.9926691.48 3 .06.52.11 1.06.15 1.62.06.85.1 1.73.12 2.65v1c0 .51.2 5 5.5 5s5.5-4.49 5.5-5c0-.35 0-.7 0-1-.0112115-3.1341171.416268-6.2543811 1.27-9.27 1.32-4.2 3.37-5.79 4.85-6.38.4395775-.1916468.910873-.3001465 1.39-.32h1v-7c0-.5522847-.4477153-1-1-1h-8v7c-.0104192 1.1163221-.3941292 2.1970467-1.09 3.07l-.74 9c-.0625829.7908185-.4194006 1.529431-1 2.07-.3268207.3034902-.7158433.5321263-1.14.67v4.19c0 .5522847-.4477153 1-1 1s-1-.4477153-1-1v-4.18c-1.1946196-.4019958-2.0434193-1.465929-2.17-2.72l-.74-9c-.7129913-.8770379-1.1077876-1.9697774-1.12-3.1v-7h-8c-.5522847 0-1 .4477153-1 1v7h1c.4765055.0233204.9444932.1352305 1.38.33z"/><path id="Shape" d="m3.11 24.81c.03009914-1.1745614-.41731501-2.3111377-1.24-3.15.03799606 1.4648717-.1405981 2.927322-.53 4.34h1.66c0-.32.06-.72.11-1.19z"/><path id="Shape" d="m8 26c-.0510019-3.4514188-.97652134-6.8335214-2.69-9.83.19728716 3.279255.09351956 6.5696921-.31 9.83z"/><circle id="Oval" cx="48" cy="41" r="2"/><path id="Shape" d="m54.72 26c-.3943681-1.6782414-.5956738-3.3960506-.6-5.12-.577294.8382255-.9599539 1.7948753-1.12 2.8 0 .95.06 1.75.08 2.32z"/><path id="Shape" d="m35.51 42v1c0 2.42-1.57 7-7.5 7s-7.5-4.58-7.5-7c0-.33 0-.66 0-1 0-.73 0-1.42-.08-2.1 0-.08 0-.17 0-.26 0-.63-.1-1.24-.17-1.83 0-.11 0-.21 0-.32-.07-.57-.15-1.12-.25-1.65 0-.09 0-.18-.05-.27-.1-.54-.22-1.05-.35-1.53 0 0 0 0 0-.06h-19.61v22.02h56v-22h-19.52c-.6417743 2.6183388-.9674298 5.3041577-.97 8zm-27.51-3c.55228475 0 1 .4477153 1 1s-.44771525 1-1 1-1-.4477153-1-1 .44771525-1 1-1zm-3-2c.55228475 0 1 .4477153 1 1s-.44771525 1-1 1-1-.4477153-1-1 .44771525-1 1-1zm-1 4c.55228475 0 1 .4477153 1 1s-.44771525 1-1 1-1-.4477153-1-1 .44771525-1 1-1zm2.5 11c-1.93299662 0-3.5-1.5670034-3.5-3.5s1.56700338-3.5 3.5-3.5 3.5 1.5670034 3.5 3.5c0 .9282577-.36874894 1.8184964-1.02512627 2.4748737-.65637732.6563774-1.54661602 1.0251263-2.47487373 1.0251263zm5.5 0c-.5522847 0-1-.4477153-1-1s.4477153-1 1-1 1 .4477153 1 1-.4477153 1-1 1zm36 1c-.5522847 0-1-.4477153-1-1s.4477153-1 1-1 1 .4477153 1 1-.4477153 1-1 1zm2-3c-.5522847 0-1-.4477153-1-1s.4477153-1 1-1 1 .4477153 1 1-.4477153 1-1 1zm3 1c.5522847 0 1 .4477153 1 1s-.4477153 1-1 1-1-.4477153-1-1 .4477153-1 1-1zm-5-14c2.209139 0 4 1.790861 4 4s-1.790861 4-4 4-4-1.790861-4-4 1.790861-4 4-4zm-6 0c.5522847 0 1 .4477153 1 1s-.4477153 1-1 1-1-.4477153-1-1 .4477153-1 1-1z"/><path id="Shape" d="m51.16 12.36c-1.7973578 4.3416026-2.8650684 8.950328-3.16 13.64h3.07c-.2077447-4.5451279-.1777037-9.0980093.09-13.64z"/><rect id="Rectangle-path" height="12" rx="1" width="4" x="26"/><path id="Shape" d="m18.84 32c-1.09-2.61-2.44-3.51-3.21-3.82-.1998898-.0909695-.4122228-.1516361-.63-.18h-15v4z"/><path id="Shape" d="m41 28c-.2130109.0302839-.4213327.0874044-.62.17-.78.32-2.13 1.22-3.22 3.83h18.84v-4z"/></g></g></svg>