<svg height="512" viewBox="0 0 56 59" width="512" xmlns="http://www.w3.org/2000/svg"><g id="Page-1" fill="none" fill-rule="evenodd"><g id="004---Weeding" fill="rgb(0,0,0)" fill-rule="nonzero"><path id="Shape" d="m26.51 50c1.727958-.8670801 3.5799865-1.4608087 5.49-1.76.1211477-6.5417193.7463326-13.0643705 1.87-19.51-.7387855.8035292-1.7784771 1.2636018-2.87 1.27h-5.14c-.6415487 4.4522877-4.3655417 7.8148097-8.86 8-.5522847 0-1-.4477153-1-1s.4477153-1 1-1c.25 0 6.13-.13 7-7.12-.005411-.059878-.005411-.120122 0-.18 0 0 0-.07 0-.11.0449-.0991997.1057003-.1904002.18-.27.2091656-.2276974.5118948-.3458356.82-.32h6c1.1045695 0 2-.8954305 2-2s-.8954305-2-2-2h-13c-.06 0-6.26.08-9 4.31v17.3c1 .93 5.05 4.39 14 4.39z"/><path id="Shape" d="m40.16 28c-.27 1.37-.52 2.78-.73 4.18.1672045-.1167107.366092-.1795172.57-.18h10c1.1045695 0 2-.8954305 2-2s-.8954305-2-2-2z"/><rect id="Rectangle-path" height="20" rx="1" width="7" y="27"/><path id="Shape" d="m50 40h-11c-.1733334.0009531-.3433336-.0476183-.49-.14-.15 1.61-.26 3.15-.33 4.57.1865173-.2688622.4927764-.4294615.82-.43h11c1.1045695 0 2-.8954305 2-2s-.8954305-2-2-2z"/><path id="Shape" d="m54 34h-14c-.304272-.0014028-.5913526-.1412626-.78-.38-.21 1.5-.39 3-.54 4.44.1019407-.0399583.2105081-.0603147.32-.06h15c1.1045695 0 2-.8954305 2-2s-.8954305-2-2-2z"/><path id="Shape" d="m43.39 50c.9502315-.188737 1.6285624-1.0313839 1.61-2 0-1.1045695-.8954305-2-2-2h-4c-.3707587-.0029421-.7094573-.21078-.88-.54 0 1-.08 1.94-.1 2.78 1.8691184.3100406 3.6799685.9035408 5.37 1.76z"/><path id="Shape" d="m38 50.27c-.6606497-.1300212-1.3285226-.220184-2-.27 0 0 0-.76 0-2 .1740283-6.7100195.8660866-13.3965736 2.07-20 .35-1.79.76-3.55 1.23-5.24 2.76-.28 12.92-1.72 15.59-8.39.7660018-1.7230615.8622677-3.6697714.27-5.46-.41-1.51-.79-2.95.71-6.38.2736069-.60063741.1677916-1.30607237-.27-1.8-.5276477-.61222076-1.3609907-.86533895-2.14-.65-2.2.62-13.34 4.09-16.58 11.64-1.37 3.17-1.13 6.6.65 10.19-.57 2-1.05 4-1.45 6.09-1.1934194 6.6034406-1.8621753 13.291-2 20v2c-.6708691.0399008-1.3387374.120045-2 .24-4.7090594.7953061-8.8440208 3.5884106-11.34 7.66l-.06.11h28.64l-.07-.11c-2.4794899-4.0416447-6.5778798-6.8212638-11.25-7.63zm.71-37.76c2.92-6.78 13.78-10.08 15.29-10.51-1.62 3.87-1.13 5.75-.69 7.41.4920803 1.3704165.4238072 2.8796118-.19 4.2-2 5.06-9.86 6.6-13.1 7 1.62-5.07 3.98-9.23 7.38-10.69.5081019-.22091392.7409138-.81189803.52-1.31999998-.2209139-.50810195-.811898-.74091389-1.32-.52000002-3.67 1.59-6.27 5.76-8.11 10.92-.7235412-2.1173337-.6452636-4.4265241.22-6.49z"/></g></g></svg>