<svg height="60" viewBox="0 0 58 60" width="58" xmlns="http://www.w3.org/2000/svg"><g id="Page-1" fill="none" fill-rule="evenodd"><g id="005---Leaf-Blower" fill="rgb(0,0,0)" fill-rule="nonzero" transform="translate(-1)"><path id="Shape" d="m24.064 30.519c-3.9335802-1.7452543-8.5522196-.468699-11.0311803 3.0489308s-2.1277652 8.2965507.8387971 11.4139974 7.7221996 3.7051009 11.3583867 1.403556c3.6361872-2.3015449 5.1401184-6.8512277 3.5919965-10.8664842-.8585002-2.2327528-2.5705477-4.031878-4.758-5zm-8.821 6.939c-.4825493.0008353-.8968661-.3430452-.9849353-.8174906-.0880692-.4744453.1752328-.9441092.6259353-1.1165094l7.443-2.867c.3356391-.1389165.7202138-.0848994 1.0045964.1411049s.4238441.5884488.3643051.9467873c-.059539.3583386-.3087139.65621-.6509015.7781078l-7.445 2.867c-.11381.0444128-.2348323.0674647-.357.068zm1.441 3.742c-.4817208.0000596-.895021-.3433314-.9832197-.8169092-.0881986-.4735777.1737742-.9427309.6232197-1.1160908l7.444-2.867c.5155578-.1982702 1.0942297.0589422 1.2925.5745.1982702.5155578-.0589422 1.0942298-.5745 1.2925l-7.443 2.863c-.1144029.0450091-.2360682.0687321-.359.07zm9.243.8-7.443 2.87c-.5163862.1985464-1.0959536-.0591138-1.2945-.5755s.0591138-1.0959536.5755-1.2945l7.443-2.867c.3335074-.128437.7102013-.0691936.9881848.1554138.2779834.2246075.415024.5804557.3595.9335001-.0555241.3530444-.2951773.6496491-.6286848.7780861z"/><path id="Shape" d="m34.354 44.309c-.073.184-.133.372-.214.555-1.611652 3.6466332-4.6087507 6.5016294-8.3293094 7.9343887-3.7205587 1.4327594-7.8584416 1.3253915-11.4996906-.2983887-.183-.081-.353-.18-.53-.267l1.74 4.519c.4015255 1.0312025 1.5607508 1.5442289 2.594 1.148l16.829-6.483c.497343-.1900896.8983618-.5706422 1.1142198-1.0573551s.2287356-1.0394068.0357802-1.5356449z"/><path id="Shape" d="m4.085 26.1c.11498247-.3709327.37500741-.6796447.721-.856l11.827-6.135c.4614165-.2408282 1.0149124-.224159 1.461.044l4.548 2.647 3.593-1.384-6.635-3.875c-1.336432-.780529-2.9798332-.820925-4.353-.107l-11.819 6.13c-1.10014787.5711874-1.91706762 1.569569-2.25918217 2.7610127-.34211454 1.1914437-.17932877 2.4711407.45018217 3.5389873l4.069 6.892c.26639269-1.2966536.70353531-2.5522617 1.3-3.734l-2.77-4.691c-.22515141-.3701504-.27389474-.8213011-.133-1.231z"/><path id="Shape" d="m56 19.683c.4877255-.2593437.8221745-.7361193.9-1.283.1670953-.912787.0688786-1.8543485-.283-2.713-.643-1.673-1.86-2.621-2.75-2.621-.1307876-.0013857-.2606829.0216767-.383.068-.4842293.2610372-.8151309.7371492-.891 1.282-.1674679.9126895-.0695969 1.8542641.282 2.713.74 1.931 2.243 2.894 3.125 2.554z"/><path id="Shape" d="m15.722 26.607c-.0288195.0111613-.0581912.0208406-.088.029-5.0132763 1.9872487-8.29148004 6.8493483-8.254 12.242.01818765 1.5647163.31411585 3.1137684.874 4.575 1.7950438 4.6543191 6.0909044 7.8744222 11.0618867 8.2917995 4.9709822.4173774 9.7436495-2.0413071 12.2896688-6.3311386 2.5460193-4.2898314 2.4180371-9.6570563-.3295555-13.8206609-.2147007-.3237287-.2224991-.7425023-.02-1.074l.006-.009c.1147967-.1879922.2884516-.3328217.494-.412l4.975-1.917-3.243-8.418zm8.645 22.439c-5.6791313 2.1880114-12.056724-.6419872-14.2449128-6.3210501-2.18818877-5.6790629.6416106-12.056744 6.3206052-14.2451102 5.6789946-2.1883661 12.0567641.6412341 14.2453076 6.3201603 1.0549462 2.7270685.9813493 5.7618407-.2045483 8.4345661s-3.386608 4.7636898-6.1164517 5.8114339z"/><path id="Shape" d="m51 17.849c-.4806361-1.1964946-.6123921-2.5046923-.38-3.773l-15.247 5.016 3.206 8.322 14.677-6.514c-1.0267806-.7818255-1.8093697-1.8401941-2.256-3.051z"/><path id="Shape" d="m31.033 12.835c-.0154992.0540037-.0265363.1091892-.033.165.0261168.2741851-.0722548.5456088-.267977.7393932-.1957223.1937844-.4681113.2894505-.742023.2606068-.3572656.0017863-.6864396.1940359-.8635254.5043301-.1770858.3102943-.1751798.6914921.005 1s.5112598.4974562.8685254.4956699c.8026156.0234737 1.5793921-.2850527 2.1471697-.8528303s.876304-1.3445541.8528303-2.1471697c-.0064637-.0558108-.0175008-.1109963-.033-.165 1.9401039-.7982122 3.1587417-2.7408808 3.033-4.835 0-1.742-1.393-4.733-2.354-6.134-.3734315-.54053298-.9885167-.86319318-1.6455-.86319318s-1.2720685.3226602-1.6455.86319318c-.962 1.401-2.355 4.392-2.355 6.134-.1257417 2.0941192 1.0928961 4.0367878 3.033 4.835z"/><path id="Shape" d="m58.55 29.919c-.4170583-.507743-1.0559582-.7795835-1.711-.728-1.7.141-4.895.953-6.241 2.053-1.7024961 1.2262983-2.4381097 3.3985881-1.831 5.407-.0517166.0212022-.1012774.0473221-.148.078-.1960571.193512-.4685815.2888693-.7425173.2598096-.2739357-.0290596-.5203885-.1794711-.6714827-.4098096-.3542091-.4150221-.9757162-.4695015-1.3967279-.1224329s-.4860989.9675545-.1462721 1.3944329c.5758613.7038914 1.4289291 1.1231279 2.338 1.149.6917938-.0119873 1.357179-.2676596 1.879-.722.0392158-.0402859.0750063-.0837697.107-.13.63717.4117854 1.3813908.627053 2.14.619 1.2911485-.0265909 2.5343324-.4941523 3.523-1.325 1.349-1.1 2.787-4.069 3.266-5.7.1864018-.6306764.0498463-1.3127052-.365-1.823z"/><path id="Shape" d="m38.146 10.69c-.2871042.4716642-.1375827 1.0867619.334 1.374.5018275.2992521 1.074726.4584482 1.659.461 1.0264871.0003047 1.9708524-.5610958 2.461-1.463.021608-.0470367.0390093-.0958941.052-.146.2763764.069084.5601209.1043422.845.105 1.7847422-.1019626 3.3937161-1.10860846 4.266-2.669.905-1.487 1.271-4.767 1.177-6.465-.0386356-.65444994-.3955607-1.24841216-.9552983-1.5897204-.5597375-.34130825-1.2512093-.38662156-1.8507017-.1212796-1.551.7-4.3 2.528-5.2 4.015-1.1980103 1.72323662-1.1682734 4.01739431.074 5.709-.041246.03792377-.0790598.07941852-.113.124-.1204718.247928-.3458692.4286869-.614044.4924366-.2681747.0637496-.5508029.0037568-.769956-.1634366-.4705059-.2804708-1.0790888-.13022-1.365.337z"/><circle id="Oval" cx="44" cy="31" r="1"/><circle id="Oval" cx="56" cy="26" r="1"/><circle id="Oval" cx="54" cy="6" r="1"/><circle id="Oval" cx="38" cy="3" r="1"/><path id="Shape" d="m6.294 4.956c12.037-3.7 16.66 3.265 16.86 3.577.2960949.46160484.9087199.59861771 1.3732443.30712451.4645244-.29149319.6076184-.90272635.3207557-1.37012451-.222-.353-5.564-8.6-19.142-4.426-.52798422.16237172-.82437172.72201578-.662 1.25s.72201578.82437172 1.25.662z"/><path id="Shape" d="m6 11c.15478948-.0000102.30746342-.0359537.446-.105 5.317-2.66 8.8-.209 8.957-.092.4418278.3313708 1.0686291.2418278 1.4-.2.3313708-.4418278.2418278-1.06862914-.2-1.4-.183-.137-4.569-3.333-11.047-.095-.41148888.20849227-.62696913.67140381-.52157929 1.1204975.10538984.4490936.50429998.7678248.96557929.7715025z"/><path id="Shape" d="m51 47c0-.5522847-.4477153-1-1-1s-1 .4477153-1 1c0 .25-.131 6.138-7.124 7.012-.5113603.0786068-.8783319.5342803-.8461241 1.0506436.0322077.5163632.4529593.9229031.9701241.9373564.0418034.0002923.0835749-.0023811.125-.008 8.775-1.092 8.875-8.913 8.875-8.992z"/><path id="Shape" d="m56.091 46c-.2656111-.0252569-.5303016.0566772-.7351931.2275767-.2048916.1708994-.3329922.4165913-.3558069.6824233-.009.1-1.02 10.2-9.114 11.1-.5154431.0722842-.8892532.5278673-.8594852 1.0475022s.4531594.9295492.9734852.9424978c.0370802-.0000311.0741325-.002034.111-.006 9.699-1.078 10.874-12.786 10.889-12.904.0249826-.2652888-.0569459-.5295773-.2276049-.734218-.1706591-.2046406-.4159335-.3327076-.6813951-.355782z"/></g></g></svg>