<svg height="512" viewBox="0 0 56 50" width="512" xmlns="http://www.w3.org/2000/svg"><g id="Page-1" fill="none" fill-rule="evenodd"><g id="006---Turf-Laying" fill="rgb(0,0,0)" fill-rule="nonzero" transform="translate(0 -1)"><path id="Shape" d="m14.06 33h4c.5522847 0 1-.4477153 1-1 .7666149-12.1809382 10.7376596-21.7434048 22.94-22v2c.0268029.3984605.2693659.75036.6322132.9171864.3628472.1668263.787875.1218651 1.1077868-.1171864l6.84-5c.2518058-.18885438.4-.4852427.4-.8s-.1481942-.61114562-.4-.8l-6.84-5c-.3199118-.23905146-.7449396-.28401269-1.1077868-.11718637-.3628473.16682633-.6054103.51872588-.6322132.91718637v2c-15.5172677.25462504-28.1779643 12.4998584-28.95 28-.0000133.2669582.1067151.5228394.2964199.7106659.1897047.1878265.4466352.2920037.7135801.2893341z"/><circle id="Oval" cx="42.5" cy="33.5" r="1.5"/><path id="Shape" d="m1 47h41.5c4.8230855-.1589832 9.1949837-2.8789752 11.468843-7.1353813 2.2738592-4.2564061 2.1042262-9.4025771-.445-13.5-2.5492263-4.0974229-7.0907575-6.5236019-11.913843-6.3646187-6.7242644.4570252-12.0940791 5.7799978-12.61 12.5-.2986643 3.9096713 1.1430888 7.7519066 3.94 10.5h3.06c-4.579269-3.1553936-6.2445615-9.135455-3.9553216-14.2035507 2.2892398-5.0680957 7.8770317-7.7719661 13.2718512-6.4221014 5.3948196 1.3498648 9.0507847 6.3666618 8.6834704 11.9156521-.5289262 6.1217706-5.6960201 10.7957211-11.84 10.71h-14.16v-2c0-.5522847-.4477153-1-1-1s-1 .4477153-1 1v2h-2v-3c0-.5522847-.4477153-1-1-1s-1 .4477153-1 1v3h-2v-2c0-.5522847-.4477153-1-1-1s-1 .4477153-1 1v2h-2v-3c0-.5522847-.4477153-1-1-1s-1 .4477153-1 1v3h-2v-2c0-.5522847-.4477153-1-1-1s-1 .4477153-1 1v2h-2v-3c0-.5522847-.44771525-1-1-1s-1 .4477153-1 1v3h-2v-2c0-.5522847-.44771525-1-1-1s-1 .4477153-1 1v2h-1c-.55228475 0-1 .4477153-1 1s.44771525 1 1 1z"/><path id="Shape" d="m55 49h-54c-.55228475 0-1 .4477153-1 1s.44771525 1 1 1h54c.5522847 0 1-.4477153 1-1s-.4477153-1-1-1z"/><path id="Shape" d="m52 33.5c0-5.2467051-4.2532949-9.5-9.5-9.5s-9.5 4.2532949-9.5 9.5 4.2532949 9.5 9.5 9.5c5.2444204-.0055117 9.4944883-4.2555796 9.5-9.5zm-9.5 7.5c-4.1421356 0-7.5-3.3578644-7.5-7.5s3.3578644-7.5 7.5-7.5 7.5 3.3578644 7.5 7.5-3.3578644 7.5-7.5 7.5z"/><path id="Shape" d="m42.5 28c-3.0375661 0-5.5 2.4624339-5.5 5.5s2.4624339 5.5 5.5 5.5 5.5-2.4624339 5.5-5.5c-.0055037-3.0352835-2.4647165-5.4944963-5.5-5.5zm0 9c-1.4156179 0-2.6918449-.8527476-3.2335784-2.160608s-.2422883-2.8132727.7587047-3.8142657 2.5064053-1.3004382 3.8142657-.7587047 2.160608 1.8179605 2.160608 3.2335784c0 1.9329966-1.5670034 3.5-3.5 3.5z"/></g></g></svg>