<svg height="512" viewBox="0 0 60 58" width="512" xmlns="http://www.w3.org/2000/svg"><g id="Page-1" fill="none" fill-rule="evenodd"><g id="007---Shredder" fill="rgb(0,0,0)" fill-rule="nonzero" transform="translate(0 -1)"><path id="Shape" d="m47.16 21c-.2626722-.0432206-.5317362.0200752-.7475919.1758667s-.3606854.391219-.4024081.6541333l-.77 4.66-2.79-1.39c-.274806-.1327594-.595194-.1327594-.87 0-.2756323.1281372-.4780216.3746842-.55.67l-1 4c-.0695215.2600544-.0312633.5371548.1061235.7686422.1373868.2314873.3622983.3978098.6238765.4613578.2656553.071912.5492047.0311592.7838545-.1126584.2346498-.1438177.3996547-.3779853.4561455-.6473416l.7-2.79 2.88 1.44c.2830476.1426286.6169524.1426286.9 0 .2864681-.1428743.4872197-.4142607.54-.73l1-6c.0457828-.2687356-.020131-.5445138-.1824848-.7635027-.1623538-.2189888-.4070732-.3622042-.6775152-.3964973z"/><path id="Shape" d="m45.16 32c-.3181829-.0523998-.6421084.051852-.87.28l-3 3c-.3921222.3921222-.3921222 1.0278778 0 1.42s1.0278778.3921222 1.42 0l2-2 1.38 2.76c.1428743.2864681.4142607.4872197.73.54h.18c.265803.0015368.5212812-.1028135.71-.29l4-4c.3921221-.3921222.3921221-1.0278778 0-1.42-.3921222-.3921221-1.0278778-.3921221-1.42 0l-3 3-1.38-2.76c-.149298-.2878042-.4288633-.4853637-.75-.53z"/><path id="Shape" d="m41 11.63c.2383445.0000183.4688582-.0850944.65-.24.823212-.6952916 1.7029213-1.3207883 2.63-1.87 1.1459607-.17724875 2.2274145.581976 2.45 1.72.1128155.4571833.5293028.7737136 1 .76h.24c.5354504-.1329088.8621055-.6743509.73-1.21-.2162787-1.04023639-.8251367-1.95710492-1.7-2.56 1.0051344-.38243239 2.0426545-.67360739 3.1-.87.9102043 1.26337899 2.4708437 1.88373316 4 1.59 1.44-.18 4.07-1.83 5.24-2.88.2433335-.21973198.3634993-.54478728.3216057-.86996147s-.2405245-.60915752-.5316057-.76003853c-1.4-.71-4.37-1.62-5.81-1.43-1.4779924.11486141-2.7838854 1.00576216-3.43 2.34-.9805078.17840148-1.9464765.4290854-2.89.75.7765795-1.32378549 1.0163522-2.89483314.67-4.39-.1601626-.53019336-.7198066-.83016258-1.25-.67s-.8301626.71980664-.67 1.25c.39 1.25-.42 3.24-2.15 5.33-1.1474872.64782284-2.2321681 1.40107345-3.24 2.25-.3168592.2709249-.4323977.7099981-.2899273 1.1017917.1424704.3917937.5130542.6540952.9299273.6582083z"/><path id="Shape" d="m53 57h-52c-.55228475 0-1 .4477153-1 1s.44771525 1 1 1h52c.5522847 0 1-.4477153 1-1s-.4477153-1-1-1z"/><path id="Shape" d="m59 57h-2c-.5522847 0-1 .4477153-1 1s.4477153 1 1 1h2c.5522847 0 1-.4477153 1-1s-.4477153-1-1-1z"/><path id="Shape" d="m9.9 40.86c-.40521266-.0023616-.8060583-.0838895-1.18-.24-.76806596-.3570624-1.36700779-.999042-1.67-1.79l-.73-1.83h-4.32c.1 4.76 1 8.29 2.41 10.13 1.33720773-1.8733624 3.46335666-3.0256834 5.7629366-3.1233716 2.29958-.0976882 4.5157958.8701654 6.0070634 2.6233716.1992949.2462584.5034894.3835169.82.37h1c.5522847 0 1-.4477153 1-1v-8c0-1.1045695.8954305-2 2-2h1v-3.32l-10.33 7.59c-.5102931.3836248-1.1315906.590724-1.77.59z"/><path id="Shape" d="m22 38c-.5522847 0-1 .4477153-1 1v7c0 .5522847.4477153 1 1 1h4.82c-2.42833-2.5086011-2.42833-6.4913989 0-9z"/><path id="Shape" d="m35 56v-3h-2v3c0 .5522847.4477153 1 1 1s1-.4477153 1-1z"/><path id="Shape" d="m16 51.5c.010216-.1865269.010216-.3734731 0-.56-.1518574-2.9736145-2.6463801-5.2841669-5.6229007-5.2082135-2.97652058.0759534-5.3499544 2.510724-5.3499544 5.4882135s2.37343382 5.4122601 5.3499544 5.4882135c2.9765206.0759534 5.4710433-2.234599 5.6229007-5.2082135zm-5.5 3.5c-1.93299662 0-3.5-1.5670034-3.5-3.5s1.56700338-3.5 3.5-3.5c1.9329966 0 3.5 1.5670034 3.5 3.5s-1.5670034 3.5-3.5 3.5z"/><path id="Shape" d="m18 51h21c.2604647.0042364.5107662-.1009628.69-.29l4.43-4.42c.1887188-.1871865.444197-.2915368.71-.29h12.17c.5522847 0 1-.4477153 1-1s-.4477153-1-1-1h-13c-.2604647-.0042364-.5107662.1009628-.69.29l-4.43 4.42c-.1887188.1871865-.444197.2915368-.71.29h-20.61c.2243278.5610119.3723165 1.1496032.44 1.75.0063609.083212.0063609.166788 0 .25z"/><circle id="Oval" cx="10.5" cy="51.5" r="1.5"/><path id="Shape" d="m38.6 16.85c.3464209.4257366.9712485.4926824 1.4.15l.73-.54c.2183645-.1718863.3553547-.426888.3781189-.7038532.0227643-.2769653-.0707506-.5509126-.2581189-.7561468l-8.21-9.7c-.1793516-.21453214-.4403341-.34417091-.7196442-.35747139s-.5514304.09095245-.7503558.28747139l-.76.77c-.3557172.38355316-.3557172.97644684 0 1.36z"/><path id="Shape" d="m5 16c0-.5522847.44771525-1 1-1h3c.55228475 0 1-.4477153 1-1v-1c0-.5522847-.44771525-1-1-1h-4c-1.65685425 0-3 1.3431458-3 3v20h3z"/><rect id="Rectangle-path" height="4" rx="1" width="5" x="29" y="32"/><path id="Shape" d="m27 42.5c0 2.4852814 2.0147186 4.5 4.5 4.5s4.5-2.0147186 4.5-4.5-2.0147186-4.5-4.5-4.5c-2.4829999.0054995-4.4945005 2.0170001-4.5 4.5zm3-1.5h3c.5522847 0 1 .4477153 1 1s-.4477153 1-1 1h-3c-.5522847 0-1-.4477153-1-1s.4477153-1 1-1z"/><path id="Shape" d="m9 38.23c.11415168.2863372.35397937.5040269.65.59.29910464.0848056.6206385.0256729.87-.16l26.19-19.28c.225685-.1643131.372412-.4154842.4046992-.6927747.0322873-.2772906-.0528048-.5554543-.2346992-.7672253l-7.88-9.03c-.1820616-.20858133-.44245-.33234849-.7191498-.34182451-.2766999-.00947603-.5449455.09618723-.7408502.29182451l-9.77 9.77-9.66 17.46zm11.37-19 8-7c.2651659-.2546943.6487093-.3433359.9987417-.2308216.3500324.1125144.6100907.4080352.6771882.7695321.0670976.361497-.069589.7306577-.3559299.9612895l-8 7c-.1869425.175032-.4339123.2716723-.69.27-.2872272-.0003637-.5604302-.1242157-.75-.34-.3639711-.4143967-.3237044-1.0452422.09-1.41z"/></g></g></svg>