<svg height="512" viewBox="0 0 59 59" width="512" xmlns="http://www.w3.org/2000/svg"><g id="Page-1" fill="none" fill-rule="evenodd"><g id="008---Sprinkler" fill="rgb(0,0,0)" fill-rule="nonzero"><path id="Shape" d="m57 54h-1s-2.46-10.68 0-15.66c.1060837-.1914878.0752684-.4297187-.0760467-.5879118-.1513152-.1581931-.387942-.1995608-.5839533-.1020882-1.7330445.958568-3.2004324 2.3331703-4.27 4-1.66 2.5-3.07 6.41-3.07 12.35 0-6.82-1.86-10.34-3.89-12.13-1.1864436-1.0766011-2.6937174-1.7336179-4.29-1.87-.1759449-.0150231-.3467666.063875-.4494046.2075681-.102638.1436932-.1218696.3308699-.0505954.4924319 2.45 5.91-.32 13.3-.32 13.3h-3c.0020853-2.0068717-.8012841-3.9306352-2.23-5.34-.1344533-.1314834-.3322947-.1744173-.5091539-.1104923-.1768591.063925-.30153.2234296-.3208461.4104923-.3050797 1.7922919-.9646145 3.5057227-1.94 5.04h-17v-6c0-.5522847-.4477153-1-1-1s-1 .4477153-1 1v6h-3v-3c0-.5522847-.44771525-1-1-1s-1 .4477153-1 1v3h-2v-5c0-.5522847-.44771525-1-1-1s-1 .4477153-1 1v5h-2c-.55228475 0-1 .4477153-1 1v3c0 .5522847.44771525 1 1 1h56c.5522847 0 1-.4477153 1-1v-3c0-.5522847-.4477153-1-1-1z"/><path id="Rectangle-path" d="m18 46h8v6h-8z"/><path id="Shape" d="m2 31h20.69l-2.69 1.53c-.2377965.1300406-.4593418.2878077-.66.47h-4.34v9c0 1.1045695.8954305 2 2 2h10c1.1045695 0 2-.8954305 2-2v-5.39l16-9.14c1.9164281-1.1045695 2.5745695-3.5535719 1.47-5.47s-3.5535719-2.5745695-5.47-1.47l-7.81 4.47h-25.19v-3c0-1.1045695-.8954305-2-2-2h-4c-1.1045695 0-2 .8954305-2 2v7c0 1.1045695.8954305 2 2 2zm40-8.74c.3048058-.1727609.6496472-.2624197 1-.26.7173695-.002848 1.3813181.3787316 1.74 1 .26709.4610475.3391674 1.0096126.2002433 1.5240073s-.4773639.9520903-.9402433 1.2159927l-21 12c-.4610475.26709-1.0096126.3391674-1.5240073.2002433s-.9520903-.4773639-1.2159927-.9402433c-.26709-.4610475-.3391674-1.0096126-.2002433-1.5240073s.4773639-.9520903.9402433-1.2159927z"/><path id="Shape" d="m18.44 17h7.12l2 6h4.22l-2.66-7.95c-.4080915-1.2223964-1.5512852-2.0475891-2.84-2.05h-8.56c-1.2887148.0024109-2.4319085.8276036-2.84 2.05l-2.66 8h4.22z"/><path id="Shape" d="m12 39h1v-6h-3v4c0 1.1045695.8954305 2 2 2z"/><path id="Shape" d="m51.66 28c-3.6403898 2.9533329-6.1658241 7.0589273-7.16 11.64.3293988.2255457.6434257.4727583.94.74.9863364.8795726 1.8061018 1.9296854 2.42 3.1.431742-1.0509548.9677555-2.0559799 1.6-3 .4250558-.6396955.8998587-1.244902 1.42-1.81.0091539-3.4413573.5453717-6.86101 1.59-10.14.056204-.2124019-.0299396-.436925-.213792-.5572235-.1838525-.1202985-.4240836-.1093293-.596208.0272235z"/><path id="Shape" d="m39.59 7.66c.2430724-.00034978.4776958-.08922227.66-.25.4716977-.41661413.9657647-.80719408 1.48-1.17.4057217-.33230494.4858005-.92159274.1834683-1.35011569-.3023321-.42852295-.8843538-.55068464-1.3334683-.27988431-.5769692.4022735-1.1311556.83627491-1.66 1.3-.3131247.27611889-.4217677.71770384-.2724988 1.10758526.1492689.38988143.5250352.64600679.9424988.64241474z"/><path id="Shape" d="m44.63 4.46c.1374138.00110023.2735797-.02613295.4-.08.57-.26 1.17-.49 1.78-.71.3661635-.09385232.6481142-.38614951.7287153-.75545617.0806011-.36930667-.0539241-.75249963-.3476868-.9903807-.2937628-.23788106-.6965521-.28979076-1.0410285-.13416313-.66.23-1.31.48-1.93.76-.2427867.10728155-.4329607.30668669-.5286226.55428217-.0956619.24759547-.0889623.52306541.0186226.76571783.162566.36167719.5234798.59313279.92.59z"/><path id="Shape" d="m58 0c-.6 0-1.18 0-1.75 0-.5522847 0-1 .44771525-1 1s.4477153 1 1 1h1.75c.5522847 0 1-.44771525 1-1s-.4477153-1-1-1z"/><path id="Shape" d="m50.34 2.69c.0629915.00930638.1270085.00930638.19 0 .61-.12 1.25-.22 1.91-.31.5522847-.07455844.9395584-.58271525.865-1.135s-.5827153-.93955844-1.135-.865c-.7.09-1.38.2-2 .33-.5522847.05522848-.9552285.54771525-.9 1.1s.5477153.95522847 1.1.9z"/><path id="Shape" d="m35.37 12.19c.1465009.0830601.311606.1277761.48.13.3685937-.0009835.7067616-.2046528.88-.53.304843-.547393.63865-1.078146 1-1.59.316067-.45044848.2088148-1.07161743-.24-1.39-.4374907-.32681967-1.0562655-.24223893-1.39.19-.4038185.59034519-.7711703 1.2048246-1.1 1.84-.2646773.4756974-.1002265 1.0757206.37 1.35z"/><path id="Shape" d="m33.94 18h.06c.5296773.0009542.9682202-.4112761 1-.94.0609061-.6013925.1712798-1.1967415.33-1.78.1397247-.5328045-.1777232-1.0782783-.71-1.22-.5328045-.1397247-1.0782783.1777232-1.22.71-.1996947.7095136-.333594 1.4359171-.4 2.17-.0163994.265334.0735261.5262777.2499078.7251761.1763816.1988985.4247009.3193798.6900922.3348239z"/><path id="Shape" d="m54.31 9.16h.09c.6-.06 1.26-.1 1.94-.16.5522847 0 1-.44771525 1-1s-.4477153-1-1-1c-.71 0-1.39.07-2 .13-.5491457.04767262-.9561623.53072527-.91 1.08.0210105.48948063.3935547.89165896.88.95z"/><path id="Shape" d="m39.76 14.66c-.3804059.6937813-.6375528 1.4483045-.76 2.23-.0588081.5426551.3283925 1.032219.87 1.1h.13c.5086257.0036739.9389766-.3750349 1-.88.1024374-.5450775.2879304-1.0712031.55-1.56.2469243-.4916536.050313-1.0904244-.44-1.34-.2384026-.1210697-.5153611-.1416226-.7690229-.0570687s-.4628969.2671714-.5809771.5070687z"/><path id="Shape" d="m47.48 9.57c.1357475.4333092.5463999.7207659 1 .7.0990821.0191616.2009179.0191616.3 0 .59-.18 1.21-.35 1.85-.49.3581031-.06912824.6501719-.32773288.7621549-.67482993.1119829-.34709705.0261184-.72763329-.224064-.99301098s-.6250011-.37350516-.9780909-.28215909c-.675394.14596174-1.3429237.32619475-2 .54-.5224856.14185265-.8371938.6737537-.71 1.2z"/><path id="Shape" d="m43.16 13c.2302147-.001861.4527364-.0830991.63-.23.4735183-.3940069.9785434-.7485278 1.51-1.06.2291251-.1369809.3939699-.3598867.4578305-.6190853.0638605-.2591985.0214348-.5331709-.1178305-.7609147-.2884294-.46773299-.900231-.61510124-1.37-.33-.6150019.3715758-1.2031185.7859307-1.76 1.24-.2030364.1709706-.32977.4156482-.3522787.6801252s.0610545.5270523.2322787.7298748c.1922652.224813.4741994.3529649.77.35z"/></g></g></svg>