<svg height="512" viewBox="0 0 53 56" width="512" xmlns="http://www.w3.org/2000/svg"><g id="Page-1" fill="none" fill-rule="evenodd"><g id="009---Pruning" fill="rgb(0,0,0)" fill-rule="nonzero" transform="translate(0 -1)"><path id="Shape" d="m7.64 23c-2.24511746 11.1990028-3.46350365 22.5795331-3.64 34h2c0-1.37.09-3.89.27-7.14.43442167-8.4536565 1.45352431-16.8671006 3.05-25.18-.58-.56-1.15-1.12-1.68-1.68z"/><path id="Shape" d="m.61 37.35c.89209192.2437493 1.75666591.5788555 2.58 1 .09-.8.18-1.62.28-2.45-1.11158722.0716021-2.14525353.5956637-2.86 1.45z"/><path id="Shape" d="m29.51 22c.3183756-1.6478155.4824189-3.3217266.49-5 0-6.39-2.84-12.66-6-13.8v18.1c.6488456-.195326 1.3224016-.2963594 2-.3 1.2384052.0132344 2.4505653.3585791 3.51 1z"/><path id="Shape" d="m8.62 44.92c-.07.91-.13 1.79-.19 2.62.94534302-.5250185 1.9533596-.9282251 3-1.2-.7124294-.8257942-1.72258114-1.3362623-2.81-1.42z"/><path id="Shape" d="m15.29 11c.8961414-.1395784 1.8039285-.1898249 2.71-.15-.3535696-.856125-.9932993-1.56300861-1.81-2-.3.66-.6 1.37-.9 2.15z"/><path id="Shape" d="m21.21 22.92-15.69-9.05c-.3 1.68.58 4 2.27 6.22.03543652.0356183.0657287.0760078.09.12 1.80080457 2.3387193 4.0389621 4.3051733 6.59 5.79 1.4424648.810203 2.9594339 1.4799465 4.53 2 .0067488-1.9251925.806103-3.762622 2.21-5.08z"/><path id="Shape" d="m11.73 15.14c.3-1 .62-2 1-2.93-.0056573-.0431487-.0056573-.0868513 0-.13.6005478-1.70086 1.2881215-3.36972823 2.06-5 .41-.88.87-1.75 1.35-2.59.1786328-.30940108.1786328-.69059892 0-1-.1638405-.30514356-.4836756-.49396189-.83-.49-.3510473-.00204433-.6774583.18013857-.86.48-.53.93-1 1.91-1.51 2.9v.09c-.3.62-.59 1.26-.87 1.91-.75 1.8-1.45 3.72-2.08 5.73z"/><path id="Shape" d="m10.48 7c.16-.35.31-.71.47-1.05-.33-1.11-2.04-5.27-8.95-4.95 1.32844099 3.55001711 4.69023934 5.92864802 8.48 6z"/><path id="Shape" d="m32.8 29.62c-.3195056 1.3218891-1.0140014 2.5233669-2 3.46l2.86 1.65 2-3.46z"/><path id="Shape" d="m29.45 24.38c-1.5745821-1.5025305-3.9402456-1.8139085-5.85-.77l-.1.07c-1.5438764.8913526-2.4963872 2.5372911-2.5 4.32.0015721.3940828.0485486.786672.14 1.17.3229211 1.3284948 1.1757566 2.4668134 2.36 3.15 1.5470054.893164 3.4529946.893164 5 0 1.3719063-.7787053 2.2958701-2.1591728 2.4927465-3.7243401.1968764-1.5651672-.3564265-3.1314544-1.4927465-4.2256599zm-3.45 6.62c-1.6568542 0-3-1.3431458-3-3s1.3431458-3 3-3 3 1.3431458 3 3-1.3431458 3-3 3z"/><path id="Shape" d="m51.75 39.4-13-7.5c-.1524029-.0863804-.3248236-.1312098-.5-.13-.1717883.0005257-.3405443.0452977-.49.13-.1428598.091413-.2626467.2146223-.35.36l-2 3.46c-.133545.2305237-.1695837.5048063-.1001217.7620037.0694621.2571973.238682.4760451.4701217.6079963l13 7.5c.4779792.2713883 1.0853915.1061364 1.36-.37l2-3.46c.1287454-.23204.1599832-.5057375.0868345-.7608202s-.2446852-.4706317-.4768345-.5991798z"/><rect id="Rectangle-path" height="17" rx="1" width="6" x="23" y="40"/><circle id="Oval" cx="26" cy="28" r="1"/><path id="Shape" d="m28 34.7c-1.303364.3997955-2.696636.3997955-4 0v3.3h4z"/></g></g></svg>