<svg height="512" viewBox="0 0 58 56" width="512" xmlns="http://www.w3.org/2000/svg"><g id="Page-1" fill="none" fill-rule="evenodd"><g id="010---Painting-Bench" fill="rgb(0,0,0)" fill-rule="nonzero"><path id="Shape" d="m44 12.41-2.46-2.41c-.5381462-.51423912-.7461946-1.28478888-.54-2 .1991522-.69914166.7619807-1.23516879 1.47-1.4l1.53-.38v-2.1c-.15-.51-1.27-3.41-6.89-4-.283696-.03140242-.5672904.05992104-.7793529.25096831-.2120624.19104727-.3323798.46360823-.3306471.74903169v18c-.0009542.5296773.4112761.9682202.94 1 1.9560175.1141488 3.8636387.6533333 5.59 1.58.3126827.1665655.690157.1552545.9923055-.0297343.3021485-.1849889.4838641-.5160391.4776945-.8702657zm-16-11.41v18c0 .5522847.4477153 1 1 1h4c.5522847 0 1-.4477153 1-1v-18c0-.55228475-.4477153-1-1-1h-4c-.5522847 0-1 .44771525-1 1zm-6.4 4.81c-1.9132687 1.94567907-4.7459973 2.6731053-7.36 1.89l-9.32-1.7c-2.209139 0-4 1.790861-4 4s1.790861 4 4 4l9.32-1.7c.6760406-.196093 1.3761004-.2970632 2.08-.3 1.9820639-.0055429 3.8837305.7832165 5.28 2.19l2.69 2.69c.2848091.2871614.714552.3744903 1.0888524.2212679s.6194518-.5168238.6211476-.9212679v-12.36c-.0016958-.40444408-.2468472-.76804552-.6211476-.92126791-.3743004-.15322238-.8040433-.06589346-1.0888524.22126791zm-14.6 5.19h-2c-.55228475 0-1-.4477153-1-1 0-.55228475.44771525-1 1-1h2c.55228475 0 1 .44771525 1 1 0 .5522847-.44771525 1-1 1z"/><path id="Shape" d="m49.24 26.32c-.1402809-.2009743-.3699094-.3207274-.615-.3207274s-.4747191.1197531-.615.3207274c-2.25 3.27-8 13.13-8 17-.1073234 3.1514547 1.5127159 6.1105551 4.2254718 7.7180814 2.7127559 1.6075262 6.0863005 1.6075262 8.7990564 0 2.7127559-1.6075263 4.3327952-4.5666267 4.2254718-7.7180814-.01-3.53-5.26-12.95-8.02-17zm-.24 23.68c-5.17 0-7-3.77-7-7 0-.5522847.4477153-1 1-1s1 .4477153 1 1c0 1.17.36 5 5 5 .5522847 0 1 .4477153 1 1s-.4477153 1-1 1zm-36-14v1c0 .5522847.4477153 1 1 1h25.4c.37-.92.82-1.92 1.34-3h-26.74c-.5522847 0-1 .4477153-1 1zm-7 5v1c0 .5522847.44771525 1 1 1h31c.1014297-1.0206382.3160831-2.0268257.64-3 0-.1 1.7 0-31.64 0-.26521649 0-.5195704.1053568-.70710678.2928932s-.29289322.4418903-.29289322.7071068zm37 11.39v2.61c0 .5522847.4477153 1 1 1h1c.5522847 0 1-.4477153 1-1v-1.33c-1.0580516-.2752151-2.0691641-.7066232-3-1.28zm-38-1.39v4c0 .5522847.44771525 1 1 1h1c.55228475 0 1-.4477153 1-1v-4c0-.5522847-.44771525-1-1-1h-1c-.55228475 0-1 .4477153-1 1zm33.13-6h-36.13c-.55228475 0-1 .4477153-1 1v1c0 .5522847.44771525 1 1 1h37.07c-.4567881-.9492702-.7734201-1.9597978-.94-3zm-32.13-4v1c0 .5522847.44771525 1 1 1h31c.1014297-1.0206382.3160831-2.0268257.64-3 0-.1 1.7 0-31.64 0-.26521649 0-.5195704.1053568-.70710678.2928932s-.29289322.4418903-.29289322.7071068zm3-5v1c0 .5522847.44771525 1 1 1 .5522847 0 1-.4477153 1-1v-1c0-.5522847-.4477153-1-1-1-.55228475 0-1 .4477153-1 1zm-3-5v1c0 .5522847.44771525 1 1 1h34.74c.87-1.68 1.34-2.46 1.63-3h-36.37c-.55228475 0-1 .4477153-1 1zm7 5v1c0 .5522847.4477153 1 1 1h25.4c.37-.92.82-1.92 1.34-3h-26.74c-.5522847 0-1 .4477153-1 1z"/></g></g></svg>