<svg height="512" viewBox="0 0 54 57" width="512" xmlns="http://www.w3.org/2000/svg"><g id="Page-1" fill="none" fill-rule="evenodd"><g id="011---Painting-Fence" fill="rgb(0,0,0)" fill-rule="nonzero" transform="translate(-1)"><path id="Shape" d="m48 4.12v2.1l-1.53.38c-.7080193.16483121-1.2708478.70085834-1.47 1.4-.2137039.70966617-.0174407 1.47932573.51 2l2.49 2.41v8.39c-.0041261.3531156-.1941912.6778737-.5000416.8544047-.3058503.1765311-.6821322.1786578-.9899584.0055953-1.7271637-.9231847-3.6347427-1.4589448-5.59-1.57-.5287239-.0317798-.9409542-.4703227-.94-1v-18c-.0020776-.28737984.1195851-.56176242.3339581-.75316693.214373-.1914045.5007322-.28132706.7860419-.24683307 5.63.62 6.75 3.52 6.9 4.03zm-12 29.88h-2c-.5522847 0-1-.4477153-1-1v-2c0-.5522847.4477153-1 1-1h2c.5522847 0 1 .4477153 1 1v2c0 .5522847-.4477153 1-1 1zm-2 2h2c.5522847 0 1 .4477153 1 1v6c0 .5522847-.4477153 1-1 1h-2c-.5522847 0-1-.4477153-1-1v-6c0-.5522847.4477153-1 1-1zm0 10h2c.5522847 0 1 .4477153 1 1v2c0 .5522847-.4477153 1-1 1h-2c-.5522847 0-1-.4477153-1-1v-2c0-.5522847.4477153-1 1-1zm2-18h-2c-.5522847 0-1-.4477153-1-1v-4c0-.5522847.4477153-1 1-1h2c.5522847 0 1 .4477153 1 1v4c0 .5522847-.4477153 1-1 1zm1-8h-4c-.5522847 0-1-.4477153-1-1v-18c0-.55228475.4477153-1 1-1h4c.5522847 0 1 .44771525 1 1v18c0 .5522847-.4477153 1-1 1zm-16.68-8c-.7038996.0029368-1.4039594.103907-2.08.3l-9.33 1.7c-2.209139 0-4-1.790861-4-4s1.790861-4 4-4l9.33 1.7c2.6141359.77618491 5.4432802.04967909 7.36-1.89l2.69-2.69c.2860905-.28845995.7182668-.37516186 1.0934815-.21937095s.6188811.52310588.6165185.92937095v12.34c.0023626.4062651-.2413038.77358-.6165185.929371-.3752147.1557909-.807391.0690889-1.0934815-.219371l-2.69-2.69c-1.3962695-1.4067835-3.2979361-2.1955429-5.28-2.19zm7.18 6.91 2.79 2.8c.0938689.0926027.2063566.1641858.33.21.1202223.051241.2493227.07842.38.08v33c0 .5522847-.4477153 1-1 1h-4c-.5522847 0-1-.4477153-1-1v-4-6-10-6-7.58zm-7.5 17.09h2c.5522847 0 1 .4477153 1 1v6c0 .5522847-.4477153 1-1 1h-2c-.5522847 0-1-.4477153-1-1v-6c0-.5522847.4477153-1 1-1zm0 10h2c.5522847 0 1 .4477153 1 1v2c0 .5522847-.4477153 1-1 1h-2c-.5522847 0-1-.4477153-1-1v-2c0-.5522847.4477153-1 1-1zm3-15v2c0 .5522847-.4477153 1-1 1h-2c-.5522847 0-1-.4477153-1-1v-2c0-.5522847.4477153-1 1-1h2c.5522847 0 1 .4477153 1 1zm-19.62 24c.08405404-3.1143582-.76572687-6.1826245-2.44-8.81 1.11494108.2491669 2.14765048.7792911 3 1.54 1.69 1.51 2.69 3.93 3 7.2.03140242.283696-.05992104.5672904-.25096831.7793529-.19104727.2120624-.46360823.3323798-.74903169.3306471h-1.56c-.27229466.0002179-.53290354-.1106119-.7216334-.306891-.18872986-.196279-.28925848-.4610322-.2783666-.733109zm3.8-6.33c-.49400359-2.817982-1.48256533-5.5263703-2.92-8 2.0289146.9026225 3.73713323 2.3981853 4.9 4.29 1.7553412 3.0449455 2.7084764 6.485867 2.77 10 0 .5522847-.4477153 1-1 1h-1c-.52967725.0009542-.96822017-.4112761-1-.94-.10897928-2.2323527-.70635309-4.4136205-1.75-6.39zm6.76 6.33c-.0666835-3.810613-1.0767985-7.5452898-2.94-10.87v-22.71l3-3 3 3v33.58c0 .5522847-.4477153 1-1 1h-1.07c-.5483755-.005484-.9900274-.451597-.99-1zm6.06-3h2c.5522847 0 1 .4477153 1 1v2c0 .5522847-.4477153 1-1 1h-2c-.5522847 0-1-.4477153-1-1v-2c0-.5522847.4477153-1 1-1zm13 3v-2c0-.5522847.4477153-1 1-1h2c.5522847 0 1 .4477153 1 1v2c0 .5522847-.4477153 1-1 1h-2c-.5522847 0-1-.4477153-1-1zm6-4v-29c2.059258-.0756934 4.1093541.310408 6 1.13v21c-1.8632015 3.3247102-2.8733165 7.059387-2.94 10.87 0 .5522847-.4477153 1-1 1h-1.06c-.5522847 0-1-.4477153-1-1zm6.07 5c-.5522847 0-1-.4477153-1-1 .0615236-3.514133 1.0146588-6.9550545 2.77-10 1.159458-1.8946911 2.8686847-3.3911365 4.9-4.29-1.4389688 2.4729105-2.4276331 5.1815798-2.92 8-1.0492945 1.9884799-1.6468364 4.1840195-1.75 6.43-.0317798.5287239-.4703227.9409542-1 .94zm6.55 0h-1.53c-.2854235.0017327-.5579844-.1185847-.7490317-.3306471-.1910473-.2120625-.2823707-.4956569-.2509683-.7793529.29-3.25 1.28-5.66 2.95-7.18.8532755-.761407 1.8852822-1.2946105 3-1.55-1.6730354 2.6381374-2.5160465 5.7175664-2.42 8.84 0 .2652165-.1053568.5195704-.2928932.7071068s-.4418903.2928932-.7071068.2928932z"/><path id="Shape" d="m11 9h-2c-.55228475 0-1 .44771525-1 1 0 .5522847.44771525 1 1 1h2c.5522847 0 1-.4477153 1-1 0-.55228475-.4477153-1-1-1z"/></g></g></svg>