<svg height="512" viewBox="0 0 56 56" width="512" xmlns="http://www.w3.org/2000/svg"><g id="Page-1" fill="none" fill-rule="evenodd"><g id="013---Roller" fill="rgb(0,0,0)" fill-rule="nonzero"><path id="Shape" d="m40.39 40.39c.3895853-.3860563.6091341-.9115336.61-1.46-.0004148-.5514915-.2198291-1.080244-.61-1.47l-.09-.09-4-4-32.76-32.76c-.80909716-.80909716-2.12090284-.80909716-2.93 0s-.80909716 2.12090284 0 2.93l36.85 36.85c.8174587.7886523 2.1125413.7886523 2.93 0z"/><path id="Shape" d="m17 46c-2.7614237 0-5 2.2385763-5 5s2.2385763 5 5 5 5-2.2385763 5-5c0-1.3260824-.5267842-2.597852-1.4644661-3.5355339s-2.2094515-1.4644661-3.5355339-1.4644661zm0 6c-.5522847 0-1-.4477153-1-1s.4477153-1 1-1 1 .4477153 1 1-.4477153 1-1 1z"/><path id="Shape" d="m36 22.28c-2.0447908.3633763-4.004542 1.1025212-5.78 2.18l5.78 5.78z"/><path id="Shape" d="m33.07 38.82-8.61-8.6c-2.5947764 4.2508139-3.1698471 9.4337756-1.57 14.15z"/><path id="Shape" d="m36 19v-4c0-1.6568542 1.3431458-3 3-3s3 1.3431458 3 3v4c1.7217216-1.2912912 2.4239867-3.5394281 1.7434165-5.5811388s-2.5912645-3.4188612-4.7434165-3.4188612-4.0628463 1.3771505-4.7434165 3.4188612.0216949 4.2898476 1.7434165 5.5811388z"/><path id="Shape" d="m38 15v17.24l2 2v-19.24c0-.5522847-.4477153-1-1-1s-1 .4477153-1 1z"/><path id="Shape" d="m42 22.28v14c1.0419212 1.2014387 1.286463 2.9005763.6256363 4.3470764-.6608267 1.4465002-2.1053365 2.3740025-3.6956363 2.3729236-.2758426.0008274-.5509036-.0293622-.82-.09l-12.35 6.73c4.7219076 5.9015485 12.7730673 7.9769473 19.7595291 5.09354s11.2302947-10.033116 10.4154114-17.5471463-6.4927732-13.5877457-13.9349405-14.9063937zm-3 31.72c-2.209139 0-4-1.790861-4-4s1.790861-4 4-4 4 1.790861 4 4-1.790861 4-4 4zm11.53-17c-.606373.3556325-1.2970361.5421115-2 .54-2.0072164.003562-3.7062455-1.4810177-3.9719085-3.4705789-.265663-1.9895611.9843186-3.8679175 2.9221468-4.3911311s3.9633388.4707598 4.7351413 2.3236633.0508622 3.9908749-1.6853796 4.9980467z"/><path id="Shape" d="m34.54 40.3-11.95 6.51c.4209332.5323745.758149 1.1258743 1 1.76l12.41-6.79z"/><path id="Shape" d="m48.52 31.5c-.3512598.0006233-.6961604.0937465-1 .27-.461948.2692078-.7968722.712172-.93 1.23-.1313747.5135281-.0597423 1.0579347.2 1.52.4854231.8407762 1.504551 1.2115107 2.4167334.8791501.9121823-.3323607 1.4539335-1.2718135 1.2846944-2.2277939-.169239-.9559803-1.0005832-1.6523514-1.9714278-1.6513562z"/><circle id="Oval" cx="39" cy="50" r="2"/></g></g></svg>