<svg height="512" viewBox="0 0 60 58" width="512" xmlns="http://www.w3.org/2000/svg"><g id="Page-1" fill="none" fill-rule="evenodd"><g id="014---Planting-Seeds" fill="rgb(0,0,0)" fill-rule="nonzero"><path id="Shape" d="m59 46h-15.59c-1.7768522.0057342-3.3369302 1.182921-3.83 2.89-1.2670339 4.2327513-5.1616792 7.132318-9.58 7.132318s-8.3129661-2.8995667-9.58-7.132318c-.4930698-1.707079-2.0531478-2.8842658-3.83-2.89h-15.59c-.55228475 0-1 .4477153-1 1v10c0 .5522847.44771525 1 1 1h58c.5522847 0 1-.4477153 1-1v-10c0-.5522847-.4477153-1-1-1z"/><path id="Shape" d="m0 14v18c0 .5522847.44771525 1 1 1h6c.55228475 0 1-.4477153 1-1v-18c0-.5522847-.44771525-1-1-1h-6c-.55228475 0-1 .4477153-1 1zm23.5 23c-.6066934 0-1.1536478.3654633-1.3858193.9259749-.2321715.5605115-.1038379 1.2056883.3251591 1.6346853s1.0741738.5573306 1.6346853.3251591c.5605116-.2321715.9259749-.7791259.9259749-1.3858193 0-.8284271-.6715729-1.5-1.5-1.5zm0-14c-.6066934 0-1.1536478.3654633-1.3858193.9259749-.2321715.5605115-.1038379 1.2056883.3251591 1.6346853s1.0741738.5573306 1.6346853.3251591c.5605116-.2321715.9259749-.7791259.9259749-1.3858193 0-.8284271-.6715729-1.5-1.5-1.5zm0 0c-.6066934 0-1.1536478.3654633-1.3858193.9259749-.2321715.5605115-.1038379 1.2056883.3251591 1.6346853s1.0741738.5573306 1.6346853.3251591c.5605116-.2321715.9259749-.7791259.9259749-1.3858193 0-.8284271-.6715729-1.5-1.5-1.5zm33.91-2.41c-.3733503-.3755878-.8804232-.5877672-1.41-.59h-16c-.5522847 0-1-.4477153-1-1s.4477153-1 1-1h9.85c.5639881.0080063 1.1079158-.2090684 1.5114201-.6031889s.6333155-.9327908.6385799-1.4968111c-.0276209-.4946714-.2378647-.961484-.59-1.31-.3733503-.3755878-.8804232-.5877672-1.41-.59h-19.56c-.4284758 1.8217587-1.4142015 3.4646349-2.82 4.7-.1646213.1702631-.3843289.2765732-.62.3-.4126786-.0010743-.7823124-.2555422-.9306042-.6406582s-.0447804-.8217719.2606042-1.0993418c1.2768363-1.1165908 2.1048061-2.6588178 2.33-4.34.052792-.4311887.0695167-.8660302.05-1.3-.0695362-2.40103905 1.29962-4.61214749 3.48-5.62l4.66-2.17c.4870882-.21815074.8667798-.62193567 1.0545889-1.12150792.1878091-.49957224.1681551-1.05348712-.0545889-1.53849208-.4780315-.98944485-1.6485365-1.42948433-2.66-1l-14.54 6.83c-1.9376536.98188273-3.6190298 2.40300516-4.91 4.15-1.1855446 1.756395-2.9582672 3.0327552-5 3.6-.4372829.1320515-.7295036.5436301-.71 1v15.04c-.0007787.3743567.2076004.7177963.54.89 3.4313805 1.7903666 7.0776175 3.1346014 10.85 4 1.368664-1.0673245 3.3171682-.951699 4.55.27h17.88c1.1556596.0169815 2.1119621-.8948417 2.15-2.05-.0276209-.4946714-.2378647-.961484-.59-1.31-.3733503-.3755878-.8804232-.5877672-1.41-.59h-4c-.5522847 0-1-.4477153-1-1s.4477153-1 1-1h10.85c.5639881.0080063 1.1079158-.2090684 1.5114201-.6031889s.6333155-.9327908.6385799-1.4968111c-.0276209-.4946714-.2378647-.961484-.59-1.31-.3733503-.3755878-.8804232-.5877672-1.41-.59h-11c-.5522847 0-1-.4477153-1-1s.4477153-1 1-1h15.85c.5639881.0080063 1.1079158-.2090684 1.5114201-.6031889s.6333155-.9327908.6385799-1.4968111c-.0276209-.4946714-.2378647-.961484-.59-1.31zm-33.91 7.41c-1.9329966 0-3.5-1.5670034-3.5-3.5s1.5670034-3.5 3.5-3.5 3.5 1.5670034 3.5 3.5-1.5670034 3.5-3.5 3.5zm8 6c-1.9329966 0-3.5-1.5670034-3.5-3.5s1.5670034-3.5 3.5-3.5 3.5 1.5670034 3.5 3.5-1.5670034 3.5-3.5 3.5zm0-5c-.8284271 0-1.5.6715729-1.5 1.5s.6715729 1.5 1.5 1.5 1.5-.6715729 1.5-1.5-.6715729-1.5-1.5-1.5zm-8-6c-.6066934 0-1.1536478.3654633-1.3858193.9259749-.2321715.5605115-.1038379 1.2056883.3251591 1.6346853s1.0741738.5573306 1.6346853.3251591c.5605116-.2321715.9259749-.7791259.9259749-1.3858193 0-.8284271-.6715729-1.5-1.5-1.5z"/><circle id="Oval" cx="31.5" cy="46.5" r="3.5"/></g></g></svg>