<svg height="512" viewBox="0 0 56 56" width="512" xmlns="http://www.w3.org/2000/svg"><g id="Page-1" fill="none" fill-rule="evenodd"><g id="016---Band-Stand" fill="rgb(0,0,0)" fill-rule="nonzero"><path id="Shape" d="m48.89 15h-2.17c-.2336522.0004565-.4600879-.0809188-.64-.23l-11-9.13 14.23 7.47c.4058578.2072469.6202667.6626769.5214092 1.1075354-.0988574.4448585-.4859746.766616-.9414092.7824646zm.11 3v25c0 .5522847-.4477153 1-1 1h-2c-.5522847 0-1-.4477153-1-1v-25c0-.5522847.4477153-1 1-1h2c.5522847 0 1 .4477153 1 1zm-8.53-3h-10.47c-.5522847 0-1-.4477153-1-1v-10.06c.2721486-.02383573.5426303-.0639071.81-.12l11.3 9.41c.3248561.2691834.4458287.7132874.3023708 1.110038-.1434578.3967506-.5204816.6607882-.9423708.659962zm-27.47 18v-4c0-6.627417 5.372583-12 12-12h6c6.627417 0 12 5.372583 12 12v4c0 .5522847-.4477153 1-1 1h-28c-.5522847 0-1-.4477153-1-1zm30 4v6c0 .5522847-.4477153 1-1 1h-1c-.5522847 0-1-.4477153-1-1v-6c0-.5522847.4477153-1 1-1h1c.5522847 0 1 .4477153 1 1zm-5 0v6c0 .5522847-.4477153 1-1 1h-1c-.5522847 0-1-.4477153-1-1v-6c0-.5522847.4477153-1 1-1h1c.5522847 0 1 .4477153 1 1zm-5 0v6c0 .5522847-.4477153 1-1 1h-8c-.5522847 0-1-.4477153-1-1v-6c0-.5522847.4477153-1 1-1h8c.5522847 0 1 .4477153 1 1zm-12 0v6c0 .5522847-.4477153 1-1 1h-1c-.5522847 0-1-.4477153-1-1v-6c0-.5522847.4477153-1 1-1h1c.5522847 0 1 .4477153 1 1zm-5 0v6c0 .5522847-.4477153 1-1 1h-1c-.5522847 0-1-.4477153-1-1v-6c0-.5522847.4477153-1 1-1h1c.5522847 0 1 .4477153 1 1zm-3-15.17v-3.83c0-.5522847.4477153-1 1-1h3.83c-1.9807769 1.1907668-3.6392332 2.8492231-4.83 4.83zm25.17-4.83h3.83c.5522847 0 1 .4477153 1 1v3.83c-1.1907668-1.9807769-2.8492231-3.6392332-4.83-4.83zm-10.17-17c.9940267-.01200285 1.8459871.70790368 2 1.69-.6407496.23011837-1.3196531.33534841-2 .31-.6803469.02534841-1.3592504-.07988163-2-.31.1540129-.98209632 1.0059733-1.70200285 2-1.69zm-1.82 3.82c.2707236.05615914.5445366.09622935.82.12v10.06c0 .5522847-.4477153 1-1 1h-10.47c-.4218892.0008262-.798913-.2632114-.9423708-.659962-.1434579-.3967506-.0224853-.8408546.3023708-1.110038zm-19.53 9.29 14.19-7.45-10.92 9.1c-.17852177.1526887-.40509923.2376553-.64.24h-2.17c-.46270345.0018765-.86626893-.3139261-.97569121-.763509-.10942229-.4495829.10387795-.9155222.51569121-1.126491zm4.35 4.89v25c0 .5522847-.4477153 1-1 1h-2c-.55228475 0-1-.4477153-1-1v-25c0-.5522847.44771525-1 1-1h2c.5522847 0 1 .4477153 1 1zm-7 29c0-.5522847.44771525-1 1-1h46c.5522847 0 1 .4477153 1 1v2c0 .5522847-.4477153 1-1 1h-46c-.55228475 0-1-.4477153-1-1zm-4 8v-2c0-.5522847.44771525-1 1-1h54c.5522847 0 1 .4477153 1 1v2c0 .5522847-.4477153 1-1 1h-54c-.55228475 0-1-.4477153-1-1z"/></g></g></svg>