<svg height="512" viewBox="0 0 56 56" width="512" xmlns="http://www.w3.org/2000/svg"><g id="Page-1" fill="none" fill-rule="evenodd"><g id="017---Fountain" fill="rgb(0,0,0)" fill-rule="nonzero"><path id="Shape" d="m2.13 43c-.55228475 0-1-.4477153-1-1 0-.68.07-1.36.12-2 .02858124-.3572656.24559033-.6721447.56928203-.8260254s.70488955-.1233849 1.00000001.08c.29511045.2033849.45929921.5487598.43071796.9060254 0 .64-.09 1.3-.12 2-.07922838.4890578-.50460721.846376-1 .84zm.56-6h-.14c-.54671633-.0773971-.92723305-.5832605-.85-1.13.1-.6666667.21-1.3333333.33-2 .0643078-.3572656.31432959-.6530848.65588457-.7760254s.72275284-.054325 1.00000001.18c.27724718.234325.40842323.5987598.34411542.9560254-.12.63-.22 1.28-.32 1.94-.08469973.4927533-.52031701.8472262-1.02.83zm1.2-5.87c-.08635626.0103734-.17364374.0103734-.26 0-.53227678-.1417217-.84972466-.6871955-.71-1.22.18-.68.37-1.33.58-2 .09006987-.3622287.3743792-.6441441.73735657-.7311479s.744197.0353877.98869353.3174226.31156798.6767621.1739499 1.0237253c-.19.61-.38 1.23-.55 1.87-.10548057.446495-.50125478.7639389-.96.77zm2-5.66c-.14196393.0039136-.28272757-.0269857-.41-.09-.47755022-.2339701-.68845354-.8007727-.48-1.29.3-.65.61-1.28.94-1.86.17863279-.3108211.50951737-.5027321.86801271-.5034421s.69013747.1898889.87000001.5.18062009.692621.00198728 1.0034421c-.3.54-.59 1.11-.87 1.71-.17287888.3533312-.53684098.5724912-.93.56zm14.61-3.15c-.3326261.0005011-.6437296-.1644212-.83-.44-.3050737-.4638926-.6390685-.9081057-1-1.33-.3589851-.4197364-.3097364-1.0510149.11-1.41s1.0510149-.3097364 1.41.11c.4134356.47968.7974706.9839345 1.15 1.51.1488534.2200282.2040417.4902421.1533875.7510177-.0506543.2607756-.2029878.4906795-.4233875.6389823-.1676021.1257913-.3704867.1957515-.58.2zm-11.38-1.84c-.40124004.0024914-.76511561-.2350882-.92422642-.6034407-.15911082-.3683524-.08264228-.7961398.19422642-1.0865593.50387954-.5342068 1.05998723-1.0166135 1.66-1.44.4556349-.3148023 1.0801977-.2006349 1.395.255s.2006349 1.0801977-.255 1.395c-.4881565.3474156-.9404002.7427101-1.35 1.18-.18949829.1933362-.44928618.3015811-.72.3zm7.17-2c-.1370587-.0024007-.2725609-.0295011-.4-.08-.5016262-.2278846-1.0402548-.3633886-1.59-.4-.5522847-.0331371-.9731371-.5077153-.94-1.06s.5077153-.9731371 1.06-.94c.7845652.0461491 1.5539887.2359628 2.27.56.4258304.1938858.6602928.6571233.5643855 1.1150807-.0959073.4579575-.4965415.7881904-.9643855.7949193z"/><path id="Shape" d="m32.5 0c1.5 0 3.26 3.36 3.5 8h-7c.24-4.64 2-8 3.5-8zm-9 0c1.5 0 3.26 3.36 3.5 8h-7c.24-4.64 2-8 3.5-8zm-5.5 11.5c0-.8284271.6715729-1.5 1.5-1.5h17c.8284271 0 1.5.6715729 1.5 1.5s-.6715729 1.5-1.5 1.5h-.36c-.0465494-.0046784-.0934506-.0046784-.14 0h-.15-16.35c-.8284271 0-1.5-.6715729-1.5-1.5zm5.25 6.26c-.7008214-.8585711-1.3170196-1.7828683-1.84-2.76h13.18c-.5229804.9771317-1.1391786 1.9014289-1.84 2.76-1.1174099 1.5582768-1.86625 3.3500219-2.19 5.24h-5.12c-.32375-1.8899781-1.0725901-3.6817232-2.19-5.24zm-10.25 8.74c0-.8284271.6715729-1.5 1.5-1.5h27c.8284271 0 1.5.6715729 1.5 1.5s-.6715729 1.5-1.5 1.5h-27c-.8284271 0-1.5-.6715729-1.5-1.5zm6.78 8.88-.76-1h10c.5522847 0 1-.4477153 1-1s-.4477153-1-1-1h-11.38c-.5079752-.7536822-.9496299-1.549999-1.32-2.38h23.36c-.9107174 1.9382442-2.0741697 3.7473117-3.46 5.38-1.8389535 2.5595068-3.0608127 5.5097664-3.57 8.62h-9.3c-.5091873-3.1102336-1.7310465-6.0604932-3.57-8.62zm27.22 20.62h-38c-2.92930069.0019138-5.43178374-2.1116698-5.92-5h49.84c-.4882163 2.8883302-2.9906993 5.0019138-5.92 5zm7.5-7h-53c-.82842712 0-1.5-.6715729-1.5-1.5s.67157288-1.5 1.5-1.5h53c.8284271 0 1.5.6715729 1.5 1.5s-.6715729 1.5-1.5 1.5z"/><path id="Shape" d="m54 43c-.5522847 0-1-.4477153-1-1 0-.66-.07-1.32-.12-2-.0441828-.5522847.3677153-1.0358172.92-1.08s1.0358172.3677153 1.08.92c0 .67.09 1.35.12 2 0 .5522847-.4477153 1-1 1zm-.56-6c-.4986434.0056372-.9252306-.3569619-1-.85-.1-.66-.2-1.31-.32-1.94-.0994113-.5522847.2677153-1.0805887.82-1.18s1.0805887.2677153 1.18.82c.12.6666667.23 1.3333333.33 2 .0427039.2687318-.0259451.5432617-.1901116.7602634s-.4096732.357735-.6798884.3897366zm-1.2-5.87c-.4677664.0148006-.883234-.2968001-1-.75-.17-.64-.36-1.26-.55-1.87-.1376181-.3469632-.0705466-.7416904.1739499-1.0237253s.6257162-.4044264.9886935-.3174226c.3629774.0870038.6472867.3689192.7373566.7311479.21.64.4 1.29.58 2 .1397247.5328045-.1777232 1.0782783-.71 1.22-.0717682.0208399-.1454893.0342438-.22.04zm-2-5.66c-.390571.0009665-.7459609-.2255458-.91-.58-.28-.6-.57-1.17-.87-1.71-.1786328-.3108211-.1778752-.693331.0019873-1.0034421s.5115047-.50071.87-.5.6893799.192621.8680127.5034421c.33.58.64 1.21.94 1.86.2265995.4999117.0079098 1.0890349-.49 1.32-.1197552.0789242-.2571651.1270177-.4.14zm-14.6-3.12c-.1988376-.0035251-.3927584-.062394-.56-.17-.2203997-.1483028-.3727332-.3782067-.4233875-.6389823-.0506542-.2607756.0045341-.5309895.1533875-.7510177.3654473-.5271705.7628589-1.0314491 1.19-1.51.3589851-.4197364.9902636-.4689851 1.41-.11s.4689851.9902636.11 1.41c-.3578477.4243597-.6917015.8683853-1 1.33-.195907.290804-.5298126.4577568-.88.44zm11.36-1.87c-.2721876-.0010388-.5321912-.1129847-.72-.31-.4069332-.4332945-.8557918-.8252085-1.34-1.17-.4205337-.3259941-.5121453-.9242081-.2084432-1.3611129.3037022-.4369048.8963478-.5594767 1.3484432-.2788871.6000128.4233865 1.1561205.9057932 1.66 1.44.2712368.2924434.3427473.7181047.1819637 1.0831269-.1607836.3650221-.5231089.5995891-.9219637.5968731zm-7.17-2c-.3988865.001389-.7604469-.2344113-.92-.6-.216144-.5053686.0161019-1.0904496.52-1.31.7184528-.3286731 1.4914013-.5219102 2.28-.57.265334-.0163994.5262777.0735261.7251761.2499078.1988985.1763816.3193798.4247009.3348239.6900922.0163994.265334-.0735261.5262777-.2499078.7251761-.1763816.1988985-.4247009.3193798-.6900922.3348239-.5491215.0334513-1.0877244.1655614-1.59.39-.1267986.0539271-.2623233.0844202-.4.09z"/></g></g></svg>