<svg height="512" viewBox="0 0 57 58" width="512" xmlns="http://www.w3.org/2000/svg"><g id="Page-1" fill="none" fill-rule="evenodd"><g id="018---Watering-Plants" fill="rgb(0,0,0)" fill-rule="nonzero"><path id="Shape" d="m11.6 49h-7.2c-.29956803-.004901-.58555033.1247748-.77925348.3533445s-.27471607.5319483-.22074652.8266555l1.45 7.82h6.29l1.44-7.82c.0532967-.2912453-.0252096-.5911354-.2143764-.8189077-.1891669-.2277724-.4695439-.360007-.7656236-.3610923z"/><rect id="Rectangle-path" height="3" rx="1" width="14" x="1" y="44"/><path id="Shape" d="m5.1 42c.52510342.0834633 1.05841197-.0896575 1.43437721-.4656228.37596524-.3759652.5490861-.9092738.46562279-1.4343772-.17243839-.8708666-.62556832-1.6612095-1.29-2.25-1.39848688-1.0798997-3.05813237-1.769981-4.81-2 0 0-.06.07-.07.1.25146494 1.7427528.95863277 3.3882115 2.05 4.77.57960781.658574 1.35965444 1.1083306 2.22 1.28z"/><path id="Shape" d="m10.31 37.85c-.67182499.5858559-1.13217189 1.3765281-1.31 2.25-.08346331.5251034.08965755 1.058412.46562279 1.4343772.37596524.3759653.90927381.5490861 1.43437721.4656228.8701735-.172929 1.6581633-.6302445 2.24-1.3 1.0850184-1.3917153 1.7758068-3.0496075 2-4.8-.0265035-.0275112-.0568113-.051084-.09-.07-1.7293206.2477408-3.3635686.9441925-4.74 2.02z"/><path id="Shape" d="m20.88 35.81s-.06.07-.07.1c.2514649 1.7427528.9586328 3.3882115 2.05 4.77.5788447.677161 1.3671758 1.1417133 2.24 1.32.5251034.0834633 1.058412-.0896575 1.4343772-.4656228.3759653-.3759652.5490861-.9092738.4656228-1.4343772-.1724384-.8708666-.6255683-1.6612095-1.29-2.25-1.3999046-1.0974819-3.0672162-1.801688-4.83-2.04z"/><path id="Shape" d="m24.85 57.97 6.29.03 1.66-9h-9.6z"/><path id="Shape" d="m28 37.53c.2677447-.3888044.5688854-.7535193.9-1.09.3388413-.3146742.7072095-.5959735 1.1-.84-.2725603-1.6761463-.9600971-3.2574809-2-4.6 0 0-.08 0-.11 0-.9941393 1.3571373-1.6428281 2.9359565-1.89 4.6.3858482.2450824.7474806.526352 1.08.84.3380463.3356432.6459004.7003834.92 1.09z"/><path id="Shape" d="m21 44v3h1 12 1v-3z"/><path id="Shape" d="m30.31 37.85c-.671825.5858559-1.1321719 1.3765281-1.31 2.25-.0834633.5251034.0896575 1.058412.4656228 1.4343772.3759652.3759653.9092738.5490861 1.4343772.4656228.8701735-.172929 1.6581633-.6302445 2.24-1.3 1.0850184-1.3917153 1.7758068-3.0496075 2-4.8-.0265035-.0275112-.0568113-.051084-.09-.07-1.7293206.2477408-3.3635686.9441925-4.74 2.02z"/><path id="Shape" d="m43.29 42c.5179349.0747136 1.0407775-.0991702 1.4108037-.4691963.3700261-.3700262.5439099-.8928688.4691963-1.4108037-.1812961-.8698273-.6369761-1.6585043-1.3-2.25-1.3956394-1.0782809-3.0516284-1.7682763-4.8-2-.0279699.029835-.0515407.0635076-.07.1.2368155 1.7378804.9265545 3.3829079 2 4.77.6007036.6645822 1.4071094 1.1082814 2.29 1.26z"/><path id="Shape" d="m51.6 49h-7.2c-.299568-.004901-.5855503.1247748-.7792535.3533445-.1937031.2285697-.274716.5319483-.2207465.8266555l1.45 7.82h6.29l1.44-7.82c.0532967-.2912453-.0252096-.5911354-.2143764-.8189077-.1891669-.2277724-.4695439-.360007-.7656236-.3610923z"/><path id="Shape" d="m54 44h-12c-.5522847 0-1 .4477153-1 1v2h14v-2c0-.5522847-.4477153-1-1-1z"/><path id="Shape" d="m52.13 37.85c-.6630239.5914957-1.1187039 1.3801727-1.3 2.25-.0808973.518378.0942554 1.0438359.47 1.41.3679602.3728699.8919099.5475198 1.41.47.8881787-.1624545 1.6952682-.6206275 2.29-1.3 1.0812012-1.393941 1.7715386-3.0507508 2-4.8 0 0-.06-.06-.09-.07-1.7452775.2468433-3.3943025.9506113-4.78 2.04z"/><path id="Shape" d="m52.71 31c.890856-.1677965 1.6982959-.6332203 2.29-1.32 1.0812012-1.393941 1.7715386-3.0507508 2-4.8 0 0-.06-.06-.09-.07-1.7413779.235122-3.3900579.9249463-4.78 2-.6630239.5914957-1.1187039 1.3801727-1.3 2.25-.0808973.518378.0942554 1.0438359.47 1.41.3562685.3948286.8818676.5923942 1.41.53z"/><path id="Shape" d="m48 25c.2677447-.3888044.5688854-.7535193.9-1.09.3362135-.3177783.7049069-.599326 1.1-.84-.2709613-1.6796514-.9585769-3.2646053-2-4.61h-.11c-.9974128 1.3590421-1.6463612 2.9419269-1.89 4.61.3881289.2418283.7500732.5233405 1.08.84.3380463.3356432.6459004.7003834.92 1.09z"/><path id="Shape" d="m43.29 31c.5179349.0747136 1.0407775-.0991702 1.4108037-.4691963.3700261-.3700262.5439099-.8928688.4691963-1.4108037-.1812961-.8698273-.6369761-1.6585043-1.3-2.25-1.3956394-1.0782809-3.0516284-1.7682763-4.8-2-.0279699.029835-.0515407.0635076-.07.1.2368155 1.7378804.9265545 3.3829079 2 4.77.6007036.6645822 1.4071094 1.1082814 2.29 1.26z"/><path id="Shape" d="m48 27c-.5522847 0-1 .4477153-1 1v12.34c0 .5522847.4477153 1 1 1s1-.4477153 1-1v-12.34c0-.5522847-.4477153-1-1-1z"/><path id="Shape" d="m35.61 6.29c-1.2376672-.47059108-2.6114633-.43103151-3.82.11l-1.08.49c-.8749937-.9170565-2.2319269-1.18524094-3.39-.67l-1.82.78-2.05-4.52c-.3252785-.73497895-.9318753-1.30869789-1.683822-1.59255774-.7519466-.28385985-1.5863497-.25411842-2.316178.08255774-.7237447.32692009-1.2883352.92747179-1.57 1.67-.2676029.75209696-.2244166 1.57983449.12 2.3l2 4.56-1.82.82c-.734979.3252785-1.3086979.9318753-1.5925577 1.683822-.2838599.7519466-.2541185 1.5863497.0825577 2.316178l-5.47 2.45c-2.38220324 1.0651266-4.23995948 3.0380925-5.16 5.48-.09418646.2479752-.08599025.523212.02278502.7651432s.30921629.4307323.55721498.5248568l2.08.79c-.7.77-2.7 3.05-2.7 4.67.00000003 1.6568542 1.34314578 2.9999999 3 2.9999999 1.6568542 0 3-1.3431457 3-2.9999999 0-1.44-1.55-3.39-2.42-4.37l.79.3c.1159561.0393746.2375416.0596389.36.06.4122928-.0012179.7815757-.2553481.93-.64.3248973-.8209069.9213842-1.5056314 1.69-1.94l8.47 3.21c.552704.861469 1.5064729 1.3817067 2.53 1.38.4244846-.0019661.8437194-.0939933 1.23-.27l9.12-4.1c.7331968-.3271467 1.3046681-.9345324 1.5865751-1.6862844.2819069-.7517519.2507233-1.5851332-.0865751-2.3137156l-1.2-2.7.92-.41c2.5067008-1.1436745 3.6157727-4.0997091 2.48-6.61-.5457102-1.2087986-1.5493241-2.15126038-2.79-2.62zm-14.99 16.71-4.74-1.79 3.27-1.47zm-10.39-.28-1.88-.72c.80226262-1.5167459 2.0863703-2.7234553 3.65-3.43l5.47-2.46.82 1.82-5.47 2.46c-1.0799413.5051575-1.9825351 1.3241133-2.59 2.35zm16.33-7.72c-.0886024.2481017-.2772525.4476355-.52.55-.5026133.2253043-1.0927874.0017535-1.32-.5l-2.45-5.44-2.47-5.49c-.1027779-.24637774-.1027779-.52362226 0-.77.1436753-.3795743.5025182-.63466452.9082262-.6456296s.7778057.22436999.9417738.5956296l2.46 5.46 2.45 5.46c.1055802.2492816.1055802.5307184 0 .78zm10.08-3c-.2816648.7425282-.8462553 1.3430799-1.57 1.67l-.91.41-2.46-5.44.91-.41c1.1029894-.47565831 2.383369-.24754951 3.2542247.57976343.8708558.82731293 1.1642822 2.09431987.7457753 3.22023657z"/></g></g></svg>