<svg height="512" viewBox="0 0 60 60" width="512" xmlns="http://www.w3.org/2000/svg"><g id="Page-1" fill="none" fill-rule="evenodd"><g id="019---Raking" fill="rgb(0,0,0)" fill-rule="nonzero" transform="translate(-1)"><path id="Shape" d="m25 30.16c-.2640094.2716665-.6215822.4325743-1 .45l-5.17.17c.5029496 6.0682581 5.3213025 10.8823806 11.39 11.38l.17-5.16c.0213339-.375473.17759-.7306005.44-1l3.91-3.91-5.84-5.84z"/><path id="Shape" d="m16.84 30.85-9 .3h-.06-.07l-3 .56c-.59749876.1071853-1.14842458.3931088-1.58.82l-1.84 1.86c-.18931265.1877666-.29579832.4433625-.29579832.71s.10648567.5222334.29579832.71c.1877666.1893127.44336246.2957983.71.2957983s.5222334-.1064856.71-.2957983l1.85-1.81c.1411908-.1435568.3224301-.2411472.52-.28l2-.36c.18985201 1.2136124.4740467 2.4105736.85 3.58l-2.43 1c-.2454691.0941447-.46733564.2409179-.65.43l-2.16 2.11c-.38772359.3900375-.38772359 1.0199625 0 1.41.39003745.3877236 1.01996255.3877236 1.41 0l2.15-2.14 2.34-1c.43849677 1.0785158.95312784 2.1244868 1.54 3.13l-2.3 1.54c-.10872337.0722703-.20930864.1560913-.3.25l-2.22 2.25c-.28593449.2835193-.37392508.7108789-.22324902 1.0842935.15067606.3734145.51062081.6200283.91324902.6257065.2672459-.0011094.52292856-.1091444.71-.3l2.21-2.22 2.28-1.51c.6457807.933084 1.3576041 1.818686 2.13 2.65l-4.33 4.31c-.25723122.2554449-.35864445.6287169-.26603829.9792082.09260616.3504912.36516262.6249536.715.72.34983738.0950463.72380709-.0037633.98103829-.2592082l4.31-4.31c.835407.7676483 1.7206724 1.4792013 2.65 2.13l-1.51 2.25-2.22 2.22c-.2518723.2536586-.3492866.622421-.255548.9673781.0937387.344957.3643892.6137015.7100001.705s.7136757-.0087195.9655479-.2623781l2.21-2.21c.094018-.0942408.1778164-.1981508.25-.31l1.54-2.29c1.0065542.5849313 2.0523866 1.0994942 3.13 1.54l-1 2.34-2.11 2.12c-.1893127.1877666-.2957983.4433625-.2957983.71s.1064856.5222334.2957983.71c.1887188.1871865.444197.2915368.71.29.265803.0015368.5212812-.1028135.71-.29l2.14-2.15c.1919534-.1822922.3420727-.4040594.44-.65l1-2.43c1.1707274.3712722 2.3673296.6553816 3.58.85l-.37 2c-.0341588.1999633-.1283255.3848089-.27.53l-1.85 1.85c-.3877236.3900375-.3877236 1.0199625 0 1.41.3900375.3877236 1.0199625.3877236 1.41 0l1.85-1.85c.4287736-.4275752.7181208-.9748947.83-1.57l.55-3c.0061554-.0160983.0061554-.0339017 0-.05 0 0 0 0 0-.07l.3-9c-7.1134021-.5529355-12.7584445-6.2149684-13.29-13.33z"/><path id="Shape" d="m36.16 30.68 23.63-23.63c.77644-.77312922 1.2120231-1.8242885 1.21-2.92-.0023706-1.09483686-.4372846-2.14438139-1.21-2.92-1.612785-1.61239737-4.227215-1.61239737-5.84 0l-23.63 23.63z"/><path id="Shape" d="m49.58 49.41c.0528614.2613539-.0008454.5329959-.1491871.7545697-.1483417.2215737-.3790318.3747269-.6408129.4254303h-.2c-.4858642.0088364-.9077509-.3328918-1-.81l-.34-1.7-1.84 1.84.6 3c.1043932.5378195-.2434 1.0595093-.78 1.17-.0663327.0094367-.1336673.0094367-.2 0-.4827608.0097357-.9035264-.3268768-1-.8l-.34-1.71-1.51 1.51c-.3900375.3877236-1.0199625.3877236-1.41 0-.3877236-.3900375-.3877236-1.0199625 0-1.41l1.51-1.51-1.71-.34c-.2599387-.0529946-.4881678-.2071045-.6344551-.428411-.1462874-.2213065-.1986434-.4916715-.1455449-.751589.1329088-.5354504.6743509-.8621055 1.21-.73l3 .6 1.84-1.84-1.7-.34c-.540663-.1058045-.8939115-.62897-.79-1.17.0507034-.2617811.2038566-.4924712.4254303-.6408129.2215738-.1483417.4932158-.2020485.7545697-.1491871l3 .61 3.09-3.1c-2.8-2-7.15-1.33-11.25 2.77-3.23 3.23-4.52 9.65-4.39 12.4.0307127 1.0507562.8696185 1.8984006 1.92 1.94 2.75.13 9.17-1.16 12.4-4.39 4.1-4.1 4.76-8.45 2.77-11.25l-3.07 3.04z"/><path id="Shape" d="m54.25 38.29-3.6 3.6c.5497463.3901979 1.0298021.8702537 1.42 1.42l3.6-3.6c.2536586-.2536586.3527235-.623374.259878-.969878-.0928454-.3465041-.3634959-.6171546-.71-.71-.346504-.0928455-.7162194.0062194-.969878.259878z"/><path id="Shape" d="m59.17 25.94c-1.91-1-6.93-2.3-10.34-1.1-4.21 1.48-6.18 4.25-5.85 6.87l3.12-1.1.44-1.73c.1373917-.5313968.6774214-.8527367 1.21-.72.259353.0637044.4824491.2285027.6195752.4576722.137126.2291696.1768877.5036679.1104248.7623278l-.11.43 1.46-.52.38-1.49c.1353098-.5357162.6792838-.8603097 1.215-.725.5357162.1353098.8603097.6792838.725 1.215v.2l1.22-.43c.5357162-.1739697 1.1110303.1192838 1.285.655s-.1192838 1.1110303-.655 1.285l-1.26.44c.3074092.3535155.328191.8730605.05 1.25-.1888544.2518058-.4852427.4-.8.4-.2163702 0-.4269038-.0701779-.6-.2l-.88-.66-1.51.46.61.46c.4418278.3313708.5313708.9581722.2 1.4-.1888544.2518058-.4852427.4-.8.4-.2163702 0-.4269038-.0701779-.6-.2l-1.67-1.26-3.13 1.1c1.39 2.25 4.65 3.18 8.87 1.69 3.41-1.2 6.52-5.34 7.37-7.34.3178108-.7424792.0245157-1.6051118-.68-2z"/><path id="Shape" d="m43 31.71-3.83 1.35c-.4514783.1631926-.7232861.6241871-.6475354 1.0982402.0757508.474053.4776834.827388.9575354.8417598.1125935-.0012782.2241625-.0215635.33-.06l3.83-1.35c-.1751197-.283752-.3192786-.58548-.43-.9-.1039352-.3184626-.1743172-.6469118-.21-.98z"/><path id="Shape" d="m5 22h18c.5522847 0 1-.4477153 1-1s-.4477153-1-1-1h-18c-.55228475 0-1 .4477153-1 1s.44771525 1 1 1z"/><path id="Shape" d="m2 27h9c.5522847 0 1-.4477153 1-1s-.4477153-1-1-1h-9c-.55228475 0-1 .4477153-1 1s.44771525 1 1 1z"/><path id="Shape" d="m8 17h22.57c3.1676991.1163458 6.1053331-1.6485878 7.49-4.5 1.4526515-2.8880651 1.2149607-6.33841485-.62-9-1.59-2.08-4.1-2.9-7.06-2.32-2.6767972.41504882-4.5842212 2.81892567-4.38 5.52.21 2.18 2 4.37 5.61 4.37.6644589.0164368 1.306867-.2389023 1.7787378-.7069981.4718709-.4680959.7323616-1.10843239.7212622-1.7730019.0139752-.66541976-.2455964-1.30744744-.7181093-1.77618018-.4725128-.46873275-1.1166046-.72313926-1.7818907-.70381982-.5522847 0-1 .44771525-1 1s.4477153 1 1 1c.42 0 .5.26.5.48s-.08.48-.5.48c-2.48 0-3.5-1.33-3.62-2.57-.1061884-1.69081044 1.1358494-3.16628087 2.82-3.35 2.2-.44 4 .1 5.08 1.57 1.3893355 2.0478698 1.5466676 4.69181651.41 6.89-1.0503886 2.1832352-3.3107442 3.5205136-5.73 3.39h-22.57c-.55228475 0-1 .4477153-1 1s.44771525 1 1 1z"/></g></g></svg>