<svg height="512" viewBox="0 0 60 57" width="512" xmlns="http://www.w3.org/2000/svg"><g id="Page-1" fill="none" fill-rule="evenodd"><g id="020---Planting-Flowers" fill="rgb(0,0,0)" fill-rule="nonzero"><path id="Shape" d="m40 11.5v.1c.0201508 1.5375733.843325 2.9525225 2.17 3.73l.11.07c1.3606116.7200365 2.9893884.7200365 4.35 0l.08-.05c1.3835188-.7507828 2.2577657-2.1862275 2.29-3.76v-.19c-.0281155-1.53796463-.8537926-2.95070575-2.18-3.73l-.1-.07c-1.3570774-.7200163-2.9829226-.7200163-4.34 0l-.09.05h-.05c-1.3642216.7637204-2.2179164 2.19670807-2.24 3.76z"/><path id="Shape" d="m36.13 10c.5756307.2716241 1.1893758.4537243 1.82.54h.13c.2386679-1.57670471 1.0636442-3.00523507 2.31-4l-.1-.23c-.3626593-.47811622-.7979283-.89651433-1.29-1.24-1.342057-.5375115-2.8765832-.04141808-3.65 1.18-.3671985.6765397-.4534105 1.47040774-.24 2.21.1365016.62238274.5001973 1.17149198 1.02 1.54z"/><path id="Shape" d="m42.33 15.43h.01z"/><path id="Shape" d="m42.13 5.48c1.5019948-.56478633 3.1580052-.56478633 4.66 0l.21-.25c.212125-.54117472.3435302-1.11059717.39-1.69-.171381-1.44409062-1.3957754-2.53176931-2.85-2.53176931s-2.678619 1.08767869-2.85 2.53176931c.0421652.62193246.183972 1.23305229.42 1.81z"/><path id="Shape" d="m50.91 10.45h.26c.5896399-.0921351 1.162469-.270723 1.7-.53.5089878-.35754566.8657224-.89264758 1-1.5.2134105-.73959226.1271985-1.5334603-.24-2.21-.7834658-1.19683291-2.3029578-1.67402873-3.63-1.14-.5138238.36105984-.9749111.79185677-1.37 1.28l-.07.1c1.2552813.99315505 2.0935658 2.42002232 2.35 4z"/><ellipse id="Oval" cx="46" cy="54" rx="13" ry="3"/><path id="Shape" d="m52.83 38.43c-.6931817-1.3599164-1.6560862-2.5643977-2.83-3.54l-3.59-3c.3943998-.7380247.5972635-1.5632331.59-2.4-.0111896-1.5166719-.6437107-2.9624343-1.75-4-.8057513-.710119-1.2621286-1.7360554-1.25-2.81v-.74c.1643638.0359472.3317978.0560393.5.06 1.4452621-.030856 2.6536502-1.1078054 2.85-2.54-.0419692-.6230041-.187286-1.2346866-.43-1.81l-.05-.13c-.753091.306605-1.556956.4694131-2.37.48-.7886421-.0037746-1.5705023-.145931-2.31-.42l-.16.21c-.2145653.5433764-.3427828 1.1169811-.38 1.7.0259976.3677497.1465596.7225464.35 1.03v2.22c.0045584 1.5325914.6370447 2.9963455 1.75 4.05.7854222.6784655 1.2408346 1.6621564 1.25 2.7.0258351.7208206-.2004909 1.4280895-.64 2-.187391.2534289-.387654.4970821-.6.73-.9119176.8725914-1.5096232 2.0222956-1.7 3.27l-3.56 2.83c-.9474531.7585692-1.4992415 1.9062892-1.5 3.12v1.15l-1.71 1.7c-.1893127.1877666-.2957983.4433625-.2957983.71s.1064856.5222334.2957983.71c.1887188.1871865.444197.2915368.71.29.2623399-.0011046.5137394-.1052558.7-.29l1.3-1.3 1.29 1.3c.1887188.1871865.444197.2915368.71.29.4044441-.0016958.7680455-.2468472.9212679-.6211476s.0658935-.8040433-.2212679-1.0888524l-1.7-1.7v-1.15c.0003792-.6068554.2762735-1.1807154.75-1.56l2.49-2c.3208784.9012303.8364396 1.7206654 1.51 2.4.7863952.686246 1.2413905 1.6763158 1.25 2.72 0 .5522847.4477153 1 1 1s1-.4477153 1-1c-.014956-1.5179172-.6509965-2.9634637-1.76-4-.7912996-.6801066-1.2465101-1.6715921-1.2465101-2.715s.4552105-2.0348934 1.2465101-2.715l3.49 2.91c2.0473443 1.7062438 3.2427553 4.2250151 3.27 6.89v.22l-1.71 1.7c-.1893127.1877666-.2957983.4433625-.2957983.71s.1064856.5222334.2957983.71c.1887188.1871865.444197.2915368.71.29.2623399-.0011046.5137394-.1052558.7-.29l1.3-1.3 1.29 1.3c.1887188.1871865.444197.2915368.71.29.4044441-.0016958.7680455-.2468472.9212679-.6211476s.0658935-.8040433-.2212679-1.0888524l-1.7-1.7v-.22c-.0035128-1.7148964-.4039664-3.4057006-1.17-4.94z"/><path id="Shape" d="m13 15.71 2.26 4.45c.1198653.238147.3298663.4185688.5833539.501187.2534875.0826182.5294717.0605915.7666461-.061187.4602992-.2663097.6316581-.8462938.39-1.32l-7.21-14.28-1.79.91z"/><path id="Shape" d="m28 32c-.6643967-.0061343-1.3246175.1055954-1.95.33-.6953855.2331113-1.3401511.5962161-1.9 1.07-.6482111.5485786-1.1701372 1.2308349-1.53 2-.2593691.4559668-.8269887.6340107-1.300314.4078664-.4733252-.2261442-.6914507-.7795998-.499686-1.2678664.4691916-1.0077876 1.151572-1.9017059 2-2.62.6157688-.5159199 1.3071734-.9341354 2.05-1.24l.64-2c.762437-2.2719296.5786329-4.7550872-.51-6.89l-4-7.9c-.1169985-.2350286-.3217317-.414619-.57-.5-.2580222-.0812193-.5374352-.059726-.78.06l-2.65 1.35 1.81 3.57c.727382 1.469994.1394338 3.2516552-1.32 4-.4166017.2177931-.8799045.3310449-1.35.33-.3192132-.0009866-.6363329-.0515908-.94-.15-.7560507-.2493254-1.3819995-.7889364-1.74-1.5l-1.81-3.56-2.65 1.38c-.23814704.1198653-.41856884.3298663-.50118701.5833539-.08261817.2534875-.06059152.5294717.06118701.7666461l3.18 6.26c.0464097.064448.0834451.1351519.11.21l.72 1.43c1.0724645 2.1339123 2.9567069 3.7479478 5.23 4.48l.95.31c.5522847.0856041.9306041.6027153.845 1.155-.0856042.5522847-.6027153.9306041-1.155.845-.1028338.0143697-.2071662.0143697-.31 0l-1-.31c-2.7946153-.9260731-5.0935-2.9470706-6.37-5.6l-.43-.85c-1.97466521.5171135-3.34624186 2.3088128-3.33 4.35v.37c.03762822.2869107-.05087041.5760542-.24263921.7927529-.1917688.2166988-.46800361.339704-.75736079.3372471-1.83404244-.0123769-3.44152071 1.2241448-3.9 3h31.81c-.4875855-2.8846041-2.9844793-4.9970353-5.91-5z"/><path id="Shape" d="m6.21 4.58 3.57-1.81 1.78-.9-.9-1.79-7.14 3.62.91 1.78z"/><path id="Shape" d="m27 18h10c.6493041.2444448 1.3693749.2192423 2-.07.5226233-.350098.9852506-.7823338 1.37-1.28l.08-.1c-1.2605123-.9901445-2.1028658-2.4178623-2.36-4h-.27c-.589249.0938097-1.161839.272323-1.7.53-.5062085.3602497-.8621574.894173-1 1.5-.1147138.4799068-.1147138.9800932 0 1.46h-8.12c-.5522847 0-1 .4477153-1 1s.4477153 1 1 1z"/><path id="Shape" d="m8 17c0-.5522847-.44771525-1-1-1h-6c-.55228475 0-1 .4477153-1 1s.44771525 1 1 1h6c.55228475 0 1-.4477153 1-1z"/><path id="Shape" d="m59 16h-5.09c.1202291-.4792411.1202291-.9807589 0-1.46-.133798-.6102434-.490363-1.1486566-1-1.51-.6022719-.2847903-1.2477691-.4672869-1.91-.54h-.12c-.2383653 1.5792016-1.0676095 3.0089331-2.32 4l.11.23c.3771379.4705829.8259574.8789074 1.33 1.21.6287133.2972133 1.3520457.3225299 2 .07h7c.5522847 0 1-.4477153 1-1s-.4477153-1-1-1z"/><circle id="Oval" cx="9" cy="44" r="3"/><circle id="Oval" cx="24.5" cy="44.5" r="2.5"/><circle id="Oval" cx="18" cy="48" r="1"/></g></g></svg>