<svg height="512" viewBox="0 0 54 60" width="512" xmlns="http://www.w3.org/2000/svg"><g id="Page-1" fill="none" fill-rule="evenodd"><g id="021---Pest-Control" fill="rgb(0,0,0)" fill-rule="nonzero"><path id="Shape" d="m6.75 13h8.25c1.3260824 0 2.597852-.5267842 3.5355339-1.4644661s1.4644661-2.20945145 1.4644661-3.5355339v-3c0-2.76142375-2.2385763-5-5-5h-8.25c-2.76142375 0-5 2.23857625-5 5v3c0 2.7614237 2.23857625 5 5 5zm-1-8c0-.55228475.44771525-1 1-1h8.25c.5522847 0 1 .44771525 1 1v3c0 .55228475-.4477153 1-1 1h-8.25c-.55228475 0-1-.44771525-1-1z"/><path id="Shape" d="m9 15v3h-2c-1.1045695 0-2 .8954305-2 2v3h12v-3c0-1.1045695-.8954305-2-2-2h-2v-3z"/><path id="Shape" d="m22 32h-22v21h22zm-3.44 16.84c.3655338.2456378.5273388.7014949.3984701 1.1226193-.1288686.4211243-.5180704.7083673-.9584701.7073807-.1994427.0004453-.3944627-.0587572-.56-.17l-3.16-2.11c-.8048834.9910046-2.0036798 1.5794382-3.28 1.61-1.27632022-.0305618-2.47511661-.6189954-3.28-1.61l-3.16 2.11c-.16553735.1112428-.36055731.1704453-.56.17-.44039968.0009866-.82960149-.2862564-.95847014-.7073807-.12886866-.4211244.03293638-.8769815.39847014-1.1226193l3.21-2.14c-.23860441-.54378-.40987342-1.1146767-.51-1.7h-2.14c-.55228475 0-1-.4477153-1-1s.44771525-1 1-1h2c.02904802-.5852491.12295611-1.165467.28-1.73l-2.73-1.38c-.44879274-.2700473-.61317193-.8406385-.3768341-1.3080622s.79330693-.6732882 1.2768341-.4719378l2.65 1.33c.27390634-.4669224.61035416-.8942111 1-1.27-.71090993-1.0999989-1.09256907-2.3802919-1.1-3.69 0-.5522847.44771525-1 1-1s1 .4477153 1 1c.00561296.9650024.31722693 1.9033456.89 2.68.3610303-.1034325.7344556-.1572596 1.11-.16.3726211-.0022106.7434491.051728 1.1.16.575105-.7760752.8901171-1.7141114.9-2.68 0-.5522847.4477153-1 1-1s1 .4477153 1 1c-.019337 1.3137043-.4149725 2.5943139-1.14 3.69.3896458.3757889.7260937.8030776 1 1.27l2.65-1.33c.4835272-.2013504 1.0404963.0045141 1.2768341.4719378s.0719586 1.0380149-.3768341 1.3080622l-2.71 1.38c.1638103.5637653.2644285 1.1439967.3 1.73h2c.5522847 0 1 .4477153 1 1s-.4477153 1-1 1h-2.14c-.1001266.5853233-.2713956 1.15622-.51 1.7z"/><path id="Shape" d="m11.84 39.19c-.2634859-.1218092-.5497407-.1865573-.84-.19-.3058286-.0007115-.6074482.0712659-.88.21-.79068954.4354538-1.39257178 1.1477404-1.69 2-.2896258.7284736-.43563988 1.5060835-.43 2.29v.45c.05772365.8730229.31425818 1.7212971.75 2.48.41510799.8881808 1.2731313 1.4868904 2.25 1.57.9586167-.0800856 1.8050232-.6570084 2.23-1.52.4427446-.7569921.7061513-1.6053668.77-2.48 0-.15 0-.3 0-.45.0030702-.7771951-.142898-1.5477714-.43-2.27-.2829806-.8951077-.903519-1.6447755-1.73-2.09z"/><path id="Shape" d="m0 58c0 1.1045695.8954305 2 2 2h18c1.1045695 0 2-.8954305 2-2v-3h-22z"/><path id="Shape" d="m17 25h-12c-2.76142375 0-5 2.2385763-5 5h22c0-2.7614237-2.2385763-5-5-5z"/><path id="Shape" d="m53.42 51.68-3.51-3.5v-21.18h1c.5522847 0 1-.4477153 1-1v-2c0-.5522847-.4477153-1-1-1h-1v-11c0-3.86599325-3.1340068-7-7-7h-6c-3.8659932 0-7 3.13400675-7 7v38c0 1.6568542-1.3431458 3-3 3h-3v4h3c3.8659932 0 7-3.1340068 7-7v-38c0-1.6568542 1.3431458-3 3-3h6c1.6568542 0 3 1.3431458 3 3v11h-1c-.5522847 0-1 .4477153-1 1v2c0 .5522847.4477153 1 1 1h1v22c-.0018688.3529387.0951262.6993493.28 1 .0819557.1515887.1864836.2898352.31.41l4.1 4.09c.7788944.7688434 2.0311056.7688434 2.81 0 .7782203-.7773222.7826879-2.0371781.01-2.82z"/></g></g></svg>