<svg height="512" viewBox="0 0 57 56" width="512" xmlns="http://www.w3.org/2000/svg"><g id="Page-1" fill="none" fill-rule="evenodd"><g id="022---Hose-Pipe" fill="rgb(0,0,0)" fill-rule="nonzero"><path id="Shape" d="m48 54c0 1.1045695-.8954305 2-2 2h-44c-1.1045695 0-2-.8954305-2-2s.8954305-2 2-2h44c1.1045695 0 2 .8954305 2 2zm-4-6c0 1.1045695-.8954305 2-2 2h-36c-1.1045695 0-2-.8954305-2-2s.8954305-2 2-2h36c1.1045695 0 2 .8954305 2 2zm-4-6c0 1.1045695-.8954305 2-2 2h-28c-1.1045695 0-2-.8954305-2-2s.8954305-2 2-2h28c1.1045695 0 2 .8954305 2 2zm-22.38-19.2c-2.4657046 1.3810166-3.6030017 4.3186843-2.71 7 .8323114 2.5296147 3.2071326 4.2288053 5.87 4.2h12c1.1107727-.0613179 2.0800095.7463794 2.22 1.85.041813.555907-.150293 1.1040384-.529993 1.5122158-.3796999.4081775-.912532.6393545-1.470007.6377842h-12.38c-4.5349758.0535577-8.5142603-3.0115669-9.62-7.41-1.25539254-4.3775883.6768484-9.0423331 4.66-11.25l13.17-7.6c.4753732-.2730821 1.0819888-.1125074 1.36.36l1 1.74c.2730821.4753732.1125074 1.0819888-.36 1.36zm16.77-7.37-4-6.93c-.1329611-.22999329-.168941-.50344065-.1-.76.0689079-.25249041.2340574-.46790285.46-.6l.87-.5 5 8.66-.87.5c-.4779792.2713883-1.0853915.1061364-1.36-.37zm4.83-1.63-.87.5-5-8.66.87-.5c.1514328-.08987659.3239138-.13817126.5-.14.3551111.00214346.6824477.19245546.86.5l4 6.93c.1343739.2293087.1719353.5026768.1043886.7597298-.0675468.257053-.2346444.4766422-.4643886.6102702zm1.53-3.35-.26-.45-2.61-4.52 12.19-5.14c.4630277-.19346999.9977375-.0138075 1.25.42l.24.41c.2543038.43677309.1427316.99463399-.26 1.3z"/><path id="Shape" d="m57 20c.0130925 1.4507703-.6046154 2.8356924-1.6927821 3.7952751-1.0881668.9595826-2.5394811 1.3991951-3.9772179 1.2047249-2.7194726-.4411738-4.620353-2.9303174-4.33-5.67.29-3.84 2.94-7.58 4.25-9 .1890717-.2019503.4533557-.3165529.73-.3165529s.5409283.1146026.73.3165529c1.41 1.5 4.29 5.55 4.29 9.67z"/><path id="Shape" d="m57 40c.0130925 1.4507703-.6046154 2.8356924-1.6927821 3.7952751-1.0881668.9595826-2.5394811 1.3991951-3.9772179 1.2047249-2.7194726-.4411738-4.620353-2.9303174-4.33-5.67.29-3.84 2.94-7.58 4.25-9 .1890717-.2019503.4533557-.3165529.73-.3165529s.5409283.1146026.73.3165529c1.41 1.5 4.29 5.55 4.29 9.67z"/></g></g></svg>