<svg height="512" viewBox="0 0 60 58" width="512" xmlns="http://www.w3.org/2000/svg"><g id="Page-1" fill="none" fill-rule="evenodd"><g id="023---Garden-Path" fill="rgb(0,0,0)" fill-rule="nonzero"><path id="Shape" d="m58.11 24.7c-2.2722062-.2724253-4.5261894-.6798119-6.75-1.22 1.1444596-1.5916955 1.7219276-3.5212836 1.64-5.48 0-3.51-3.14-12.73-5.21-16.89-.338327-.67882903-1.0315318-1.10786772-1.79-1.10786772s-1.451673.42903869-1.79 1.10786772c-2.07 4.16-5.21 13.38-5.21 16.89-.0072453.9374639.10704 1.8719137.34 2.78-1.52-.25-3-.43-4.48-.55.09134-.4036749.1382854-.8161239.14-1.23 0-3.3137085-2.6862915-6-6-6s-6 2.6862915-6 6c.0004079.4172535.0473649.8331592.14 1.24-1.55.13-3.05.31-4.49.55.2413471-.9100784.3590711-1.8485071.35-2.79 0-3.51-3.14-12.73-5.21-16.89-.338327-.67882903-1.0315318-1.10786772-1.79-1.10786772s-1.451673.42903869-1.79 1.10786772c-.91282214 1.91802162-1.72068121 3.88425714-2.42 5.89h.21c1.63441564-.00287908 3.1263833.92960072 3.84 2.4 2.1500412 4.6658985 3.876969 9.5153526 5.16 14.49.3179393-.354127.5993626-.7394089.84-1.15.1338576.0668882.2804659.1043926.43.11h.17c3.1593327-.5344718 6.3559302-.8186881 9.56-.85-3.94 2-8 4.88-8 8 0 6 17 9 12 12-4.77 2.86-19.56 3.9-27 14.42-.21994282.3086489-.24650005.7151121-.06858825 1.0497558.1779118.3346436.52971531.5399531.90858825.5302442h23.4c.4874486-.0034573.9568539-.1848185 1.32-.51 3.1808631-2.6110629 6.6908779-4.7930549 10.44-6.49 23-11 1-17-7-20-5.35-2-2.65-6.25-.28-8.84.28 0 .57 0 .84.06 1.65.13 3.27.33 5 .62.2021748.0234588.4068468-.0112313.59-.1.7094171 1.2460077 1.8196421 2.2152518 3.15 2.75-.0152392.1128211-.0152392.2271789 0 .34.1333033 1.6075105-.240926 3.2163468-1.07 4.6-.1488534.2200282-.2040417.4902421-.1533875.7510177.0506543.2607756.2029878.4906795.4233875.6389823.1473822.1039968.3201495.166193.5.18.3326261.0005011.6437296-.1644212.83-.44 1.0274283-1.665574 1.5195386-3.6060944 1.41-5.56h.75.75c-.1157626 1.9639695.3765835 3.915895 1.41 5.59.196974.2701728.5159411.4240275.85.41.1994427.0004453.3944627-.0587572.56-.17.2203997-.1483028.3727332-.3782067.4233875-.6389823.0506542-.2607756-.0045341-.5309895-.1533875-.7510177-.829074-1.3836532-1.2033033-2.9924895-1.07-4.6.0152392-.1128211.0152392-.2271789 0-.34.3779355-.1538782.7397012-.3448102 1.08-.57.1271771.1867417.3199387.3188191.54.37 2.482328.6335787 5.0047892 1.0979789 7.55 1.39h.07c.5522847.0303757 1.0246243-.3927153 1.055-.945s-.3927153-1.0246243-.945-1.055zm-34.11 6.3c-.5522847 0-1-.4477153-1-1s.4477153-1 1-1 1 .4477153 1 1-.4477153 1-1 1zm3 24c-.5522847 0-1-.4477153-1-1s.4477153-1 1-1 1 .4477153 1 1-.4477153 1-1 1zm0-6c-.5522847 0-1-.4477153-1-1s.4477153-1 1-1 1 .4477153 1 1-.4477153 1-1 1zm19-10c.5522847 0 1 .4477153 1 1s-.4477153 1-1 1-1-.4477153-1-1 .4477153-1 1-1zm-3 2c0 .5522847-.4477153 1-1 1s-1-.4477153-1-1 .4477153-1 1-1 1 .4477153 1 1zm-2-4c.5522847 0 1 .4477153 1 1s-.4477153 1-1 1-1-.4477153-1-1 .4477153-1 1-1zm5-14c-2.54 0-4-1.82-4-5 0-.5522847.4477153-1 1-1s1 .4477153 1 1c0 3 1.45 3 2 3 .5522847 0 1 .4477153 1 1s-.4477153 1-1 1z"/><path id="Shape" d="m5.83 44.56c1.03822612-1.6662828 1.57299634-3.5970117 1.54-5.56h.63.63c-.0388138 1.9731472.49618114 3.9151094 1.54 5.59.1929419.2642097.5029227.4173327.83.41.1994427.0004453.3944627-.0587572.56-.17.2203997-.1483028.3727332-.3782067.4233875-.6389823.0506542-.2607756-.0045341-.5309895-.1533875-.7510177-.8416271-1.3754679-1.2590291-2.9685523-1.2-4.58-.0069435-.0882567-.0237139-.175463-.05-.26 3.15-1 5.41-4 5.41-8.83 0-4.05-3.58-14.69-5.95-19.49-.38181281-.78432579-1.17767669-1.28205211-2.05-1.28205211s-1.66818719.49772632-2.05 1.28205211c-2.36 4.8-5.94 15.44-5.94 19.49 0 4.81 2.26 7.8 5.41 8.83-.0094962.0864065-.0094962.1735935 0 .26.05902909 1.6114477-.35837293 3.2045321-1.2 4.58-.14885336.2200282-.20404171.4902421-.15338746.7510177s.20298778.4906795.42338746.6389823c.15416159.1039007.33423434.1627706.52.17.33262608.0005011.64372956-.1644212.83-.44zm-2.83-14.79c0-.5522847.44771525-1 1-1s1 .4477153 1 1c0 2.81 1 4.23 3 4.23.55228475 0 1 .4477153 1 1s-.44771525 1-1 1c-3.13 0-5-2.33-5-6.23z"/><path id="Shape" d="m29 10c.5522847 0 1-.44771525 1-1v-2c0-.55228475-.4477153-1-1-1s-1 .44771525-1 1v2c0 .55228475.4477153 1 1 1z"/><path id="Shape" d="m23.13 10.84c.1786328.3108211.5095174.5027321.8680127.5034421.3584954.00071.6901375-.1898889.87-.5.1798626-.3101111.1806201-.692621.0019873-1.0034421l-1-1.73c-.2761424-.48048773-.8895123-.64614237-1.37-.37s-.6461424.88951227-.37 1.37z"/><path id="Shape" d="m33.5 11.21c.2305237.133545.5048063.1695837.7620037.1001217.2571973-.0694621.4760451-.238682.6079963-.4701217l1-1.73c.1786328-.31082106.1778752-.69333103-.0019873-1.0034421s-.5115047-.50070999-.87-.5-.6893799.19262104-.8680127.5034421l-1 1.73c-.133545.2305237-.1695837.5048063-.1001217.7620037.0694621.2571973.238682.4760451.4701217.6079963z"/></g></g></svg>