<svg height="512" viewBox="0 0 44 56" width="512" xmlns="http://www.w3.org/2000/svg"><g id="Page-1" fill="none" fill-rule="evenodd"><g id="024---Trowel-and-Fork" fill="rgb(0,0,0)" fill-rule="nonzero" transform="translate(0 -1)"><path id="Shape" d="m1.46 24.72c-.74933588-.812051-1.12938223-1.8978977-1.05-3l1.44-19.8c.04179703-.52082193.47750629-.92167446 1-.92h.15c.55228475 0 1 .44771525 1 1v14c0 1.6568542 1.34314575 3 3 3s3-1.3431458 3-3v-14c0-.55228475.4477153-1 1-1s1 .44771525 1 1v14c0 1.6568542 1.3431458 3 3 3s3-1.3431458 3-3v-14c0-.55228475.4477153-1 1-1h.15c.5224937-.00167446.958203.39917807 1 .92l1.45 19.77c.0865596 1.1134732-.2963359 2.212429-1.0560673 3.0310396s-1.8271051 1.2823198-2.9439327 1.2789604h-13.2c-1.1156186.001993-2.18137992-.462012-2.94-1.28zm12.8 31.8c-1.0273993.4373569-2.1501429.6026688-3.26.48-1.0991173.1206111-2.21083441-.0411558-3.23-.47-1.1-.57-1.63-1.71-1.72-3.74 1.64301178.1862765 3.29711495.2564506 4.95.21h1.18c1.2765797.0147156 2.552726-.055439 3.82-.21-.11 2.03-.64 3.21-1.74 3.73zm1.09-9.8c.25 1.39.48 2.71.59 4-1.6368252.2222238-3.2885475.3158437-4.94.28-1.64682013.052469-3.29521802-.024434-4.93-.23.11-1.33.34-2.66.59-4 .09-.5.18-1 .26-1.51.50169643-2.7791765.76598323-5.5960055.79-8.42-.00785607-.3611468-.03455907-.7216373-.08-1.08-.13027524-.6637363-.10287311-1.3487896.08-2 .23516999-.4923384.74537346-.7929234 1.29-.76h4c.5283862-.0319156 1.0260402.250219 1.27.72.1828731.6512104.2102752 1.3362637.08 2-.0458079.3616745-.0725117.725513-.08 1.09.0244869 2.8206576.2887722 5.6341254.79 8.41.11.49.2 1 .29 1.5zm-2.35-15.72h-4v-3h4z"/><path id="Shape" d="m29.74 1.48c.8307727-.37435401 1.7407019-.53917138 2.65-.48h.61c1.0991173-.12061112 2.2108344.04115577 3.23.47 1.1.57 1.63 1.71 1.72 3.74-1.6430118-.1862765-3.297115-.25645057-4.95-.21-1.669534-.04807485-3.3403769.02210056-5 .21.11-2.02.64-3.16 1.74-3.73zm-1.09 9.8c-.25-1.39-.48-2.71-.59-4 1.6368252-.22222385 3.2885475-.31584373 4.94-.28 1.6468201-.05246899 3.295218.02443395 4.93.23-.11 1.33-.34 2.66-.59 4-.09.5-.18 1-.26 1.51-.5016964 2.7791765-.7659832 5.5960055-.79 8.42.0078561.3611468.0345591.7216373.08 1.08.1302752.6637363.1028731 1.3487896-.08 2-.23517.4923384-.7453735.7929234-1.29.76h-4c-.5283862.0319156-1.0260402-.250219-1.27-.72-.1828731-.6512104-.2102752-1.3362637-.08-2 .0458079-.3616745.0725117-.725513.08-1.09-.0244869-2.8206576-.2887722-5.6341254-.79-8.41-.11-.49-.2-1-.29-1.5zm2.35 15.72h4v3h-4zm2 30c-.66-.39-1.27-.78-1.86-1.19l1.78-16.72c0-.11.17-.13.19 0l1.77 16.7c-.6.42-1.22.82-1.88 1.21zm10.54-18c-.66 7.25-2.61 11.81-6.81 15.38l-1.64-15.47c-.0759188-1.0955753-.9867974-1.9455182-2.085-1.9455182s-2.0090812.8499429-2.085 1.9455182l-1.65 15.5c-4.2-3.56-6.15-8.13-6.81-15.38-.1823624-1.2832284-.1485617-2.5879354.1-3.86.3860841-1.8216807 1.9781665-3.1359779 3.84-3.17h13.2c1.8558048.0319119 3.4458575 1.336252 3.84 3.15.2474406 1.2688164.2812388 2.570049.1 3.85z"/></g></g></svg>