<svg height="512" viewBox="0 0 45 57" width="512" xmlns="http://www.w3.org/2000/svg"><g id="Page-1" fill="none" fill-rule="evenodd"><g id="025---Flower" fill="rgb(0,0,0)" fill-rule="nonzero"><path id="Shape" d="m41 53c-.2207467.0325216-.4460288-.0097188-.64-.12-.2488752-.1439477-.423754-.3880493-.48-.67-.3730149-1.8520006-1.9909084-3.1905156-3.88-3.21-.6030066-.0019231-1.1983684.1349417-1.74.4-.274806.1327594-.595194.1327594-.87 0-.2733113-.1260246-.475327-.3684434-.55-.66-.4618571-1.7889088-1.8725674-3.1773292-3.6686046-3.6106389-1.7960372-.4333096-3.6846452.1591214-4.9113954 1.5406389-.226337.2592641-.5700901.3839218-.91.33-.3457334-.0545664-.6377745-.2859237-.77-.61-.9033988-2.2134189-3.1352945-3.5877645-5.5184408-3.3981181-2.3831464.1896464-4.3695929 1.8996798-4.9115592 4.2281181-.110581.5273684-.6191259.8722945-1.15.78-2.209139 0-4 1.790861-4 4 .00410787.2850052.03085875.5692332.08.85.05122152.2737213-.0140129.5564038-.18.78-.16646472.2194895-.41610026.3605878-.69.39-1.07639608.1301685-1.94753869.936782-2.16 2h40.82c-.4480203-1.7729381-2.0413344-3.0162995-3.87-3.02zm-29-1c-.5522847 0-1-.4477153-1-1s.4477153-1 1-1 1 .4477153 1 1-.4477153 1-1 1zm7 2c-.5522847 0-1-.4477153-1-1s.4477153-1 1-1 1 .4477153 1 1-.4477153 1-1 1zm1.19-5.53c-.2465323.102074-.5236343.1013884-.7696585-.0019042-.2460243-.1032926-.4405647-.3006248-.5403415-.5480958-.2463455-.6000247-.8525577-.9717494-1.4990522-.9192075-.6464945.052542-1.1847258.517278-1.3309478 1.1492075-.1088118.4611676-.5263385.7826631-1 .77-.0763126.0104205-.1536874.0104205-.23 0-.2586729-.0595235-.4830686-.2194458-.6237478-.4445326-.1406793-.2250868-.186099-.4968691-.1262522-.7554674.3467552-1.4790693 1.6104619-2.5639271 3.1249833-2.6827131 1.5145213-.118786 2.9319092.7557899 3.5050167 2.1627131.1916664.4915866-.0315764 1.0475047-.51 1.27zm2.81 2.53c-.5522847 0-1-.4477153-1-1s.4477153-1 1-1 1 .4477153 1 1-.4477153 1-1 1zm7.18-.53c-.0830052.0104577-.1669948.0104577-.25 0-.4677664.0148006-.883234-.2968001-1-.75-.1211789-.4162027-.4967121-.7069381-.93-.72-.2767155-.0111638-.5428586.107122-.72.32-.2357953.2697355-.5975813.3931861-.9490768.3238492-.3514954-.069337-.6392998-.3209275-.755-.66-.1157001-.3390725-.0417185-.7141137.1940768-.9838492.5630056-.6411361 1.3767743-1.0060548 2.23-1 1.3662306.002158 2.5584436.9271508 2.9 2.25.0667762.2572811.0283746.5305617-.1067221.7594755-.1350966.2289138-.3557712.3946234-.6132779.4605245zm5.82 2.53c-.5522847 0-1-.4477153-1-1s.4477153-1 1-1 1 .4477153 1 1-.4477153 1-1 1zm-14-33.16c-.2896262.7394404-.6235652 1.4607487-1 2.16v19.87c.7490931.3963278 1.4253873.9170743 2 1.54v-21.41c-.3764348-.6992513-.7103738-1.4205596-1-2.16zm-4.95-2.93c-.8940322-.8889566-1.5270103-2.0061803-1.83-3.23-1.645501.5737871-3.1784296 1.429926-4.53 2.53-1.4 1.39-.35 3.9 1.41 5.65s4.27 2.81 5.66 1.42c1.0978892-1.3513914 1.9507589-2.8845262 2.52-4.53-1.2252977-.304855-2.3428799-.9414962-3.23-1.84zm.71-16.26c-1.4-1.39-3.9-.34-5.66 1.41s-2.81 4.27-1.41 5.66c1.3474448 1.09824734 2.8773689 1.95121386 4.52 2.52.3121327-1.22528217.9475979-2.34425353 1.84-3.24.8871201-.89850378 2.0047023-1.53514502 3.23-1.84-.5713524-1.63843375-1.4241342-3.16464243-2.52-4.51zm14.14 1.41c-1.76-1.75-4.26-2.8-5.66-1.41-1.0978892 1.35139137-1.9507589 2.88452621-2.52 4.53 2.4890912.63368704 4.4312285 2.57966257 5.06 5.07 1.645501-.57378708 3.1784296-1.42992603 4.53-2.53 1.4-1.39.35-3.9-1.41-5.66zm1.41 14.15c-1.3485524-1.0990665-2.878019-1.9551618-4.52-2.53-.2967948 1.2174798-.9149735 2.3329644-1.79 3.23-.8911593.8932288-2.0071798 1.5289804-3.23 1.84.5692411 1.6454738 1.4221108 3.1786086 2.52 4.53 1.39 1.39 3.9.34 5.66-1.42s2.76-4.26 1.36-5.65zm-7.77-7.78c-.8591819-.84716392-1.9957309-1.35505922-3.2-1.43h-.66c-2.4992738.15373653-4.4994281 2.13252166-4.68 4.63-.014842.2164125-.014842.4335875 0 .65.1360242 2.5254728 2.1364739 4.5516795 4.66 4.72.2195461.0199862.4404539.0199862.66 0 2.524157-.1575948 4.5331706-2.1751939 4.68-4.7.014842-.2164125.014842-.4335875 0-.65-.0782823-1.2153202-.5974295-2.36028874-1.46-3.22zm-3.54 2.57c-.5522847 0-1 .4477153-1 1s-.4477153 1-1 1-1-.4477153-1-1c0-1.6568542 1.3431458-3 3-3 .5522847 0 1 .44771525 1 1 0 .5522847-.4477153 1-1 1zm-3.71 23.16c-1.47-1.89-4-5.17-9.13-5.17-3.13243844.1339451-6.18741524 1.0151225-8.91 2.57-.07176976.0279884-.11067113.1057912-.09.18-.00076914.0646605.04610404.1200561.11.13 1.24346972.2344167 2.43115172.7027028 3.5 1.38.72750459.5085061 1.41913963 1.0664918 2.07 1.67.64612985.6141381 1.34554619 1.1696553 2.09 1.66 2.1966574 1.3784899 4.873891 1.7635465 7.37 1.06 1.4940424-.4518576 2.7486649-1.4764061 3.49-2.85zm25.46-2.6c-11.43-5.91-15.89-.17-18 2.6l-.5.63c.7413351 1.3735939 1.9959576 2.3981424 3.49 2.85 2.496109.7035465 5.1733426.3184899 7.37-1.06.7426085-.4928878 1.4418107-1.048235 2.09-1.66.6508604-.6035082 1.3424954-1.1614939 2.07-1.67 1.0609393-.671482 2.2376759-1.1394637 3.47-1.38.06 0 .13 0 .14-.13.0087203-.0413666-.0004203-.0844924-.0251723-.1187644-.024752-.0342721-.0628171-.056508-.1048277-.0612356z"/></g></g></svg>