<svg height="512" viewBox="0 0 53 56" width="512" xmlns="http://www.w3.org/2000/svg"><g id="Page-1" fill="none" fill-rule="evenodd"><g id="026---Tree" fill="rgb(0,0,0)" fill-rule="nonzero" transform="translate(-1)"><path id="Shape" d="m34.48 29.6-3.24 1.85c-.3334821.1911898-.5278545.5566099-.5.94l.17 2.14c.0325614.3741615.272027.6985289.6200083.8398304.3479812.1413014.7457946.0757079 1.0299917-.1698304l4.07-3.48c-.8078063-.6078514-1.5308582-1.3208143-2.15-2.12zm9-16.6c-.8726853-.0024385-1.7413156.1187657-2.58.36-.4388074 4.4178984-2.9470683 8.3658121-6.76 10.64.2140419 1.3209901.7047571 2.5818556 1.44 3.7.8119123 1.2410916 1.9091616 2.2697629 3.2 3 3.461104 2.0243955 7.8205756 1.6577597 10.894947-.9162758 3.0743715-2.5740354 4.2016099-6.8011795 2.8171311-10.5642417-1.3844787-3.7630622-4.982542-6.2517073-8.9920781-6.2194825zm-16.48-13c-6.5963003-.00014659-11.9560247 5.32384624-12 11.92 4.2381321 1.8107076 6.9908707 5.9712754 7 10.58v.39c.9714242.4559696 2.0011437.7756538 3.06.95 1.2982232.2100746 2.6217768.2100746 3.92 0 1.2684008-.2061249 2.494572-.6182266 3.63-1.22 3.7445181-1.9731449 6.1726302-5.7730073 6.39-10 0-.22 0-.39 0-.56.0159651-3.19298096-1.2412655-6.26066464-3.4934348-8.52409475-2.2521692-2.26343012-5.3135443-3.53594516-8.5065652-3.53590525zm0 4c-3.6705991.00055576-6.8698798 2.4989631-7.76 6.06-.1128155.4571833-.5293028.7737136-1 .76h-.25c-.2575067-.0659011-.4781813-.2316107-.6132779-.4605245-.1350967-.2289138-.1734983-.50219439-.1067221-.7594755 1.105605-4.47209633 5.1232763-7.61025689 9.73-7.6.5522847 0 1 .44771525 1 1s-.4477153 1-1 1zm-16.5 9c-4.52939503-.0019837-8.43026248 3.1939518-9.31934395 7.6352306-.88908146 4.4412788 1.48092202 8.8925544 5.66204259 10.6342932 4.18112056 1.7417388 9.01037506.2894743 11.53730136-3.4695238 1.0603598-1.563717 1.6249016-3.4106748 1.62-5.3-.0055117-5.2444204-4.2555796-9.4944883-9.5-9.5zm0 4c-3.03528349.0055037-5.4944963 2.4647165-5.5 5.5 0 .5522847-.44771525 1-1 1s-1-.4477153-1-1c0-4.1421356 3.35786438-7.5 7.5-7.5.5522847 0 1 .4477153 1 1s-.4477153 1-1 1zm9 12.6c-.6313791.7921018-1.3605108 1.5010731-2.17 2.11l4.08 3.49c.2855846.2462312.6853958.3108803 1.0340284.1672014.3486327-.1436789.5868005-.4712527.6159716-.8472014l.17-2.13c.0526432-.4040714-.1451569-.7996717-.5-1zm9.12 1.76c-.0048892-.0264426-.0048892-.0535574 0-.08l-.41-5.28c-.41 0-.81 0-1.21 0s-.8 0-1.21-.05l-.43 5.33c.0048892.0264426.0048892.0535574 0 .08l-.95 11.64c-.0223758.2787824.0730176.5541957.2630338.7594132.1900161.2052174.4572887.3214833.7369662.3205868h1.55 1.55c.2796775.0008965.5469501-.1153694.7369662-.3205868.1900162-.2052175.2854096-.4806308.2630338-.7594132zm-1.62 14.64c-10.5 0-19.73 3.46-23.36 8.41-.22353906.3058451-.25506192.7117478-.08142287 1.0484382.17363906.3366904.52262485.546356.90142287.5415618h45.08c.378798.0047942.7277838-.2048714.9014229-.5415618.173639-.3366904.1421162-.7425931-.0814229-1.0484382-3.63-4.95-12.86-8.41-23.36-8.41zm-13 7c-.5522847 0-1-.4477153-1-1s.4477153-1 1-1 1 .4477153 1 1-.4477153 1-1 1zm13 1c-.5522847 0-1-.4477153-1-1s.4477153-1 1-1 1 .4477153 1 1-.4477153 1-1 1zm5-4c-.5522847 0-1-.4477153-1-1s.4477153-1 1-1 1 .4477153 1 1-.4477153 1-1 1zm4 2c-.5522847 0-1-.4477153-1-1s.4477153-1 1-1 1 .4477153 1 1-.4477153 1-1 1z"/></g></g></svg>