<svg height="512" viewBox="0 0 54 56" width="512" xmlns="http://www.w3.org/2000/svg"><g id="Page-1" fill="none" fill-rule="evenodd"><g id="027---Gardening-Hat" fill="rgb(0,0,0)" fill-rule="nonzero"><path id="Shape" d="m44.47 18.78c-.1047542-.4651526-.5233401-.7916496-1-.78h-33c-.55228475 0-1 .4477153-1 1s.44771525 1 1 1h33c.5522847 0 1-.4477153 1-1 .0098821-.0730004.0098821-.1469996 0-.22zm-.91-4-2.85-12.56c-.1980076-.85445317-.7771356-1.57080316-1.5711458-1.94342221-.7940103-.37261906-1.7150938-.36029955-2.4988542.03342221-2.16 1.06-5.77 1.69-9.64 1.69s-7.48-.63-9.64-1.69c-.7837604-.39372176-1.7048439-.40604127-2.4988542-.03342221-.7940102.37261905-1.3731382 1.08896904-1.5711458 1.94342221l-2.85 12.56c-.0679051.3006637.0066399.6158421.2020396.8542298.1953998.2383877.4898169.373343.7979604.3657702h31.15c.302906-.0016649.5887318-.1405388.7772466-.37764.1885149-.2371011.2593983-.5468718.1927534-.84236zm-25.56-9.54-1 4c-.1128155.45718328-.5293028.7737136-1 .76h-.24c-.2693563-.05649082-.5035239-.22149568-.6473416-.45614549-.1438176-.23464981-.1845704-.51819926-.1126584-.78385451l1-4c.1325483-.55228475.6877153-.89254834 1.24-.76s.8925483.68771525.76 1.24zm4 7.92c-.0792284.4890578-.5046072.846376-1 .84h-.16c-.2667921-.039191-.5064494-.1844672-.6646048-.4028724-.1581555-.2184051-.2214032-.4914262-.1753952-.7571276l.68-4.06c.0589488-.35726561.3040187-.65594382.6428942-.78352545s.7200733-.06468398 1 .16500001c.2799267.22968398.4160546.59125984.3571058.94852544zm6-3.16c0 .5522847-.4477153 1-1 1s-1-.4477153-1-1v-4c0-.55228475.4477153-1 1-1s1 .44771525 1 1zm5.16 4h-.16c-.4953928.006376-.9207716-.3509422-1-.84l-.67-4.05c-.0589488-.35726559.0771791-.71884143.3571058-.9485254.2799267-.22968398.6611245-.29258162 1-.165.3388755.12758161.5839454.42625981.6428942.7835254l.67 4.06c.046008.2657014-.0172397.5387225-.1753952.7571276-.1581554.2184052-.3978127.3636814-.6646048.4028724zm5.08-4h-.24c-.4706972.0137136-.8871845-.30281672-1-.76l-1-4c-.1325483-.55228475.2077153-1.10745166.76-1.24s1.1074517.20771525 1.24.76l1 4c.071912.26565525.0311592.5492047-.1126584.78385451-.1438177.23464981-.3779853.39965467-.6473416.45614549z"/><path id="Shape" d="m53.42 30.32-7.56-8c-.1878088-.1970153-.4478124-.3089612-.72-.31h-36.28c-.27218762.0010388-.53219116.1129847-.72.31l-7.59 8.04c-.24431691.2927696-.30086768.6990024-.14580197 1.0473692s.49475438.5782246.87580197.5926308h6.72 38 6.69c.3970394-.0012734.755718-.2373191.9139495-.6014684.1582315-.3641492.0860407-.7874179-.1839495-1.0785316zm-41.28-4.78-2.6 4c-.18359551.2861601-.50000791.4594336-.84.46-.19161156-.0004966-.37904639-.0560328-.54-.16-.46323277-.2987099-.59741164-.9159327-.3-1.38l2.6-4c.1832838-.3213046.5289644-.5151878.8987018-.5040582.3697373.0111295.7031304.2254536.8667566.5572006.1636261.331747.130755.7267221-.0854584 1.0268576zm8-.23-1.3 4c-.1340978.411264-.5174261.6896813-.95.69-.1051686-.0020267-.2095273-.0188587-.31-.05-.5243985-.1715258-.8107915-.7353618-.64-1.26l1.3-4c.1858221-.5045975.737413-.7719067 1.24861-.605095.5111969.1668116.7989576.7080145.65139 1.225095zm7.86 3.69c0 .5522847-.4477153 1-1 1s-1-.4477153-1-1v-4c0-.5522847.4477153-1 1-1s1 .4477153 1 1zm8.46.95c-.1004727.0311413-.2048314.0479733-.31.05-.4325739-.0003187-.8159022-.278736-.95-.69l-1.3-4c-.1265461-.3436342-.0551443-.7289538.1861262-1.0044296s.6138167-.3970435.9711327-.3168959c.3573161.0801476.6422466.3491902.7427411.7013255l1.3 4c.0978932.2581955.0846667.5453776-.0365446.793482-.1212113.2481045-.3396177.4350459-.6034554.516518zm9.38-.11c-.1609536.1039672-.3483884.1595034-.54.16-.3399921-.0005664-.6564045-.1738399-.84-.46l-2.6-4c-.2634624-.4618613-.1194165-1.0491348.3278566-1.3366675s1.041346-.1747642 1.3521434.2566675l2.6 4c.2974116.4640673.1632328 1.0812901-.3 1.38z"/><path id="Shape" d="m46 34c0 8.07-6.5 15.06-15.25 16.64-.5819295-1.5677644-2.077718-2.6080589-3.75-2.6080589s-3.1680705 1.0402945-3.75 2.6080589c-8.74-1.57-15.25-8.55-15.25-16.64h-2c0 9.11 7.29 17 17.07 18.65.3579657 1.8882014 2.0081665 3.2549497 3.93 3.2549497s3.5720343-1.3667483 3.93-3.2549497c9.79-1.65 17.07-9.56 17.07-18.65zm-19 20c-1.1045695 0-2-.8954305-2-2s.8954305-2 2-2 2 .8954305 2 2-.8954305 2-2 2z"/></g></g></svg>