<svg height="512" viewBox="0 0 46 57" width="512" xmlns="http://www.w3.org/2000/svg"><g id="Page-1" fill="none" fill-rule="evenodd"><g id="028---Welly" fill="rgb(0,0,0)" fill-rule="nonzero"><path id="Shape" d="m42.93 45.8c-2-2.14-5.33-3.09-9.87-2.8-3.78.24-6.77-.7-8.7-2.69h-.36c-4.2 0-7.17-1.26-8.83-3.76-3.39-5.07-1.51-14.48-.55-18.3.3424868-1.3264546 1.5400463-2.2524026 2.91-2.25h6.41c.4796928.0106736.8993583-.3208621 1-.79.13-.62.25-1.23.37-1.84.21-1 .43-2.09.66-3.15.0666449-.29548821-.0042385-.60525886-.1927534-.84236004-.1885148-.23710118-.4743406-.37597502-.7772466-.37763996h-21.86c-.27594711-.00049718-.53983452.11305544-.72919537.31377795-.18936086.20072251-.28736193.47077167-.27080463.74622205.15 2.09.34 4.37.54 6.76.42 5 .85 10.2 1 14.34.11960546 2.8179965.05279312 5.6408177-.2 8.45-.0283527.28207.06434919.5629188.2550461.7726854.19069692.2097666.46146612.328736.7449539.3273146 2.85641228-.2195997 5.6963675.5968875 8 2.3 2.0480576 1.7991443 3.2845405 4.3478131 3.43 7.07.046703.5168638.4810348.9121057 1 .91h2.09c8.2440708.0672168 16.4831447-.4272612 24.66-1.48.2987928-.0442372.5615814-.2211572.7149812-.4813544.1533999-.2601971.1809727-.575789.0750188-.8586456-.357711-.8761805-.8728775-1.6794335-1.52-2.37zm-37.93-24.8c0-.5522847.44771525-1 1-1s1 .4477153 1 1-.44771525 1-1 1-1-.4477153-1-1zm2.6 17.1c-.03177983.5287239-.47032275.9409542-1 .94h-.07c-.54057045-.0374435-.95296987-.4986214-.93-1.04.2213952-4.3083389.11776839-8.627237-.31-12.92-.02208761-.2654081.06260858-.5286626.23531176-.7314011s.41914426-.3282104.68468824-.3485989c.54927473-.0461623 1.03232738.3608543 1.08.91.42715729 4.3830849.53077114 8.7916871.31 13.19zm3.59 6.46c-2.29-1.89-5.48-2-7.37-1.81-.44715792.0424349-.81115895.3778066-.89.82-.08.48-.16 1-.25 1.42-.21 1.13-.42 2.3-.57 3.44 0 .26-.08.61-.13 1-.03956152.2734577.03578434.5510972.20815934.7670395.17237501.2159423.42641495.35094.70184066.3729605 2.19.15 5.38.3 9.94.36.2933759.0033223.5734099-.1223599.7659293-.3437572.1925193-.2213972.2780987-.5161705.2340707-.8062428-.1826349-2.01285-1.126944-3.8800066-2.64-5.22zm11.28-19c.38-2.08.92-4.11 1.39-5.82.05-.17.09-.33.13-.5.0746726-.3017945.0047321-.6211524-.1892437-.8641119-.1939757-.2429595-.4899187-.38188-.8007563-.3758881h-5.47c-.4648688-.0159235-.8793359.2907821-1 .74-.7 2.78-2.75 12.17.27 16.7 1.0038681 1.3778961 2.515275 2.2991346 4.2 2.56.3530348.0939675.729216-.0120594.9812174-.2765567.2520013-.2644973.3397125-.6453657.2287826-.9934433-1.16-3.66-.37-8 .2-11zm4.53-25.56h-26c-.55228475 0-1 .44771525-1 1v5c0 .55228475.44771525 1 1 1h26c.5522847 0 1-.44771525 1-1v-5c0-.55228475-.4477153-1-1-1zm-25.42 52.49c-.05.44-.11.88-.16 1.3-.08292088.5670655.08912664 1.1417774.47 1.57.37500093.432679.9174623.6838859 1.49.69h7.65c.5522847 0 1-.4477153 1-1v-1.05c.0091071-.3423047.0767509-.6805237.2-1-5.17-.14-8.52-.33-10.65-.51zm43.65 0c.0028716-.2913558-.1214736-.5694741-.3405136-.7616145-.21904-.1921403-.510988-.2791914-.7994864-.2383855-7.7196856 1.0010522-15.4956805 1.505423-23.28 1.51.1232519.3191102.1876263.6579229.19 1v1.08c0 .5522847.4477153 1 1 1h.37c7.6348126.1275231 15.2631218-.512357 22.77-1.91.0632914-.5610664.0933438-1.125385.09-1.69z"/></g></g></svg>