<svg height="512" viewBox="0 0 56 56" width="512" xmlns="http://www.w3.org/2000/svg"><g id="Page-1" fill="none" fill-rule="evenodd"><g id="029---Gardening-Gloves" fill="rgb(0,0,0)" fill-rule="nonzero"><path id="Shape" d="m55.41 21.59c-.348516-.3521353-.8153286-.5623791-1.31-.59-.5648706.0025755-1.1051218.2315385-1.4998233.6356377-.3947016.4040992-.6108911.9495874-.6001767 1.5143623v8.85c.0056372.4986434-.3569619.9252306-.85 1-7 .86-7.15 6.76-7.15 7 0 .5522847-.4477153 1-1 1s-1-.4477153-1-1c.1851903-4.4944583 3.5477123-8.2184513 8-8.86v-8.14c.0085738-1.4204442.7698219-2.7297908 2-3.44v-11.56c.0013341-1.06666698-.8346663-1.94666744-1.9-2-.5648706.00257552-1.1051218.23153848-1.4998233.63563767-.3947016.40409919-.6108911.94958746-.6001767 1.51436233v9c0 .5522847-.4477153 1-1 1s-1-.4477153-1-1v-15.15c.0013341-1.06666698-.8346663-1.94666744-1.9-2-.5648706.00257552-1.1051218.23153848-1.4998233.63563767-.3947016.40409919-.6108911.94958746-.6001767 1.51436233v15.91c0 .5522847-.4477153 1-1 1s-1-.4477153-1-1v-11.06c0-1.1045695-.8954305-2-2-2-.8383911.00455317-1.5849552.53153957-1.87 1.32 1.1775631.60597595 1.9788636 1.75550512 2.14 3.07.0651528.6802771-.0343125 1.3662447-.29 2l-7.89 20.12c-.1243897.3886726.0485658.8105152.41 1 .331947.184895.7477992.1142001 1-.17l5-5.55c.70703-.7920569 1.6999487-1.2705286 2.76-1.33 1.0595922-.0572319 2.0985044.3089096 2.8880799 1.0178396.7895754.70893 1.2651021 1.702546 1.3219201 2.7621604.0653065 1.0611486-.2945182 2.1046405-1 2.9l-10 11.15c.33.79.65 1.5.92 2.09.1640391.3544542.519429.5809665.91.58h19c.3361596.0038536.6517603-.161461.84-.44 1.1525535-1.9848395 1.7918478-4.2258067 1.86-6.52v-16c-.0022328-.5295768-.2144122-1.0366497-.59-1.41z"/><path id="Shape" d="m2.56 41.45-2.19 5.55c-.0983792.246631-.09463093.5222628.01041844.7661274.10504937.2438647.30277388.4359375.54958156.5338726.24789876.097839.52459666.0926765.76867324-.0143417.24407657-.1070182.4353373-.3070375.53132676-.5556583l.77-1.83c.11935755-.3476856.41985056-.6018542.7825183-.6618842.36266775-.06003.72903192.0837581.95405438.3744407s.27241949.6813887.12342732 1.0174435l-.73 1.86c-.0983792.246631-.09463093.5222628.01041844.7661274.10504937.2438647.30277388.4359375.54958156.5338726.24907151.1009996.52831449.097486.77476587-.0097486.24645137-.1072346.43936175-.3091617.53523413-.5602514l.73-1.86c.21701979-.4894924.78109232-.7211857 1.27952287-.5255651s.75433157.7491314.58047713 1.2555651l-.78 1.91c-.09783902.2478988-.09267645.5245967.01434174.7686732.10701819.2440766.30703748.4353373.55565826.5313268.51358542.197185 1.08999328-.0575069 1.29-.57l.74-1.86c.2170198-.4894924.7810923-.7211857 1.2795229-.5255651.4984305.1956206.7543315.7491314.5804771 1.2555651l-.73 1.87c-.1982761.510803.0514395 1.0860408.56 1.29.246631.0983792.5222628.0946309.7661274-.0104184.2438647-.1050494.4359375-.3027739.5338726-.5495816l.73-1.87c.2255166-.4543664.7555018-.6679098 1.2330305-.4968166.4775288.1710932.7513131.6726181.6369695 1.1668166l-.73 1.87c-.1982761.510803.0514395 1.0860408.56 1.29.510803.1982761 1.0860408-.0514395 1.29-.56l.73-1.86c.1193575-.3476856.4198506-.6018542.7825183-.6618842s.7290319.0837581.9540544.3744407c.2250224.2906826.2724195.6813887.1234273 1.0174435l-.71 1.87c-.197185.5135854.0575069 1.0899933.57 1.29.510803.1982761 1.0860408-.0514395 1.29-.56l2.14-5.59c.197185-.5135854-.0575069-1.0899933-.57-1.29l-18.58-7.31c-.51358542-.197185-1.08999328.0575069-1.29.57z"/><path id="Shape" d="m41.47 29.4c-.0231926-.5363317-.2610244-1.0408232-.66-1.4-.8207656-.7355351-2.0818934-.6684538-2.82.15l-5 5.56c-.8634021.9680334-2.278641 1.2163209-3.42.6-1.2788972-.670204-1.8545374-2.1909252-1.34-3.54l7.93-20.19c.2027854-.4898422.2027854-1.04015779 0-1.53-.4544252-1.00350695-1.6347735-1.45060858-2.64-1-.4849621.21196845-.8661323.60752238-1.06 1.1l-3.36 8.46c-.1516273.380721-.5201962.6303967-.93.63-.1234818.0010635-.2459139-.0227428-.36-.07-.5124931-.2000067-.767185-.7764146-.57-1.29l3.33-8.48 2.19-5.58c.2096003-.48846456.2096003-1.04153544 0-1.53-.2062694-.48890118-.603797-.87197323-1.1-1.06-.4898422-.20278536-1.0401578-.20278536-1.53 0-.5153426.20100313-.9244241.60646439-1.13 1.12l-1.79 4.65-4 10.3c-.1516273.380721-.5201962.6303967-.93.63-.1234818.0010635-.2459139-.0227428-.36-.07-.5124931-.2000067-.767185-.7764146-.57-1.29l4-10.3c.2027854-.48984221.2027854-1.04015779 0-1.53-.3250948-.73821237-1.0618263-1.20887767-1.8683064-1.19357859-.80648.01529908-1.5248307.51356756-1.8216936 1.26357859l-2.56 6.52-1.51 3.77c-.2170198.4894924-.7810923.7211857-1.2795229.5255651-.4984305-.1956206-.7543315-.7491314-.5804771-1.2555651l1.48-3.77c.2027854-.48984221.2027854-1.04015779 0-1.53-.2222753-.49069523-.6279191-.87480039-1.13-1.07-.4945279-.19621324-1.0468543-.18730096-1.5347943.02476526-.48794.21206623-.8712756.60980703-1.0652057 1.10523474l-7.3 18.62c-1.34 3.4-1.26 8.76-1.07 11.85.02320577.3877452.26885232.7269714.63.87l17.63 6.92c.189088.0572978.390912.0572978.58 0 2.4024667-.6377074 4.5846117-1.9207119 6.31-3.71l.27-.3 10.47-11.54c.339409-.3998114.5081949-.9169429.47-1.44zm-31.33 7.43c-.0826382.0152226-.16736185.0152226-.25 0-.53139681-.1373917-.85273675-.6774214-.72-1.21 1.1194864-4.5811063 1.8850761-9.2415086 2.29-13.94.0154441-.2653913.1359254-.5137106.3348239-.6900922.1988984-.1763817.4598421-.2663072.7251761-.2499078.2653913.0154441.5137106.1359254.6900922.3348239.1763817.1988984.2663072.4598421.2499078.7251761-.4033252 4.8121822-1.1925296 9.5841936-2.36 14.27-.1093761.442528-.5041821.7550827-.96.76zm3.72 1.46c-.1266534.0003081-.2522124-.0234463-.37-.07-.2468077-.0979351-.4445322-.2900079-.5495816-.5338726-.1050493-.2438646-.1087976-.5194964-.0104184-.7661274l5.84-14.92c.1304019-.3340433.4291083-.5731435.7835993-.6272338s.710911.085047.935.365c.224089.2799531.2818027.6581905.1514007.9922338l-5.85 14.92c-.1484243.3846519-.5177072.6387821-.93.64zm12.4-10.84c-2.9040298 3.7166672-5.5120297 7.6554156-7.8 11.78-.1758972.3214804-.5135461.5210002-.88.52-.1675258.0008382-.3325776-.0404248-.48-.12-.2321493-.1285481-.4036858-.3440971-.4768345-.5991798s-.0419109-.5287802.0868345-.7608202c2.3334611-4.2408423 5.0090016-8.2842528 8-12.09.2184388-.3012893.5861149-.4563578.9543399-.4024958.368225.0538621.6760819.3077441.7990733.658976.1229913.351232.0407702.7417081-.2134132 1.0135198z"/><path id="Shape" d="m32 49v6c0 .5522847.4477153 1 1 1s1-.4477153 1-1v-2c0-.5522847.4477153-1 1-1s1 .4477153 1 1v2c0 .5522847.4477153 1 1 1s1-.4477153 1-1v-2c0-.5522847.4477153-1 1-1s1 .4477153 1 1v2c0 .5522847.4477153 1 1 1s1-.4477153 1-1v-2c0-.5522847.4477153-1 1-1s1 .4477153 1 1v2c0 .5522847.4477153 1 1 1s1-.4477153 1-1v-2c0-.5522847.4477153-1 1-1s1 .4477153 1 1v2c0 .5522847.4477153 1 1 1s1-.4477153 1-1v-2c0-.5522847.4477153-1 1-1s1 .4477153 1 1v2c0 .5522847.4477153 1 1 1s1-.4477153 1-1v-6c0-.5522847-.4477153-1-1-1h-20c-.5522847 0-1 .4477153-1 1z"/></g></g></svg>