<svg height="57" viewBox="0 0 57 57" width="57" xmlns="http://www.w3.org/2000/svg"><g id="Page-1" fill="none" fill-rule="evenodd"><g id="030---No-Trespassing" fill="rgb(0,0,0)" fill-rule="nonzero"><path id="Shape" d="m12.829 40.9c-.3126559-.6204662-.2808963-1.3587395.0838891-1.9500631.3647855-.5913235 1.0103225-.9509596 1.7051109-.9499369h1.382v-2.149c-.0009313-.8501501.5356917-1.6079808 1.3379061-1.88942.8022144-.2814393 1.6946811-.0249732 2.2250939.63942l1.52 1.9 1.5-1.5c.5715761-.5738357 1.4328132-.7462946 2.1812742-.4367905.7484611.309504 1.2363652 1.0398607 1.2357258 1.8497905v1.366l2.333-.467c.6559384-.1314514 1.3341635.0737555 1.807204.546796s.6782474 1.1512656.546796 1.807204l-.467 2.333h6.826l-6.87-6.87c-.1339521.0220692-.2692806.0347667-.405.038-.435341-.000806-.8652909-.0963505-1.26-.28-14.111-6.545-17.335-8.042-18.136-8.446l-.011.023c-1.03212633-.4895525-1.69665458-1.5227892-1.714-2.665.00252173-1.4457747.73143134-2.793506 1.94-3.587.7929481-.4155416 1.6676411-.6514561 2.562-.691.441-.041.878-.068 1.317-.1l-5.023-5.022c-6.0667807 8.2412179-5.93167719 19.5066463.331 27.6h3.605z"/><path id="Shape" d="m29.218 15.052c.0893413.2482004.2755345.4495489.516.558l2.82 1.31 3.533 1.639h.007c.2405986.1102105.515213.1199282.763.027.2458276-.0907404.4450178-.276243.553-.515l4.046-8.712c-2.4513131-1.78171027-5.2321221-3.05875455-8.181-3.757l-4.028 8.674c-.1122537.244571-.1226863.5237328-.029.776z"/><path id="Shape" d="m33.142 24.909-2.421-1.123-3.686-1.706 5.821 5.822 1.197-2.574-.9-.416z"/><path id="Shape" d="m29 44c-.3003227.0000613-.5847717-.1348558-.7747362-.3674654s-.2653283-.5382796-.2052638-.8325346l.706-3.53-3.53.706c-.2937506.0608554-.5992286-.01533-.83-.207-.2305118-.1889753-.3647061-.47093-.366-.769v-2.586l-2.293 2.293c-.2010761.2011879-.4783147.3072261-.7623274.2915749-.2840127-.0156513-.5479209-.1515107-.7256726-.3735749l-2.219-2.774v3.149c0 .5522847-.4477153 1-1 1h-2.382l1.282 2.553c.1553431.3108588.1381628.6800764-.0453763.9751664-.183539.2950901-.5071168.4737357-.8546237.4718336h-3.5c.083.086.156.178.24.263 8.0128826 8.0522203 20.7125263 9.0265969 29.86 2.291l-2.554-2.554zm-9 3c-.5522847 0-1-.4477153-1-1s.4477153-1 1-1 1 .4477153 1 1-.4477153 1-1 1zm9 1c-.5522847 0-1-.4477153-1-1s.4477153-1 1-1 1 .4477153 1 1-.4477153 1-1 1z"/><path id="Shape" d="m27.34 15.74c-.2756188-.7466514-.2432434-1.5722255.09-2.295l3.817-8.22c-5.9521066-.86057538-12.0037997.65567063-16.847 4.221l9.423 9.423c.9872446.2111753 1.954481.5069335 2.891.884l1.35-2.91c-.3213517-.3084245-.5688494-.6854825-.724-1.103z"/><path id="Shape" d="m47.8 8.2c-10.9908705-10.60069988-28.4478888-10.44298417-39.24543648.35456352-10.79754769 10.79754768-10.9552634 28.25456598-.35456352 39.24543648 7.0350409 7.2634173 17.4392978 10.1703028 27.220366 7.6052033 9.7810683-2.5650995 17.4197378-10.203769 19.9848373-19.9848373 2.5650995-9.7810682-.341786-20.1853251-7.6052033-27.220366zm-4.06 39.227c-9.9347916 8.087202-24.3812645 7.3306611-33.417-1.75-.61694662-.6220711-1.2017088-1.2752558-1.752-1.957-.03698182-.0407569-.07043537-.0845811-.1-.131-7.35827593-9.1601008-7.31660222-22.2160596.1-31.329.1786431-.2198079.44212199-.3535462.725-.368.28263019-.0138341.55806014.0917655.759.291l21.145 21.143.005.005 12.612 12.612c.2004064.2002861.3064437.4761845.2917623.7591362-.0146815.2829518-.1487035.5463943-.3687623.7248638zm3.687-3.687c-.1786431.2198079-.442122.3535462-.725.368h-.052c-.2651948-.0000566-.5195073-.1054506-.707-.293l-33.76-33.76c-.2004064-.20028606-.3064437-.47618449-.2917623-.75913625.0146815-.28295176.1487035-.54639428.3687623-.72486375 9.0596128-7.37068803 22.0234706-7.45841089 31.182-.211l.009.007c5.2912765 4.112965 8.697478 10.1883399 9.4460601 16.8481983.7485822 6.6598583-1.2238938 13.339808-5.4700601 18.5248017z"/><path id="Shape" d="m11.622 21.929c-.5935813.423807-.9535434 1.1018837-.972 1.831.0043773.381321.2233623.7275957.566.895l.014.008c.326.154 9.479 4.4 15.823 7.344l-10.712-10.707c-.155.006-.3.013-.445.022-.857.051-1.705.12-2.553.2-.5952304.0183183-1.1806176.1567567-1.721.407z"/><path id="Shape" d="m44.263 11.737c-.386-.385-.791-.739-1.2-1.092l-3.839 8.267c-.3281232.7203732-.9304163 1.2798253-1.673 1.554-.3354801.1243304-.6902248.1886448-1.048.19-.093 0-.184-.022-.276-.03l-1.34 2.887c.9932131.4723021 1.4271614 1.6515578.977 2.655l-1.506 3.24 12.196 12.192c6.7382182-9.1477974 5.7637376-21.8500739-2.291-29.863z"/><path id="Shape" d="m29.803 17.849-1.263 2.721 3.876 1.798.66.305 1.261-2.719-1.887-.877z"/></g></g></svg>