<svg height="512" viewBox="0 0 60 60" width="512" xmlns="http://www.w3.org/2000/svg"><g id="Page-1" fill="none" fill-rule="evenodd"><g id="003---Digging" fill="rgb(0,0,0)" fill-rule="nonzero"><path id="Shape" d="m58.82 28.18c-.31-1.27-1-4.48-.56-6.48.1367388-.6336535-.1490402-1.2834527-.7084801-1.6109298-.55944-.327477-1.2659489-.2585292-1.7515199.1709298-.3086978.2709631-.5962041.5651556-.86.88-.0818882-3.0568485.102138-6.1150292.55-9.14.1510957-.6693027-.1809321-1.35411-.8-1.65-.6167175-.3069143-1.3632028-.1543178-1.81.37-1.59 1.88-4.58 10.28-4.88 17.28h-2v-7c0-1.6568542-1.3431458-3-3-3h-8v-2c-.0042869-.7102221-.3849109-1.3648954-1-1.72v-12.28c0-1.1045695-.8954305-2-2-2h-4c-1.1045695 0-2 .8954305-2 2v12.28c-.6150891.3551046-.9957131 1.0097779-1 1.72v2h-8c-1.6568542 0-3 1.3431458-3 3v7h-2c-.25-7.16-3.1-11.3-4.36-12.78-.44679716-.5243178-1.19328246-.6769143-1.81-.37-.63079006.2858275-.97653603.9731539-.83 1.65.34378123 1.9331738.47123318 3.8986171.38 5.86-.29881946-.3151605-.61604146-.6123475-.95-.89l-.25-.22c-.49126514-.4190153-1.1945935-.4793006-1.75-.15-.55099875.3340483-.83150435.9792112-.7 1.61.24108234 1.8326142.06328746 3.6960413-.52 5.45-.73509256.3160627-1.21105502 1.0398403-1.21 1.84v28c0 1.1045695.8954305 2 2 2h56c1.1045695 0 2-.8954305 2-2v-28c-.0016396-.7857989-.4632819-1.4978235-1.18-1.82zm-.82 1.82v4h-18.84c1.09-2.61 2.44-3.51 3.22-3.83.1986673-.0825956.4069891-.1397161.62-.17zm-1.88-7.12c.0043262 1.7239494.2056319 3.4417586.6 5.12h-1.63c0-.57-.05-1.37-.08-2.32.1570284-1.0043049.5362484-1.9608961 1.11-2.8zm-3-8.52c-.2477127 4.5430366-.2577264 9.0959177-.03 13.64h-3.09c.2949316-4.689672 1.3626422-9.2983974 3.16-13.64zm-22.33 25.33c-.3255879.3290613-.8145737.435218-1.2472975.270783-.4327239-.1644351-.7278105-.5685393-.7527025-1.030783l-.61-7.27c1.1433821.4532739 2.4166179.4532739 3.56 0l-.61 7.26c-.0089062.2911109-.1308614.5673034-.34.77zm2.21-12.69c0 1.6568542-1.3431458 3-3 3s-3-1.3431458-3-3v-11h6zm-5-25h4v12h-4zm-12 19c0-.5522847.4477153-1 1-1h8v7c.0104192 1.1163221.3941292 2.1970467 1.09 3.07l.74 9c.1153281 1.2653491.9661568 2.3435882 2.17 2.75v4.18c0 .5522847.4477153 1 1 1s1-.4477153 1-1v-4.17c.4241567-.1378737.8131793-.3665098 1.14-.67.5805994-.540569.9374171-1.2791815 1-2.07l.74-9c.7108707-.8743614 1.1055374-1.9632188 1.12-3.09v-7h8c.5522847 0 1 .4477153 1 1v7h-1c-.4723512.0222907-.9366489.1307398-1.37.32-1.48.59-3.53 2.18-4.85 6.38-.8565101 3.0252823-1.2840163 6.1558394-1.27 9.3v1c0 .51-.2 5-5.5 5s-5.5-4.49-5.5-5c0-.35 0-.7 0-1 .0118825-3.1374476-.4156009-6.261106-1.27-9.28-1.32-4.2-3.37-5.79-4.84-6.37-.4403542-.2040938-.915408-.3228573-1.4-.35h-1zm-14 9h15c.2250842.0238823.4446937.0846973.65.18.77.31 2.12 1.21 3.21 3.82h-18.86zm8-2h-3c.39351301-3.2612267.48723851-6.5516613.28-9.83 1.72396468 2.9936711 2.65985299 6.3759439 2.72 9.83zm-6.1-4.34c.82268499.8388623 1.27009914 1.9754386 1.24 3.15-.08.47-.14.87-.14 1.19h-1.66c.3894019-1.412678.56799606-2.8751283.53-4.34zm-1.9 34.34v-22h19.52c.6516944 2.6171485.9874211 5.3029621 1 8v1c0 2.42 1.57 7 7.5 7s7.5-4.58 7.5-7c0-.33 0-.66 0-1 .0123867-2.6970503.3481163-5.3828868 1-8h19.48v22z"/><path id="Shape" d="m30 19.5c-.5512358.0282526-.9753387.4977837-.9475454 1.0490429.0277932.5512591.4969708.9757531 1.0482529.9484193s.9761669-.4961575.9492925-1.0474622c-.0129343-.2653346-.1309119-.5146187-.3279007-.6928466-.1969887-.1782279-.4567979-.2707509-.7220993-.2571534z"/><circle id="Oval" cx="30" cy="25.5" r="1"/><circle id="Oval" cx="7" cy="40" r="1"/><circle id="Oval" cx="6" cy="44" r="1"/><circle id="Oval" cx="55" cy="54" r="1"/><circle id="Oval" cx="52" cy="51" r="1"/><circle id="Oval" cx="50" cy="54" r="1"/><circle id="Oval" cx="10" cy="42" r="1"/><circle id="Oval" cx="14" cy="53" r="1"/><circle id="Oval" cx="44" cy="40" r="1"/><path id="Shape" d="m8.5 47c-1.93299662 0-3.5 1.5670034-3.5 3.5s1.56700338 3.5 3.5 3.5c1.9329966 0 3.5-1.5670034 3.5-3.5s-1.5670034-3.5-3.5-3.5zm0 5c-.82842712 0-1.5-.6715729-1.5-1.5s.67157288-1.5 1.5-1.5 1.5.6715729 1.5 1.5-.67157288 1.5-1.5 1.5z"/><path id="Shape" d="m54 43c0-2.209139-1.790861-4-4-4s-4 1.790861-4 4 1.790861 4 4 4 4-1.790861 4-4zm-6 0c0-1.1045695.8954305-2 2-2s2 .8954305 2 2-.8954305 2-2 2-2-.8954305-2-2z"/></g></g></svg>