<svg height="512" viewBox="0 0 60 60" width="512" xmlns="http://www.w3.org/2000/svg"><g id="Page-1" fill="none" fill-rule="evenodd"><g id="005---Leaf-Blower" fill="rgb(0,0,0)" fill-rule="nonzero" transform="translate(-1 -1)"><path id="Shape" d="m7.4 40.2c.0486431 1.7111726.38675801 3.4017472 1 5 .93573151 2.4498821 2.5060442 4.6069051 4.55 6.25l2.72 7c.3803276.9907856 1.1388046 1.7898165 2.1084555 2.2211893.9696508.4313727 2.0709837.4597234 3.0615445.0788107l16.83-6.49c2.064304-.7800445 3.1069085-3.0845137 2.33-5.15l-2.71-7c.4021203-2.5950705.1159141-5.2502371-.83-7.7-.2371742-.6255303-.5178607-1.2336844-.84-1.82l4.8-1.85 18.34-8.14c1.0545458-.5147724 1.7983119-1.5039813 2-2.66.2937816-1.3124701.1964357-2.6822661-.28-3.94-1.1-2.86-3.58-4.47-5.66-3.72l-19.07 6.24-5.07 1.95-8-4.68c-1.9296723-1.1216034-4.298979-1.1781951-6.28-.15l-11.9 6.15c-1.58187615.8295942-2.75560072 2.2701051-3.24855597 3.9869493-.49295525 1.7168441-.26224079 3.5606098.63855597 5.1030507zm11.91-18.2 2.94 1.71-5.16 2h-.09c-2.756321 1.0672201-5.1359144 2.9249729-6.84 5.34l-1.95-3.28zm18.78 27.82c.1951529.4970708.1834177 1.0515428-.0325915 1.5399115s-.6183517.870072-1.1174085 1.0600885l-16.83 6.48c-.4958798.1920167-1.0478128.1786514-1.5338172-.037142-.4860045-.2157935-.8660642-.6162474-1.0561828-1.112858l-1.74-4.52c.18.09.35.19.53.27 1.9175364.8520371 3.9916945 1.2947966 6.09 1.3 5.9396873-.0182583 11.3169389-3.516994 13.74-8.94.08-.18.14-.37.21-.55zm-4.33-18.72c-.2074718.0775249-.3833362.2217337-.5.41-.2068639.3266718-.2068639.7433282 0 1.07 2.6819392 4.1558798 2.7731896 9.4736406.2354134 13.7190883-2.5377762 4.2454478-7.2648624 6.68298-12.1952293 6.2884965-4.9303668-.3944835-9.2097371-3.5526312-11.0401841-8.1475848-.55846891-1.4597571-.85304975-3.007153-.87-4.57-.03196229-2.2373866.52315487-4.4440634 1.61-6.4 1.4597462-2.6554906 3.8012977-4.7176122 6.62-5.83h.09l17.77-6.85 3.24 8.42zm19.24-12.25c.4576889 1.1918208 1.2407209 2.2312438 2.26 3l-14.68 6.56-3.21-8.32 15.25-5c-.2300488 1.2641059-.0983243 2.567485.38 3.76zm5.61-2.16c.3504672.8578665.4510077 1.7974.29 2.71-.0804119.5450998-.4142555 1.0198997-.9 1.28-.88.34-2.38-.62-3.13-2.55-.3520007-.8576106-.4492181-1.7985365-.28-2.71.0721476-.5480294.4032838-1.0279908.89-1.29.1226564-.0401371.2509441-.060393.38-.06.89 0 2.14.93 2.75 2.62zm-55.44 9.64c.34385206-1.1930073 1.16028993-2.1936855 2.26-2.77l11.81-6.13c1.3765019-.7114076 3.0211232-.6699148 4.36.11l6.64 3.87-3.6 1.39-4.55-2.65c-.4533237-.2547698-1.0066763-.2547698-1.46 0l-11.82 6.09c-.36064965.1938295-.627128.5258036-.73836318.9198401-.11123519.3940365-.0576903.8163521.14836318 1.1701599l2.78 4.67c-.60012878 1.1822868-1.03743347 2.4403787-1.3 3.74l-4.07-6.9c-.62195488-1.0595595-.78792128-2.3259553-.46-3.51z"/><path id="Shape" d="m25.62 34.23c-.2000067-.5124931-.7764146-.767185-1.29-.57l-7.45 2.86c-.4599598.1666576-.7318157.6416294-.6425561 1.1226393s.513426.8268229 1.0025561.8173607c.1234818.0010635.2459139-.0227428.36-.07l7.45-2.87c.5124931-.2000067.767185-.7764146.57-1.29z"/><path id="Shape" d="m27.06 38c-.2000067-.5124931-.7764146-.767185-1.29-.57l-7.45 2.86c-.4599598.1666576-.7318157.6416294-.6425561 1.1226393s.513426.8268229 1.0025561.8173607c.1234818.0010635.2459139-.0227428.36-.07l7.45-2.87c.5124931-.2000067.767185-.7764146.57-1.29z"/><path id="Shape" d="m27.21 41.14-7.44 2.86c-.4579621.1661574-.7295437.638153-.6430481 1.117586.0864957.479433.5058945.8267672.9930481.822414.1235583.001912.2461609-.0219274.36-.07l7.45-2.87c.3587945-.1090661.6264106-.4097051.6931818-.778718s-.0785271-.7443669-.3763531-.9722455c-.2978259-.2278785-.6981135-.2699742-1.0368287-.1090365z"/><path id="Shape" d="m26.88 29.69c-4.0892854-1.763589-8.838457-.8875368-12.0293802 2.2189903-3.1909233 3.1065271-4.1939314 7.8305162-2.5405623 11.9655945 1.6533691 4.1350782 5.6368552 6.8652682 10.0899425 6.9154152 1.367388.0002448 2.7231999-.2505804 4-.74 4.1779179-1.5857199 6.9813161-5.5413847 7.0932186-10.0087087.1119025-4.4673239-2.4899323-8.5583851-6.5832186-10.3512913zm-1.23 18.49c-4.6368347 1.7768168-9.836629-.5375212-11.6199747-5.1718488-1.7833458-4.6343276.5236663-9.8373763 5.1554776-11.6272474 4.6318113-1.7898712 9.8381041.5098105 11.6344971 5.1390962.8659021 2.2314204.8072754 4.7158496-.1629167 6.9039426-.9701922 2.1880929-2.7720241 3.8995915-5.0070833 4.7560574z"/><path id="Shape" d="m33 13.84c-.0056297.0531848-.0056297.1068152 0 .16.0248952.2720885-.0724355.5411659-.2656348.7343652s-.4622767.29053-.7343652.2656348c-.5522847 0-1 .4477153-1 1s.4477153 1 1 1c.8031236.0252479 1.5809429-.2827077 2.1491176-.8508824s.8761303-1.345994.8508824-2.1491176c.0056297-.0531848.0056297-.1068152 0-.16 1.924831-.8143326 3.1270177-2.7538604 3-4.84 0-1.74-1.39-4.73-2.35-6.13-.3728696-.54432772-.9902088-.86973454-1.65-.86973454s-1.2771304.32540682-1.65.86973454c-.96 1.4-2.35 4.39-2.35 6.13-.1270177 2.0861396 1.075169 4.0256674 3 4.84zm1-9.84c1.0083459 1.50880321 1.6896276 3.2120074 2 5 0 1.63-.92 3-2 3s-2-1.37-2-3c.3103724-1.7879926.9916541-3.49119679 2-5z"/><path id="Shape" d="m60.55 30.92c-.4153722-.5095976-1.0546631-.7825113-1.71-.73-1.7.14-4.9.95-6.24 2-1.7039129 1.2266148-2.4393862 3.4008829-1.83 5.41-.0530236.0205629-.1033845.0474221-.15.08-.194477.1951945-.4669225.291761-.7409162.2626127-.2739938-.0291483-.5200254-.1808719-.6690838-.4126127-.2268636-.2768809-.5842085-.411699-.9374261-.3536697-.3532177.0580292-.6486461.3000899-.7750001.635s-.0644375.7117889.1624262.9886697c.5650926.7252374 1.4212915 1.1643137 2.34 1.2.6922022-.0095587 1.3584941-.2647344 1.88-.72.0395339-.0408234.0762832-.0842544.11-.13.6376254.410897 1.3814741.6264046 2.14.62 1.2914594-.0248739 2.5347722-.4946483 3.52-1.33 1.35-1.1 2.79-4.07 3.27-5.7.1829018-.6306217.0446134-1.3108511-.37-1.82zm-4.16 6c-1.26 1-2.91 1.19-3.59.35s-.2-2.42 1.06-3.45c1.5807449-.8979277 3.3313135-1.4564748 5.14-1.64-.5300926 1.735652-1.4193439 3.3403927-2.61 4.71z"/><path id="Shape" d="m40.15 11.69c-.2851012.469769-.137733 1.0815706.33 1.37.5008866.3021799 1.0750227.4612778 1.66.46 1.0260877.0027231 1.9708633-.5579974 2.46-1.46.0241984-.0447534.044281-.0916126.06-.14.2754908.0640068.557182.0975414.84.1 1.7863394-.1010221 3.3970731-1.1082022 4.27-2.67.9-1.49 1.27-4.76 1.17-6.46-.0319728-.65521778-.3832292-1.253101-.94-1.6-.5665685-.34435702-1.266966-.38555687-1.87-.11-1.55.69-4.29 2.52-5.2 4-1.1983216 1.7266641-1.1702174 4.02317816.07 5.72-.044854.0348321-.0851679.075146-.12.12-.1179793.2492988-.3426564.4316384-.6108996.4957835s-.5511035.0031731-.7691004-.1657835c-.4679645-.2699306-1.0657152-.119386-1.35.34zm4.49-5.46c1.2099571-1.37136215 2.6956482-2.47200032 4.36-3.23.075067 1.81258514-.2280297 3.62094842-.89 5.31-.85 1.39-2.35 2.09-3.27 1.52s-1.05-2.21-.2-3.6z"/><circle id="Oval" cx="46" cy="32" r="1"/><circle id="Oval" cx="58" cy="27" r="1"/><circle id="Oval" cx="56" cy="7" r="1"/><circle id="Oval" cx="40" cy="4" r="1"/><path id="Shape" d="m8.29 6c12.04-3.75 16.71 3.22 16.86 3.53.1402545.22579043.3646312.38645177.6235664.44649473.2589353.06004297.5311213.01452661.7564336-.12649473.2257904-.14025446.3864518-.36463117.4464947-.62356644.060043-.25893527.0145266-.5311213-.1264947-.75643356-.22-.35-5.57-8.6-19.14-4.47-.3572656.10360702-.63211893.38994278-.72102542.75114737-.08890648.36120459.02164089.74240244.29000001 1.00000001.26835911.25759756.65375982.35245965 1.01102541.24885262z"/><path id="Shape" d="m8 12c.15687714.0018772.31167955-.0359634.45-.11 5.31-2.66 8.79-.2 9-.09.2858125.2143594.6642734.2599564.9928203.1196153.3285469-.1403412.5572656-.4452995.6-.8000001.0427345-.3547005-.1070078-.7052558-.3928203-.9196152-.18-.14-4.57-3.33-11-.09-.49031299.2495756-.6869243.8483464-.44 1.34.15196773.3063531.44994643.5138066.79.55z"/><path id="Shape" d="m43 56.12c.0610234.5049651.4913743.8836739 1 .88h.12c8.78-1.1 8.88-8.92 8.88-9 0-.5522847-.4477153-1-1-1s-1 .4477153-1 1c0 .25-.13 6.13-7.12 7-.2660282.029982-.5089266.1653802-.6743251.3758874s-.2394846.4785437-.2056749.7441126z"/><path id="Shape" d="m48 61h.11c9.7-1.08 10.89-12.79 10.89-12.91.0321539-.3572656-.1287336-.7045465-.4220577-.9110254s-.674522-.2407867-1-.09-.5457884.4637598-.5779423.8210254c0 .1-1 10.2-9.11 11.1-.5149726.0718797-.8889341.5264186-.8602362 1.0455909.028698.5191724.4504787.9297255.9702362.9444091z"/></g></g></svg>