<svg height="512" viewBox="0 0 60 53" width="512" xmlns="http://www.w3.org/2000/svg"><g id="Page-1" fill="none" fill-rule="evenodd"><g id="006---Turf-Laying" fill="rgb(0,0,0)" fill-rule="nonzero" transform="translate(0 -1)"><path id="Shape" d="m16.06 35h4c1.066667.0013341 1.9466674-.8346663 2-1.9.7684988-11.2643185 9.7356815-20.2315012 21-21v.9c.0060299.7495099.4306323 1.4327339 1.1 1.77.7143173.3700663 1.5758312.3082536 2.23-.16l6.84-5c.5115096-.37697614.8134504-.97458429.8134504-1.61s-.3019408-1.23302386-.8134504-1.61l-6.85-5c-.6502432-.4687408-1.5092601-.53065193-2.22-.16-.6927091.32034658-1.1427192 1.00699984-1.16 1.77v1c-15.6288999.79864235-28.1251483 13.2819368-28.94 28.91-.0245515.5396213.1702205 1.0662272.54 1.46.378682.4027547.9071793.6308049 1.46.63zm27.94-29c.5522847 0 1-.44771525 1-1v-2c.0325795-.01002564.0674205-.01002564.1 0 .0189862-.00900593.0410138-.00900593.06 0l6.84 5-6.83 5c-.0260037.0084091-.0539963.0084091-.08 0h-.09v-2c0-.5522847-.4477153-1-1-1-12.7339865.3098411-23.125297 10.2889702-23.95 23h-4c.80416-14.9326567 12.9984701-26.71249108 27.95-27z"/><path id="Shape" d="m60 34.5c0-8.5604136-6.9395864-15.5-15.5-15.5s-15.5 6.9395864-15.5 15.5c-.0177125 3.4423528 1.127478 6.7898327 3.25 9.5h-3.25v-1c0-.5522847-.4477153-1-1-1s-1 .4477153-1 1v1h-2v-2c0-.5522847-.4477153-1-1-1s-1 .4477153-1 1v2h-2v-1c0-.5522847-.4477153-1-1-1s-1 .4477153-1 1v1h-2v-2c0-.5522847-.4477153-1-1-1s-1 .4477153-1 1v2h-2v-1c0-.5522847-.4477153-1-1-1s-1 .4477153-1 1v1h-2v-2c0-.5522847-.44771525-1-1-1s-1 .4477153-1 1v2h-2v-1c0-.5522847-.44771525-1-1-1s-1 .4477153-1 1v1h-1c-1.1045695 0-2 .8954305-2 2v6c0 1.1045695.8954305 2 2 2h56c1.1045695 0 2-.8954305 2-2v-2c0-1.1045695-.8954305-2-2-2h-5.92c1.1211885-.6287383 2.1621009-1.3909548 3.1-2.27 3.0947668-2.9127395 4.8405305-6.9801516 4.82-11.23zm-2 15.5v2h-56v-2zm-13.5-2h-42.5v-2h42.5c5.6983043-.0064696 10.5357065-4.1780422 11.379823-9.813482.8441166-5.6354398-2.55871-11.041293-8.0050332-12.7170848-5.4463232-1.6757917-11.299519.8820546-13.7694427 6.017246-2.4699238 5.1351914-.8143619 11.3045992 3.8946529 14.5133208h-3.06c-2.535047-2.5095783-3.9548232-5.9328965-3.94-9.5.0000002-7.455844 6.044156-13.4999997 13.5-13.4999997s13.4999998 6.0441557 13.5 13.4999997c-.005515 7.4535585-6.0464415 13.494485-13.5 13.5zm0-4c-5.2467051 0-9.5-4.2532949-9.5-9.5s4.2532949-9.5 9.5-9.5 9.5 4.2532949 9.5 9.5c-.0055117 5.2444204-4.2555796 9.4944883-9.5 9.5z"/><path id="Shape" d="m44.5 27c-4.1421356 0-7.5 3.3578644-7.5 7.5s3.3578644 7.5 7.5 7.5 7.5-3.3578644 7.5-7.5-3.3578644-7.5-7.5-7.5zm0 13c-3.0375661 0-5.5-2.4624339-5.5-5.5s2.4624339-5.5 5.5-5.5 5.5 2.4624339 5.5 5.5c-.0055037 3.0352835-2.4647165 5.4944963-5.5 5.5z"/><path id="Shape" d="m44.5 31c-1.9329966 0-3.5 1.5670034-3.5 3.5s1.5670034 3.5 3.5 3.5 3.5-1.5670034 3.5-3.5-1.5670034-3.5-3.5-3.5zm0 5c-.8284271 0-1.5-.6715729-1.5-1.5s.6715729-1.5 1.5-1.5 1.5.6715729 1.5 1.5-.6715729 1.5-1.5 1.5z"/></g></g></svg>