<svg height="512" viewBox="0 0 60 57" width="512" xmlns="http://www.w3.org/2000/svg"><g id="Page-1" fill="none" fill-rule="evenodd"><g id="007---Shredder" fill="rgb(0,0,0)" fill-rule="nonzero" transform="translate(0 -1)"><path id="Shape" d="m10.5 47c-1.93299662 0-3.5 1.5670034-3.5 3.5s1.56700338 3.5 3.5 3.5c1.9329966 0 3.5-1.5670034 3.5-3.5s-1.5670034-3.5-3.5-3.5zm0 5c-.82842712 0-1.5-.6715729-1.5-1.5s.67157288-1.5 1.5-1.5c.8284271 0 1.5.6715729 1.5 1.5s-.6715729 1.5-1.5 1.5z"/><path id="Shape" d="m57 41h-13c-.7953814.0007002-1.5579306.3172301-2.12.88l-4.12 4.12h-1.58c1.2844272-1.3270835 1.9404976-3.139814 1.8029407-4.9815474-.1375568-1.8417335-1.0556273-3.5368933-2.5229407-4.6584526.3453304-.3688461.538255-.8547303.54-1.36v-4c0-1.1045695-.8954305-2-2-2h-5c-1.1045695 0-2 .8954305-2 2v4h-3v-4.79l18.73-13.77c.4465038-.3291525.7362485-.8289621.8-1.38.0630157-.5484382-.1034603-1.0985325-.46-1.52l-2.34-2.78c.5928892-.4477496 1.2105346-.86173902 1.85-1.24 1.135305-.15977302 2.1976427.5952769 2.42 1.72.1128155.4571833.5293028.7737136 1 .76h.24c.2693563-.0564908.5035239-.2214957.6473416-.4561455.1438176-.2346498.1845704-.5181992.1126584-.7838545-.2273397-1.0249088-.8302689-1.92751865-1.69-2.53.9729656-.3712827 1.9768821-.65572571 3-.85.3234333.85253698.9404168 1.5617134 1.74 2 .8330329.45698302 1.7699201.6912048 2.72.68.2731299.0149136.5468701.0149136.82 0 1.73-.23 4.51-2 5.78-3.14.4858864-.44092398.7246015-1.09212749.6388006-1.74261787-.0858009-.65049037-.4852038-1.21752494-1.0688006-1.51738213-1.55-.86-4.69-1.85-6.42-1.66-1.2208667.14636469-2.3630511.6789169-3.26 1.52-.5126543.50663159-.8788937 1.14236793-1.06 1.84-.99076.17643926-1.9668464.42714638-2.92.75.7885026-1.32258086 1.0458199-2.89507547.72-4.4-.1601626-.55228474-.7377153-.87016256-1.29-.70999999-.5522847.16016258-.8701626.73771524-.71 1.28999999.38 1.24-.41 3.21-2.12 5.3l-.09.05-.08.06c-.8069438.46080596-1.582022.97529748-2.32 1.54l-6-7.06c-.3498224-.41142968-.8511614-.66390255-1.39-.7-.5591295-.02506746-1.1031809.18529907-1.5.58l-14.11 14.14c-.1317715.1290001-.243056.2773794-.33.44l-9.06 16.3v-16.94h2c1.1045695 0 2-.8954305 2-2v-3c0-1.1045695-.8954305-2-2-2h-4c-2.76142375 0-5 2.2385763-5 5v21c.0023533.1456114.03648194.2889517.1.42-.06039472.1876805-.0940586.382931-.1.58.13 5.88 1.29 9.89 3.43 12-1.01292177 2.8257248-.22350737 5.9833825 2 8h-4.43c-.55228475 0-1 .4477153-1 1s.44771525 1 1 1h52c.5522847 0 1-.4477153 1-1s-.4477153-1-1-1h-16.18c.1164225-.320674.1772954-.6588568.18-1v-3h2c.7953814-.0007002 1.5579306-.3172301 2.12-.88l4.12-4.12h11.76c1.6568542 0 3-1.3431458 3-3s-1.3431458-3-3-3zm-6.34-36c.5832444-.54897626 1.3254185-.89905836 2.12-1 .0997195-.01059301.2002805-.01059301.3 0 1.7069601.1487239 3.3733745.60258475 4.92 1.34-1.358938 1.21184497-2.9614926 2.11882266-4.7 2.66-.789688.11407802-1.5951934-.02600987-2.3-.4-.4846001-.23502381-.8320979-.68233483-.94-1.21-.0256353-.53117379.1958731-1.04433506.6-1.39zm-19.16 41c-2.4852814 0-4.5-2.0147186-4.5-4.5s2.0147186-4.5 4.5-4.5 4.5 2.0147186 4.5 4.5c-.0054995 2.4829999-2.0170001 4.4945005-4.5 4.5zm-4.68-9c-2.42833 2.5086011-2.42833 6.4913989 0 9h-5.82v-9zm2.18-6h5v4h-5zm2.94-27.52 6.59 7.79 3 3.55-2.33 1.73-9.44-10.89zm-14.13 14.13 10.53-10.53 9.25 10.66-27.1 19.92c-.2493615.1856729-.57089536.2448056-.87.16-.28463688-.0938228-.5121869-.3103624-.62-.59l-.86-2.16zm-15.81-3.61c0-1.6568542 1.34314575-3 3-3h4v3h-3c-.55228475 0-1 .4477153-1 1v19h-3zm0 22h4.32l.79 2c.35279443.8705777 1.09299189 1.5256524 2 1.77.26968361.0786636.5490795.1190582.83.12.6384094.000724 1.2597069-.2063752 1.77-.59l10.29-7.62v3.32h-1c-1.1045695 0-2 .8954305-2 2v9h-2.51c-1.429403-1.9088931-3.6833511-3.0218014-6.0679698-2.9961179-2.38461864.0256836-4.6140735 1.1868804-6.0020302 3.1261179-1.42-1.84-2.31-5.37-2.42-10.13zm3 14.5c0-3.0375661 2.46243388-5.5 5.5-5.5 3.0375661 0 5.5 2.4624339 5.5 5.5s-2.4624339 5.5-5.5 5.5c-3.03528349-.0055037-5.4944963-2.4647165-5.5-5.5zm12.85 1.5h13.15v3c.0027046.3411432.0635775.679326.18 1h-15.6c1.1558369-1.0635468 1.9496405-2.4623198 2.27-4zm17.15 3c0 .5522847-.4477153 1-1 1s-1-.4477153-1-1v-3h2zm22-10h-12.17c-.265803-.0015368-.5212812.1028135-.71.29l-4.43 4.42c-.1792338.1890372-.4295353.2942364-.69.29h-21c-.0381911-.6831211-.1763266-1.3569528-.41-2h20.58c.265803.0015368.5212812-.1028135.71-.29l4.43-4.42c.1792338-.1890372.4295353-.2942364.69-.29h13c.5522847 0 1 .4477153 1 1s-.4477153 1-1 1z"/><path id="Shape" d="m33 40h-3c-.5522847 0-1 .4477153-1 1s.4477153 1 1 1h3c.5522847 0 1-.4477153 1-1s-.4477153-1-1-1z"/><path id="Shape" d="m42 29.24.7-2.79 2.88 1.44c.2830476.1426286.6169524.1426286.9 0 .2864681-.1428743.4872197-.4142607.54-.73l1-6c.0571625-.3572656-.0806161-.7178885-.3614359-.9460254-.2808199-.228137-.6620177-.2891287-1-.16-.3379824.1291286-.5814016.4287598-.6385641.7860254l-.77 4.66-2.79-1.39c-.274806-.1327594-.595194-.1327594-.87 0-.2756323.1281372-.4780216.3746842-.55.67l-1 4c-.0667762.2572811-.0283746.5305617.1067221.7594755.1350966.2289138.3557712.3946234.6132779.4605245.2656553.071912.5492047.0311592.7838545-.1126584.2346498-.1438177.3996547-.3779853.4561455-.6473416z"/><path id="Shape" d="m42.71 35.71 2-2 1.38 2.76c.1428743.2864681.4142607.4872197.73.54h.18c.265803.0015368.5212812-.1028135.71-.29l4-4c.3921221-.3921222.3921221-1.0278778 0-1.42-.3921222-.3921221-1.0278778-.3921221-1.42 0l-3 3-1.38-2.76c-.1428743-.2864681-.4142607-.4872197-.73-.54-.3181829-.0523998-.6421084.051852-.87.28l-3 3c-.3921222.3921222-.3921222 1.0278778 0 1.42s1.0278778.3921222 1.42 0z"/><path id="Shape" d="m59 56h-2c-.5522847 0-1 .4477153-1 1s.4477153 1 1 1h2c.5522847 0 1-.4477153 1-1s-.4477153-1-1-1z"/><path id="Shape" d="m21 20c.2430724-.0003498.4776958-.0892223.66-.25l8-7c.2863409-.2306318.4230275-.5997925.3559299-.9612895-.0670975-.3614969-.3271558-.6570177-.6771882-.7695321-.3500324-.1125143-.7335758-.0238727-.9987417.2308216l-8 7c-.4137044.3647578-.4539711.9956033-.09 1.41.1895698.2157843.4627728.3396363.75.34z"/></g></g></svg>