<svg height="512" viewBox="0 0 61 60" width="512" xmlns="http://www.w3.org/2000/svg"><g id="Page-1" fill="none" fill-rule="evenodd"><g id="010---Painting-Bench" fill="rgb(0,0,0)" fill-rule="nonzero"><path id="Shape" d="m2 52h2v6c0 1.1045695.8954305 2 2 2h3c1.1045695 0 2-.8954305 2-2v-6h30.34c.2040618.2572825.4245202.5011229.66.73v5.27c0 1.1045695.8954305 2 2 2h3c1.1045695 0 2-.8954305 2-2v-2h.62c5.8685018-.0055129 10.6244871-4.7614982 10.63-10.63 0-4.63-6.13-14.95-8.37-18.19-.5137777-.7410828-1.3582399-1.183188-2.26-1.183188s-1.7462223.4421052-2.26 1.183188c-.4.59-1 1.55-1.8 2.81h-38.56c-1.1045695 0-2 .8954305-2 2v3c0 1.1045695.8954305 2 2 2h1v3h-1c-1.1045695 0-2 .8954305-2 2v3h-3c-1.1045695 0-2 .8954305-2 2v3c-.00266085.5321635.20687758 1.0434441.58223913 1.4206825.37536154.3772383.88559072.5893242 1.41776087.5893175zm7 6h-3v-6h3zm32.74-21c-.52 1.08-1 2.08-1.34 3h-26.4v-3zm2.26 21v-3.62c.9255151.585893 1.9380916 1.0213009 3 1.29v2.33zm5-29.68c.1402809-.2009743.3699094-.3207274.615-.3207274s.4747191.1197531.615.3207274c2.79 4 8 13.47 8 17 .0106305 2.2932036-.8908415 4.4965612-2.5058204 6.1246701-1.614979 1.6281088-3.8109651 2.5473919-6.1041796 2.5553299-.4895598.0000711-.9781544-.0434339-1.46-.13-2.5849413-.4567242-4.8260417-2.0548859-6.1-4.35-.6017469-1.0837102-.963262-2.2842133-1.06-3.52 0-.19 0-.39 0-.58.1055128-1.3801637.4436107-2.7325554 1-4 .48-1.23 1.12-2.65 1.9-4.24l.34-.67c.83-1.62 1.77-3.33 2.74-4.93s1.59-2.58 2.02-3.26zm-42 3.68h37.39c-.57 1-1.12 2-1.64 3h-35.75zm3 5h2v3h-2zm-3 5h32.66c-.3406649.969586-.5622881 1.9769643-.66 3h-32zm-5 5h37.13c.1665799 1.0402022.4832119 2.0507298.94 3h-38.07z"/><path id="Shape" d="m6 13h2c.55228475 0 1-.4477153 1-1s-.44771525-1-1-1h-2c-.55228475 0-1 .4477153-1 1s.44771525 1 1 1z"/><path id="Shape" d="m6 18h.18l9.46-1.72h.1c.5103572-.1692403 1.042565-.2635556 1.58-.28 1.4502982.0032326 2.8408421.5781344 3.87 1.6l6.1 6.11c.0938689.0926027.2063566.1641858.33.21.1202223.051241.2493227.07842.38.08h8c4.31 0 6.56 1.21 7.68 2.22.3570255.3286396.8247468.5107295 1.31.51.2786039-.0023729.5539506-.0601617.81-.17.7311775-.3191063 1.202778-1.0422271 1.2-1.84v-10.31c-.0022328-.5295768-.2144122-1.0366497-.59-1.41l-2.41-2.46 1.52-.38c.8763629-.23596031 1.4839831-1.03243546 1.48-1.94v-2.22c.0049086-.06657631.0049086-.13342369 0-.2 0-.23-1.27-5.8-11-5.8h-8.06c-.0918651.01041629-.1823694.03052836-.27.06-.0298502-.00423982-.0601498-.00423982-.09 0-.1028202.04808108-.1973352.11221621-.28.19l-6.11 6.15c-1.0291579 1.02186557-2.4197018 1.59676744-3.87 1.6-.535476-.00349715-1.0676386-.08433196-1.58-.24h-.1l-9.46-1.76h-.18c-3.3137085 0-6 2.6862915-6 6s2.6862915 6 6 6zm39-11.88v2.1l-1.53.38c-.7080193.16483121-1.2708478.70085834-1.47 1.4-.2137039.7096662-.0174407 1.4793257.51 2l2.49 2.41v10.33c-1.84-1.66-4.54-2.56-8-2.71v-20.03c6.59.33 7.84 3.58 8 4.12zm-10 15.88h-6v-20h6zm-29.08-14 9.32 1.7c2.6140027.7831053 5.4467313.05567907 7.36-1.89l4.4-4.4v17.18l-4.4-4.4c-1.3962695-1.4067835-3.2979361-2.1955429-5.28-2.19-.7038996.0029368-1.4039594.103907-2.08.3l-9.32 1.7c-2.209139 0-4-1.790861-4-4s1.790861-4 4-4z"/><path id="Shape" d="m45 45c0-.5522847-.4477153-1-1-1s-1 .4477153-1 1c0 3.23 1.83 7 7 7 .5522847 0 1-.4477153 1-1s-.4477153-1-1-1c-4.64 0-5-3.83-5-5z"/></g></g></svg>