<svg height="512" viewBox="0 0 60 60" width="512" xmlns="http://www.w3.org/2000/svg"><g id="Page-1" fill="none" fill-rule="evenodd"><g id="013---Roller" fill="rgb(0,0,0)" fill-rule="nonzero"><path id="Shape" d="m45.31 22.51c2.3540883-1.8394694 3.2812953-4.9702458 2.3085537-7.7949853-.9727417-2.8247395-3.6310163-4.72080114-6.6185537-4.72080114s-5.645812 1.89606164-6.6185537 4.72080114c-.9727416 2.8247395-.0455346 5.9555159 2.3085537 7.7949853-2.1003306.4880593-4.102257 1.3300858-5.92 2.49l-23.77-23.81c-1.59218954-1.58668974-4.16781046-1.58668974-5.76 0-.78409666.76000461-1.23081538 1.80260513-1.24021243 2.89454206-.00939705 1.09193694.41931191 2.14207126 1.19021243 2.91545794l23.81 23.77c-3.1906102 4.9215425-3.8972151 11.0516171-1.91 16.57-2.625887-1.8905234-6.2052987-1.7349854-8.6572978.3761901-2.451999 2.1111756-3.1375377 5.6277672-1.6580691 8.505359 1.4794685 2.8775917 4.7383605 4.3662164 7.8820768 3.6004429 3.1437163-.7657736 5.3529316-3.5863671 5.3432901-6.821992 0-.13 0-.26 0-.38 5.1083425 6.6331382 13.9563976 9.1408426 21.7854405 6.1744016 7.829043-2.9664409 12.7937017-10.7078119 12.2238476-19.060593-.569854-8.3527811-6.5399013-15.3481506-14.6992881-17.2238086zm-5.31 11.73v-17.24c0-.5522847.4477153-1 1-1s1 .4477153 1 1v19.24zm1-22.24c2.152152 0 4.0628463 1.3771505 4.7434165 3.4188612s-.0216949 4.2898476-1.7434165 5.5811388v-4c0-1.6568542-1.3431458-3-3-3s-3 1.3431458-3 3v4c-1.7217216-1.2912912-2.4239867-3.5394281-1.7434165-5.5811388s2.5912645-3.4188612 4.7434165-3.4188612zm-3 12.28v8l-5.78-5.78c1.7725881-1.0915045 3.7324945-1.8442713 5.78-2.22zm-36-20.21c-.00105696-.8393337.50482644-1.59622494 1.28075884-1.91624226.77593241-.32001732 1.66830383-.13980745 2.25924116.45624226l32.75 32.75 4 4 .09.09c.3962988.3905511.6196024.9235984.62 1.48-.0008659.5484664-.2204147 1.0739437-.61 1.46-.8174587.7886523-2.1125413.7886523-2.93 0l-36.85-36.85c-.39017091-.38975598-.60958522-.91850849-.61-1.47zm23.55 46.5c-.241851-.6341257-.5790668-1.2276255-1-1.76l12-6.51 1.45 1.48zm-1.55-9.57c-.0082149-3.0979117.8433785-6.1373386 2.46-8.78l8.61 8.6-10.18 5.55c-.5890576-1.7291032-.8897366-3.5433126-.89-5.37zm-5 17c-2.7614237 0-5-2.2385763-5-5s2.2385763-5 5-5 5 2.2385763 5 5c0 1.3260824-.5267842 2.597852-1.4644661 3.5355339s-2.2094515 1.4644661-3.5355339 1.4644661zm22 0c-5.1487344-.005635-10.0174991-2.3444071-13.24-6.36l12.35-6.73c.2690964.0606378.5441574.0908274.82.09 1.5943446.0097662 3.0460743-.9167978 3.7085941-2.3670039.6625197-1.4502061.412542-3.1541871-.6385941-4.3529961v-14c8.6329503 1.5860792 14.6390642 9.4837488 13.8612254 18.2266571-.7778389 8.7429082-8.0838625 15.4562239-16.8612254 15.4933429z"/><circle id="Oval" cx="19" cy="53" r="1"/><path id="Shape" d="m41 48c-2.209139 0-4 1.790861-4 4s1.790861 4 4 4 4-1.790861 4-4-1.790861-4-4-4zm0 6c-1.1045695 0-2-.8954305-2-2s.8954305-2 2-2 2 .8954305 2 2-.8954305 2-2 2z"/><path id="Shape" d="m48.53 32c-1.5635665.906992-2.3245625 2.7498818-1.8564843 4.4958135s2.048899 2.9609886 3.8564843 2.9641865c.7029639.0021115 1.393627-.1843675 2-.54 1.8090104-1.1499839 2.3899208-3.5215871 1.3171729-5.377441s-3.4177712-2.5361659-5.3171729-1.542559zm3.73 2.46c.5522847.958214.223214 2.1827153-.735 2.735s-2.1827153.223214-2.735-.735c-.2597423-.4620653-.3313747-1.0064719-.2-1.52.1402852-.5121242.4784654-.9474414.94-1.21.3038396-.1762535.6487402-.2693767 1-.27.7221419.0088902 1.3834004.4064097 1.73 1.04z"/></g></g></svg>