<svg height="512" viewBox="0 0 60 60" width="512" xmlns="http://www.w3.org/2000/svg"><g id="Page-1" fill="none" fill-rule="evenodd"><g id="016---Band-Stand" fill="rgb(0,0,0)" fill-rule="nonzero"><path id="Shape" d="m57 52h-1v-3c0-1.6568542-1.3431458-3-3-3v-27h1.94c.9191073-.0007104 1.7194145-.6277552 1.94-1.52.2276623-.8937958-.1854242-1.8273715-1-2.26l-21.88-11.49c-.2469394-2.00489243-1.9499573-3.51102147-3.97-3.51102147s-3.7230606 1.50612904-3.97 3.51102147l-21.94 11.5c-.81553982.4290267-1.23238202 1.3597503-1.00944263 2.2538796.22293939.8941292 1.02794795 1.5202005 1.94944263 1.5161204h1.94v27c-1.65685425 0-3 1.3431458-3 3v3h-1c-1.65685425 0-3 1.3431458-3 3v3c0 1.1045695.8954305 2 2 2h56c1.1045695 0 2-.8954305 2-2v-3c0-1.6568542-1.3431458-3-3-3zm-6-6h-4v-27h4zm-9 0v-8h3v8zm-5 0v-8h3v8zm-12 0v-8h10v8zm-5 0v-8h3v8zm-5 0v-8h3v8zm14-40.06v11.06h-14.23l13.41-11.18c.2707236.05615914.5445366.09622935.82.12zm2.81-.12 13.42 11.18h-14.23v-11.06c.2721486-.02383573.5426303-.0639071.81-.12zm-16.81 30.18v-5c0-6.627417 5.372583-12 12-12h6c6.627417 0 12 5.372583 12 12v5zm25.17-17h4.83v4.83c-1.1907668-1.9807769-2.8492231-3.6392332-4.83-4.83zm-20.34 0c-1.9807769 1.1907668-3.6392332 2.8492231-4.83 4.83v-4.83zm28.53-2-11.24-9.36 17.82 9.36zm-18.36-15c.9972867-.01127436 1.8504612.71392389 2 1.7-.6439046.2165564-1.3208962.31810513-2 .3-.6791038.01810513-1.3560954-.0834436-2-.3.1495388-.98607611 1.0027133-1.71127436 2-1.7zm-24.95 15 17.79-9.34-11.2 9.34zm4 2h4v27h-4.05zm-3.05 30c0-.5522847.44771525-1 1-1h46c.5522847 0 1 .4477153 1 1v3h-48zm-4 9v-3c0-.5522847.44771525-1 1-1h54c.5522847 0 1 .4477153 1 1v3z"/></g></g></svg>