<svg height="512" viewBox="0 0 62 60" width="512" xmlns="http://www.w3.org/2000/svg"><g id="Page-1" fill="none" fill-rule="evenodd"><g id="017---Fountain" fill="rgb(0,0,0)" fill-rule="nonzero"><path id="Shape" d="m58 46.05c0-.36 0-.72 0-1.08-.0082843-.5522847-.4627153-.9932843-1.015-.985s-.9932843.4627153-.985 1.015v1h-18.31c.4649611-2.6601776 1.5208984-5.1821251 3.09-7.38 2.73-3.41 3.7-5.53 4-6.65 1.9329966-.0883656 3.4283656-1.7270034 3.34-3.66s-1.7270034-3.4283656-3.66-3.34h-5.74l.07-.11c.2484017-.4748504.0783237-1.0611063-.3856398-1.3292932-.4639634-.268187-1.0568642-.1229594-1.3443602.3292932-.21.35-.41.73-.61 1.12h-.86c.2958795-1.4379822.8847821-2.7996067 1.73-4 1.0286244-1.1932059 1.8591762-2.5436967 2.46-4 1.592802-.1018995 2.9121043-1.2742481 3.200528-2.8440295s-.5279776-3.1345334-1.980528-3.7959705c-.18-5.94-2.48-10.34-5.5-10.34-1.9 0-3.5 1.74-4.5 4.51-1-2.77-2.6-4.51-4.5-4.51-3 0-5.32 4.4-5.48 10.34-1.4715972.6462481-2.3091934 2.216218-2.0264904 3.7984044.282703 1.5821865 1.6121541 2.7649513 3.2164904 2.8615956.609894 1.4538827 1.4432852 2.8035041 2.47 4 .8452179 1.2003933 1.4341205 2.5620178 1.73 4h-.8c-.2-.39-.4-.77-.61-1.12-.1572029-.3478371-.4987108-.5758412-.8802382-.5876816-.3815275-.0118403-.7365164.1945486-.9149856.5319684-.1784693.3374198-.1492845.7470071.0752238 1.0557132l.06.11h-5.84c-1.9329966-.0883656-3.5716344 1.4070034-3.66 3.34s1.4070034 3.5716344 3.34 3.66c.34 1.12 1.31 3.24 4 6.65 1.5805777 2.188409 2.6501648 4.7034764 3.13 7.36h-18.23c0-.32 0-.65 0-1 .01656854-.5522847-.41771525-1.0134315-.97-1.03s-1.01343146.4177153-1.03.97v1.07c-1.76752859.1903203-3.10744128 1.6822545-3.10744128 3.46s1.33991269 3.2696797 3.10744128 3.46c.47063965 4.021246 3.87132724 7.0569608 7.92 7.07h38c4.0326671.0013842 7.4359168-2.9989619 7.94-7 1.8486147-.0819106 3.3098512-1.5961873 3.3258256-3.4465468.0159743-1.8503595-1.4189006-3.3896387-3.2658256-3.5034532zm-22.5-44.05c1.5 0 3.26 3.36 3.5 8h-7c.24-4.64 2-8 3.5-8zm-9 0c1.5 0 3.26 3.36 3.5 8h-7c.24-4.64 2-8 3.5-8zm-5.5 11.5c0-.8284271.6715729-1.5 1.5-1.5h17c.8284271 0 1.5.6715729 1.5 1.5s-.6715729 1.5-1.5 1.5h-.36c-.0465494-.0046784-.0934506-.0046784-.14 0h-.15-16.35c-.8284271 0-1.5-.6715729-1.5-1.5zm5.25 6.26c-.7008214-.8585711-1.3170196-1.7828683-1.84-2.76h13.18c-.5229804.9771317-1.1391786 1.9014289-1.84 2.76-1.1174099 1.5582768-1.86625 3.3500219-2.19 5.24h-5.12c-.32375-1.8899781-1.0725901-3.6817232-2.19-5.24zm-10.25 8.74c0-.8284271.6715729-1.5 1.5-1.5h27c.8284271 0 1.5.6715729 1.5 1.5s-.6715729 1.5-1.5 1.5h-27c-.8284271 0-1.5-.6715729-1.5-1.5zm6.78 8.88-.76-1h10c.5522847 0 1-.4477153 1-1s-.4477153-1-1-1h-11.38c-.5079752-.7536822-.9496299-1.549999-1.32-2.38h23.36c-.9107174 1.9382442-2.0741697 3.7473117-3.46 5.38-1.8389535 2.5595068-3.0608127 5.5097664-3.57 8.62h-9.3c-.5091873-3.1102336-1.7310465-6.0604932-3.57-8.62zm27.22 20.62h-38c-2.92930069.0019138-5.43178374-2.1116698-5.92-5h49.84c-.4882163 2.8883302-2.9906993 5.0019138-5.92 5zm7.5-7h-53c-.82842712 0-1.5-.6715729-1.5-1.5s.67157288-1.5 1.5-1.5h53c.8284271 0 1.5.6715729 1.5 1.5s-.6715729 1.5-1.5 1.5z"/><path id="Shape" d="m5.67 32.88c-.16.65-.31 1.31-.45 2-.10439318.5378195.24340003 1.0595093.78 1.17h.2c.48276076.0097357.90352637-.3268768 1-.8.14-.65.28-1.29.43-1.91.13210549-.5356491-.19454964-1.0770912-.73-1.21-.26285221-.0689937-.54246384-.0280389-.77448821.1134393-.23202436.1414783-.3964767.3712943-.45551179.6365607z"/><path id="Shape" d="m21 21.91c.1862606.1847442.4376601.2888954.7.29.4062651.0023626.77358-.2413038.929371-.6165185.1557909-.3752147.0690889-.807391-.219371-1.0934815-.5225982-.5239717-1.1029794-.9869347-1.73-1.38-.2240988-.1419243-.4954043-.1889964-.7542145-.1308579-.2588101.0581385-.4839173.2167236-.6257855.4408579-.1410213.2253123-.1865377.4974983-.1264947.7564336.0600429.2589352.2207043.4833119.4464947.6235664.4973959.3209383.9599057.692957 1.38 1.11z"/><path id="Shape" d="m14.48 20.65c.1599233.0006435.3176684-.0370782.46-.11.4856396-.2671071 1.013155-.4497086 1.56-.54.5522847-.071797.941797-.5777153.87-1.13s-.5777153-.941797-1.13-.87c-.775126.1081088-1.5259932.348251-2.22.71-.4118133.2109688-.6251135.6769081-.5156912 1.126491s.5129878.7653855.9756912.763509z"/><path id="Shape" d="m9.77 24.7c.15808866.1021485.3417963.1576075.53.16.3455015.0006914.6668845-.1770145.85-.47.3327252-.5311279.6966992-1.0420273 1.09-1.53.1677705-.2065934.2462689-.4715409.2181156-.7361825-.0281534-.2646416-.1606359-.5071443-.3681156-.6738175-.4287515-.3426824-1.0535791-.2757366-1.4.15-.4488034.5480712-.85975448 1.1260756-1.23 1.73-.28876805.4645899-.15064915 1.0749863.31 1.37z"/><path id="Shape" d="m8.87 26.49c-.50264954-.2173854-1.08664845.0099729-1.31.51-.25.61-.5 1.25-.73 1.92-.08957731.2505974-.0755708.5265642.03891866.7668044.11448945.2402402.32001707.4249352.57108134.5131956.10729609.0312266.21826947.0480407.33.05.42361743-.0016876.8002085-.2701089.94-.67.22-.63.46-1.23.7-1.81.19412253-.5024678-.04463435-1.06841-.54-1.28z"/><path id="Shape" d="m4.57 38.89c-.09.66-.16 1.34-.23 2-.0306933.2686889.04874676.5383535.22020241.7474917s.42030652.3399164.68979759.3625083h.09c.5189652.0021057.95329702-.3931362 1-.91.06-.66.14-1.31.22-2 .05300301-.5389744-.33268701-1.0221952-.87-1.09-.26712797-.0337175-.53656628.0417092-.747363.2092173-.21079672.1675082-.34513932.412943-.372637.6807827z"/><path id="Shape" d="m51.38 21.6c-.3479394-.4307821-.9792179-.4979393-1.41-.1499999-.430782.3479393-.4979393.9792178-.15 1.4099999.3965447.4855051.7606668.9966123 1.09 1.53.1831155.2929855.5044985.4706914.85.47.1882037-.0023925.3719113-.0578515.53-.16.4606491-.2950137.5987681-.9054101.31-1.37-.3703325-.6014512-.7777889-1.1792378-1.22-1.73z"/><path id="Shape" d="m56.4 32.88c-.1325483-.5384776-.6765224-.8675483-1.215-.735s-.8675483.6765224-.735 1.215c.15.62.3 1.26.43 1.91.0964736.4731232.5172392.8097357 1 .8h.2c.2599387-.0529946.4881678-.2071045.6344551-.428411.1462874-.2213065.1986434-.4916715.1455449-.751589-.16-.7-.31-1.36-.46-2.01z"/><path id="Shape" d="m54.5 27c-.1375472-.3304707-.4409502-.5624576-.7959198-.6085735-.3549696-.046116-.7075776.1006452-.925.385-.2174224.2843547-.2666275.6631028-.1290802.9935735.25.58.48 1.18.7 1.81.1397915.3998911.5163826.6683124.94.67.1117305-.0019593.2227039-.0187734.33-.05.4863972-.1789076.755511-.6997732.62-1.2-.24-.72-.48-1.36-.74-2z"/><path id="Shape" d="m47.13 20.54c.1379993.0748719.2930224.1127664.45.11.3743567.0007787.7177963-.2076004.89-.54.1197077-.2408725.1373323-.5198133.0488944-.7738373-.088438-.254024-.275481-.4617102-.5188944-.5761627-.6940068-.361749-1.444874-.6018912-2.22-.71-.5522847-.071797-1.058203.3177153-1.13.87s.3177153 1.058203.87 1.13c.560497.0711951 1.104873.2368747 1.61.49z"/><path id="Shape" d="m41.35 19.11c-.6255986.3907721-1.2029205.8539722-1.72 1.38-.3877236.3900375-.3877236 1.0199625 0 1.41.1870714.1908556.4427541.2988906.71.3.2623399-.0011046.5137394-.1052558.7-.29.4214465-.4196068.8875554-.7918233 1.39-1.11.3018894-.1911371.4788763-.5288111.4642915-.8858236-.0145849-.3570124-.2185257-.6791246-.535-.845s-.6974021-.1503135-.9992915.0408236z"/><path id="Shape" d="m55.51 39.15c.09.64.16 1.29.22 2 .046703.5168638.4810348.9121057 1 .91h.1c.5493903-.0527177.9521958-.5405599.9-1.09-.06-.68-.14-1.36-.22-2-.0061051-.2841091-.1327982-.5522032-.348425-.7372987-.2156268-.1850956-.4998204-.2697096-.781575-.2327013-.2702152.0320016-.5157219.1727349-.6798884.3897366s-.2328155.4915316-.1901116.7602634z"/></g></g></svg>