<svg height="512" viewBox="0 0 60 60" width="512" xmlns="http://www.w3.org/2000/svg"><g id="Page-1" fill="none" fill-rule="evenodd"><g id="018---Watering-Plants" fill="rgb(0,0,0)" fill-rule="nonzero"><path id="Shape" d="m13.14 60c.9875632.0135218 1.8371294-.695866 2-1.67l1.69-9.33h.17c1.1045695 0 2-.8954305 2-2v-3c0-1.1045695-.8954305-2-2-2h-.36c1.3679996-1.6938791 2.2433087-3.731654 2.53-5.89.0522715-.6192452-.1710977-1.2300429-.6105274-1.6694726s-1.0502274-.6627989-1.6694726-.6105274c-2.2079651.2800524-4.2898034 1.1856521-6 2.61-.3311146.3364807-.6322553.7011956-.9 1.09-.2677447-.3888044-.56888544-.7535193-.9-1.09-1.71019658-1.4243479-3.79203485-2.3299476-6-2.61-.62141243-.0688721-1.23927887.1568156-1.67.61-.45318439.4307211-.67887213 1.0485876-.61 1.67.29249641 2.1603867 1.17480767 4.1983527 2.55 5.89h-.36c-1.1045695 0-2 .8954305-2 2v3c0 1.1045695.8954305 2 2 2h.17l1.71 9.3c.14953884.9860761 1.00271325 1.7112744 2 1.7zm-2.14-19.9c.1724384-.8708666.6255683-1.6612095 1.29-2.25 1.3899421-1.0750537 3.0386221-1.764878 4.78-2 .0331887.018916.0634965.0424888.09.07-.2241932 1.7503925-.9149816 3.4082847-2 4.8-.5899818.6661772-1.3852595 1.1166-2.26 1.28-.5251034.0834633-1.058412-.0896575-1.4343772-.4656228-.3759653-.3759652-.5490861-.9092738-.4656228-1.4343772zm-8.12-4.29c1.75186763.230019 3.41151312.9201003 4.81 2 .67941631.5962189 1.14043398 1.40212 1.31 2.29.08346331.5251034-.08965755 1.058412-.46562279 1.4343772-.37596524.3759653-.90927379.5490861-1.43437721.4656228-.87017353-.172929-1.65816328-.6302445-2.24-1.3-1.09136723-1.3817885-1.79853506-3.0272472-2.05-4.77 0 0 .07-.11.07-.12zm.12 8.19h14v3h-14zm2.2 5h9.6l-1.66 9h-6.29z"/><path id="Shape" d="m38.56 34.44c-.4307211-.4531844-1.0485876-.6788721-1.67-.61-1.0295087.1455841-2.037121.4176395-3 .81-.3940404-1.7713508-1.1610783-3.4383799-2.25-4.89-.4132311-.4557591-.9997957-.7156998-1.615-.7156998s-1.2017689.2599407-1.615.7156998c-1.0817012 1.4546573-1.8449297 3.1208124-2.24 4.89-.962879-.3923605-1.9704913-.6644159-3-.81-.6192452-.0522715-1.2300429.1710977-1.6694726.6105274s-.6627989 1.0502274-.6105274 1.6694726c.2692419 2.1522597 1.123556 4.1894702 2.47 5.89h-.36c-1.1045695 0-2 .8954305-2 2v3c0 1.1045695.8954305 2 2 2h.17l1.71 9.3c.1495388.9860761 1.0027133 1.7112744 2 1.7h6.28c.9875632.0135218 1.8371294-.695866 2-1.67l1.67-9.33h.17c1.1045695 0 2-.8954305 2-2v-3c0-1.1045695-.8954305-2-2-2h-.36c1.3679996-1.6938791 2.2433087-3.731654 2.53-5.89.0688721-.6214124-.1568156-1.2392789-.61-1.67zm-8.63-3.44h.07c1.0399029 1.3425191 1.7274397 2.9238537 2 4.6-.3858482.2450824-.7474806.526352-1.08.84-.3311146.3364807-.6322553.7011956-.9 1.09-.2677447-.3888044-.5688854-.7535193-.9-1.09-.3451601-.3157177-.7202662-.5970473-1.12-.84.25906-1.6676443.9215991-3.2467531 1.93-4.6zm-7 4.8c1.7518676.230019 3.4115131.9201003 4.81 2 .662864.6061756 1.1059919 1.4150598 1.26 2.3.0834633.5251034-.0896575 1.058412-.4656228 1.4343772-.3759652.3759653-.9092738.5490861-1.4343772.4656228-.8701735-.172929-1.6581633-.6302445-2.24-1.3-1.0913672-1.3817885-1.7985351-3.0272472-2.05-4.77 0 0 .07-.11.07-.12zm10.21 22.2h-6.29l-1.65-9h9.6zm3.86-11h-14v-3h14zm-1.86-6.32c-.5788447.677161-1.3671758 1.1417133-2.24 1.32-.5251034.0834633-1.058412-.0896575-1.4343772-.4656228-.3759653-.3759652-.5490861-.9092738-.4656228-1.4343772.1724384-.8708666.6255683-1.6612095 1.29-2.25 1.3899421-1.0750537 3.0386221-1.764878 4.78-2 .0331887.018916.0634965.0424888.09.07-.2369446 1.7383746-.9343589 3.3817865-2.02 4.76z"/><path id="Shape" d="m52.66 33h.49c1.310995-.2324737 2.5091873-.8895469 3.41-1.87 1.4200711-1.7128295 2.3251057-3.7933686 2.61-6 .0522715-.6192452-.1710977-1.2300429-.6105274-1.6694726s-1.0502274-.6627989-1.6694726-.6105274c-1.0295087.1455841-2.037121.4176395-3 .81-.3940404-1.7713508-1.1610783-3.4383799-2.25-4.89-.4132311-.4557591-.9997957-.7156998-1.615-.7156998s-1.2017689.2599407-1.615.7156998c-1.0817012 1.4546573-1.8449297 3.1208124-2.24 4.89-.962879-.3923605-1.9704913-.6644159-3-.81-.6192452-.0522715-1.2300429.1710977-1.6694726.6105274s-.6627989 1.0502274-.6105274 1.6694726c.2848943 2.2066314 1.1899289 4.2871705 2.61 6 .8851275.9691197 2.0605288 1.6252393 3.35 1.87h.49c.5794172-.0016408 1.1495222-.1458843 1.66-.42v3.78c-1.6938791-1.3679996-3.731654-2.2433087-5.89-2.53-.6192452-.0522715-1.2300429.1710977-1.6694726.6105274s-.6627989 1.0502274-.6105274 1.6694726c.2866913 2.158346 1.1620004 4.1961209 2.53 5.89h-.36c-1.1045695 0-2 .8954305-2 2v3c0 1.1045695.8954305 2 2 2h.17l1.71 9.3c.1495388.9860761 1.0027133 1.7112744 2 1.7h6.28c.9875632.0135218 1.8371294-.695866 2-1.67l1.67-9.33h.17c1.1045695 0 2-.8954305 2-2v-3c0-1.1045695-.8954305-2-2-2h-.36c1.3679996-1.6938791 2.2433087-3.731654 2.53-5.89.0522715-.6192452-.1710977-1.2300429-.6105274-1.6694726s-1.0502274-.6627989-1.6694726-.6105274c-2.158346.2866913-4.1961209 1.1620004-5.89 2.53v-3.78c.5104778.2741157 1.0805828.4183592 1.66.42zm4.43-8.19c.0331887.018916.0634965.0424888.09.07-.2241932 1.7503925-.9149816 3.4082847-2 4.8-.5891382.6848381-1.3927479 1.1500858-2.28 1.32-.5251034.0834633-1.058412-.0896575-1.4343772-.4656228-.3759653-.3759652-.5490861-.9092738-.4656228-1.4343772.1724384-.8708666.6255683-1.6612095 1.29-2.25 1.3913829-1.0926154 3.0477184-1.796558 4.8-2.04zm-7.16-4.81h.07c1.0399029 1.3425191 1.7274397 2.9238537 2 4.6-.3858482.2450824-.7474806.526352-1.08.84-.3311146.3364807-.6322553.7011956-.9 1.09-.2677447-.3888044-.5688854-.7535193-.9-1.09-.3451601-.3157177-.7202662-.5970473-1.12-.84.25906-1.6676443.9215991-3.2467531 1.93-4.6zm-1.42 10.5c-.3602954.3866977-.8865769.5733224-1.41.5-.8701735-.172929-1.6581633-.6302445-2.24-1.3-1.0734455-1.3870921-1.7631845-3.0321196-2-4.77 0 0 .07-.09.07-.1 1.7518676.230019 3.4115131.9201003 4.81 2 .6571331.5983633 1.0997744 1.3958202 1.26 2.27.0758335.5217326-.1069612 1.0477336-.49 1.41zm-5.63 5.3c1.7518676.230019 3.4115131.9201003 4.81 2 .681336.5988024 1.1425236 1.408521 1.31 2.3.0834633.5251034-.0896575 1.058412-.4656228 1.4343772-.3759652.3759653-.9092738.5490861-1.4343772.4656228-.8701735-.172929-1.6581633-.6302445-2.24-1.3-1.0734455-1.3870921-1.7631845-3.0321196-2-4.77 0 0 .02-.11.02-.12zm10.26 22.2h-6.29l-1.65-9h9.6zm3.86-11h-14v-3h14zm-6-6.9c.1724384-.8708666.6255683-1.6612095 1.29-2.25 1.3899421-1.0750537 3.0386221-1.764878 4.78-2 .0331887.018916.0634965.0424888.09.07-.2241932 1.7503925-.9149816 3.4082847-2 4.8-.5899818.6661772-1.3852595 1.1166-2.26 1.28-.5251034.0834633-1.058412-.0896575-1.4343772-.4656228-.3759653-.3759652-.5490861-.9092738-.4656228-1.4343772z"/><path id="Shape" d="m11 33c2.209139 0 4-1.790861 4-4-.2061988-1.5248079-.8645004-2.9528698-1.89-4.1.254878-.094182.455818-.295122.55-.55.3248973-.8209069.9213842-1.5056314 1.69-1.94l8.47 3.21c.552704.861469 1.5064729 1.3817067 2.53 1.38.4244846-.0019661.8437194-.0939933 1.23-.27l9.12-4.1c.7331968-.3271467 1.3046681-.9345324 1.5865751-1.6862844.2819069-.7517519.2507233-1.5851332-.0865751-2.3137156l-1.2-2.7.92-.41c2.5067008-1.1436745 3.6157727-4.0997091 2.48-6.61-1.1323436-2.51824878-4.0915746-3.64195073-6.61-2.51l-1.08.49c-.8749937-.9170565-2.2319269-1.18524094-3.39-.67l-1.82.78-2.05-4.52c-.3252785-.73497895-.9318753-1.30869789-1.683822-1.59255774-.7519466-.28385985-1.5863497-.25411842-2.316178.08255774-.7237447.32692009-1.2883352.92747179-1.57 1.67-.2676029.75209696-.2244166 1.57983449.12 2.3l2 4.56-1.82.82c-.734979.3252785-1.3086979.9318753-1.5925577 1.683822-.2838599.7519466-.2541185 1.5863497.0825577 2.316178l-5.47 2.45c-2.3822032 1.0651266-4.23995948 3.0380925-5.16 5.48-.09418646.2479752-.08599025.523212.02278502.7651432s.30921629.4307323.55721498.5248568l1.07.41c-.94 1.05-2.69 3.24-2.69 5.05 0 2.209139 1.790861 4 4 4zm11.62-10-4.74-1.79 3.27-1.47zm12-14.79c1.4994748-.62512027 3.2241002.05691378 3.8904249 1.53853833.6663248 1.48162457.0322174 3.22444157-1.4304249 3.93146167l-.91.41-2.47-5.45zm-12.85-4.86c.1436753-.3795743.5025182-.63466452.9082262-.6456296s.7778057.22436999.9417738.5956296l2.46 5.46 2.45 5.46c.1027779.2463777.1027779.5236223 0 .77-.0886024.2481017-.2772525.4476355-.52.55-.5026133.2253043-1.0927874.0017535-1.32-.5l-2.42-5.43-2.47-5.49c-.1124609-.24235319-.1232639-.51963156-.03-.77zm-1.28 9.35c.0947072-.2500085.2855792-.4516847.53-.56l1.82-.82 2.05 4.56c.3252785.734979.9318753 1.3086979 1.683822 1.5925577.7519466.2838599 1.5863497.2541185 2.316178-.0825577.7237447-.3269201 1.2883352-.9274718 1.57-1.67.2864671-.7441726.2648775-1.5717755-.06-2.3l-2.08-4.56 1.82-.86c.5026133-.22530429 1.0927874-.00175348 1.32.5l4.92 11c.2253043.5026133.0017535 1.0927874-.5 1.32l-9.12 4.1c-.4999117.2265995-1.0890349.0079098-1.32-.49l-2.87-6.43-1.64-3.64-.41-.9c-.1097119-.2394933-.1204926-.5126039-.03-.76zm-6.49 5.87 5.47-2.46.82 1.82-5.47 2.46c-1.0947177.4984647-2.011964 1.3180574-2.63 2.35l-1.84-.74c.8022626-1.5167459 2.0863703-2.7234553 3.65-3.43zm-3 6.9c1 1.15 2 2.66 2 3.53 0 1.1045695-.8954305 2-2 2s-2-.8954305-2-2c0-.87 1-2.38 2-3.53z"/></g></g></svg>