<svg height="512" viewBox="0 0 61 60" width="512" xmlns="http://www.w3.org/2000/svg"><g id="Page-1" fill="none" fill-rule="evenodd"><g id="019---Raking" fill="rgb(0,0,0)" fill-rule="nonzero" transform="translate(-1)"><path id="Shape" d="m2.71 35.81 1.85-1.81c.1411908-.1435568.3224301-.2411472.52-.28l2-.36c.18657778 1.1984299.46064363 2.3815922.82 3.54l-2.41 1c-.2454691.0941447-.46733564.2409179-.65.43l-2.15 2.15c-.38772359.3900375-.38772359 1.0199625 0 1.41.39003745.3877236 1.01996255.3877236 1.41 0l2.15-2.14 2.32-1c.43334072 1.0952055.94465171 2.1579303 1.53 3.18l-2.27 1.52c-.10872337.0722703-.20930864.1560913-.3.25l-2.22 2.22c-.28593449.2835193-.37392508.7108789-.22324902 1.0842935.15067606.3734145.51062081.6200283.91324902.6257065.2672459-.0011094.52292856-.1091444.71-.3l2.21-2.22 2.24-1.49c.6539189.9269809 1.3653144 1.8120504 2.13 2.65l-4.29 4.29c-.25723122.2554449-.35864445.6287169-.26603829.9792082.09260616.3504912.36516262.6249536.715.72.34983738.0950463.72380709-.0037633.98103829-.2592082l4.3-4.3c.8311564.7756314 1.7167514 1.4907911 2.65 2.14l-1.5 2.23-2.22 2.22c-.2518723.2536586-.3492866.622421-.255548.9673781.0937387.344957.3643892.6137015.7100001.705s.7136757-.0087195.9655479-.2623781l2.21-2.21c.094018-.0942408.1778164-.1981508.25-.31l1.53-2.27c1.0091549.583638 2.0584574 1.0949223 3.14 1.53l-1 2.33-2.11 2.12c-.1893127.1877666-.2957983.4433625-.2957983.71s.1064856.5222334.2957983.71c.1887188.1871865.444197.2915368.71.29.265803.0015368.5212812-.1028135.71-.29l2.14-2.15c.1919534-.1822922.3420727-.4040594.44-.65l1-2.41c1.1758751.3599414 2.3754628.6372834 3.59.83l-.37 2c-.0341588.1999633-.1283255.3848089-.27.53l-1.85 1.85c-.3877236.3900375-.3877236 1.0199625 0 1.41.3900375.3877236 1.0199625.3877236 1.41 0l1.85-1.85c.4287736-.4275752.7181208-.9748947.83-1.57l.55-3c.0061554-.0160983.0061554-.0339017 0-.05 0 0 0 0 0-.07l.55-16.18c.0213339-.375473.17759-.7306005.44-1l4.62-4.62 24.34-24.33c.77644-.77312922 1.2120231-1.8242885 1.21-2.92-.0023706-1.09483686-.4372846-2.14438139-1.21-2.92-1.612785-1.61239737-4.227215-1.61239737-5.84 0l-24.34 24.34-4.61 4.61c-.2640094.2716665-.6215822.4325743-1 .45l-16.15.54h-.14l-3 .56c-.59749876.1071853-1.14842458.3931088-1.58.82l-1.84 1.86c-.25365857.2536586-.35272352.623374-.25987804.969878.09284548.3465041.36349595.6171546.71.71.34650405.0928455.71621947-.0062194.96987804-.259878zm25.18 16.13c-3.0353289-.4726638-5.9456267-1.547026-8.56-3.16h-.05c-1.3674839-.8608781-2.6381607-1.8666909-3.79-3-.024335-.0415063-.0510461-.081573-.08-.12-.037603-.030098-.0777546-.0568657-.12-.08-1.1387405-1.1506857-2.1450134-2.425298-3-3.8-1.6112786-2.6151987-2.68551125-5.5251452-3.16-8.56l8.1-.27c1.1723973 5.5173476 5.4826524 9.8276027 11 11zm27.47-49.32c.8429993-.79246622 2.1570007-.79246622 3 0 .4044668.39900046.6345597.94187572.64 1.51-.0032511.56366365-.2297961 1.10305654-.63 1.5l-23.63 23.63-3-3zm-31.26 29.98c.8660845-.040907 1.6874689-.3964847 2.31-1l3.91-3.91 3 3-3.91 3.91c-.6087855.6270895-.9648483 1.4567158-1 2.33l-.16 4.88c-4.4419384-1.0898836-7.9101164-4.5580616-9-9z"/><path id="Shape" d="m55.67 38.29c-.1877666-.1893127-.4433625-.2957983-.71-.2957983s-.5222334.1064856-.71.2957983l-2.88 2.89c-1.5636042-1.1491523-3.5280372-1.6113718-5.44-1.28-2.7863671.5585236-5.3203337 1.9954894-7.23 4.1-3.58 3.53-4.82 10.28-4.7 13.1.0505217 1.5648743 1.2959783 2.8277498 2.86 2.9h.42c3 0 9.32-1.29 12.73-4.7 4.25-4.24 5.3-9.3 2.77-12.67l2.89-2.88c.2019503-.1890717.3165529-.4533557.3165529-.73s-.1146026-.5409283-.3165529-.73zm-7.07 15.56c-3 2.95-9.07 4.24-11.65 4.1-.5139092-.0251129-.9248871-.4360908-.95-.95-.12-2.59 1.15-8.69 4.1-11.65 1.6151835-1.7797243 3.7553149-2.9986535 6.11-3.48.3110128-.0479477.6253158-.0713533.94-.07.9852506-.0130825 1.9524034.2652349 2.78.8l-2.37 2.4-3-.61c-.2613539-.0528614-.5329959.0008454-.7545697.1491871-.2215737.1483417-.3747269.3790318-.4254303.6408129-.1039115.54103.249337 1.0641955.79 1.17l1.7.35-1.87 1.82-3-.6c-.5378195-.1043932-1.0595093.2434-1.17.78-.0530985.2599175-.0007425.5302825.1455449.751589.1462873.2213065.3745164.3754164.6344551.428411l1.7.34-1.5 1.51c-.3877236.3900375-.3877236 1.0199625 0 1.41.3900375.3877236 1.0199625.3877236 1.41 0l1.51-1.51.34 1.71c.0964736.4731232.5172392.8097357 1 .8.0663327.0094367.1336673.0094367.2 0 .5026441-.1325094.8199474-.6280241.73-1.14l-.6-3 1.83-1.84.35 1.7c.0922491.4771082.5141358.8188364 1 .81h.2c.2617811-.0507034.4924712-.2038566.6408129-.4254303.1483417-.2215738.2020485-.4932158.1491871-.7545697l-.61-3 2.39-2.49c1.7 2.6.65 6.41-2.75 9.85z"/><path id="Shape" d="m59.64 25.06c-2-1.07-7.32-2.52-11.14-1.16-2.1995178.6587579-4.1281777 2.0088198-5.5 3.85-.8635837 1.2370963-1.2213549 2.757624-1 4.25l-2.88 1c-.3572656.0643078-.6530848.3143296-.7760254.6558846s-.054325.7227528.18 1c.234325.2772471.5987598.4084232.9560254.3441154.1125935-.0012782.2241625-.0215635.33-.06l2.88-1c.7672565 1.320272 2.0135005 2.2943478 3.48 2.72.8051275.2372024 1.6406734.3551222 2.48.35 1.4306714-.0217338 2.8473453-.2854583 4.19-.78 3.83-1.35 7.07-5.81 8-7.9.5227402-1.2359515-.0018849-2.665555-1.2-3.27zm-.64 2.49c-.78 1.85-3.72 5.71-6.78 6.79-1.7156972.7031882-3.6111831.8398313-5.41.39-.8587526-.2343903-1.6107951-.7569363-2.13-1.48l2.14-.76 1.67 1.26c.1730962.1298221.3836298.2.6.2.3147573 0 .6111456-.1481942.8-.4.3313708-.4418278.2418278-1.0686292-.2-1.4l-.69-.46 1.46-.51.88.66c.1730962.1298221.3836298.2.6.2.3147573 0 .6111456-.1481942.8-.4.2700472-.3772132.2452049-.8906216-.06-1.24l1.32-.4c.337616-.1178976.5866884-.4069555.653394-.7582884.0667056-.3513328-.0590896-.7115648-.33-.945-.2709103-.2334352-.645778-.3046092-.983394-.1867116l-1.22.43v-.2c.1353097-.5357162-.1892838-1.0796902-.725-1.215-.5357162-.1353097-1.0796902.1892838-1.215.725l-.38 1.49-1.46.52.11-.43c.0664629-.2586599.0267012-.5331582-.1104248-.7623278-.1371261-.2291695-.3602222-.3939678-.6195752-.4576722-.5325786-.1327367-1.0726083.1886032-1.21.72l-.44 1.73-2.07.7c-.0401172-.8880585.216737-1.7641774.73-2.49 1.1228399-1.4798219 2.6889085-2.5624062 4.47-3.09.938784-.3065232 1.9226846-.4519106 2.91-.43 2.2893454.0133407 4.5495555.5144732 6.63 1.47.2641817.1379436.3775027.456114.26.73z"/><path id="Shape" d="m5 20c-.55228475 0-1 .4477153-1 1s.44771525 1 1 1h18c.5522847 0 1-.4477153 1-1s-.4477153-1-1-1z"/><path id="Shape" d="m2 27h9c.5522847 0 1-.4477153 1-1s-.4477153-1-1-1h-9c-.55228475 0-1 .4477153-1 1s.44771525 1 1 1z"/><path id="Shape" d="m38.06 12.5c1.4526515-2.8880651 1.2149607-6.33841485-.62-9-1.59-2.08-4.1-2.9-7.06-2.32-2.6767972.41504882-4.5842212 2.81892567-4.38 5.52.21 2.18 2 4.37 5.61 4.37.6644589.0164368 1.306867-.2389023 1.7787378-.7069981.4718709-.4680959.7323616-1.10843239.7212622-1.7730019.0139752-.66541976-.2455964-1.30744744-.7181093-1.77618018-.4725128-.46873275-1.1166046-.72313926-1.7818907-.70381982-.5522847.00000002-1 .44771526-1 1s.4477153.99999998 1 1c.42 0 .5.26.5.48s-.08.48-.5.48c-2.48 0-3.5-1.33-3.62-2.57-.1061884-1.69081044 1.1358494-3.16628087 2.82-3.35 2.2-.44 4 .1 5.08 1.57 1.3893355 2.0478698 1.5466676 4.69181651.41 6.89-1.0503886 2.1832352-3.3107442 3.5205136-5.73 3.39h-22.57c-.55228475 0-1 .4477153-1 1s.44771525 1 1 1h22.57c3.1676991.1163458 6.1053331-1.6485878 7.49-4.5z"/></g></g></svg>