<svg height="512" viewBox="0 0 60 60" width="512" xmlns="http://www.w3.org/2000/svg"><g id="Page-1" fill="none" fill-rule="evenodd"><g id="020---Planting-Flowers" fill="rgb(0,0,0)" fill-rule="nonzero"><path id="Shape" d="m46 52c-1.43 0-14 .11-14 4s12.57 4 14 4 14-.11 14-4-12.57-4-14-4zm0 6c-6.93 0-11.23-1.23-11.94-2 .71-.77 5-2 11.94-2s11.23 1.23 11.94 2c-.71.77-5.01 2-11.94 2z"/><path id="Shape" d="m59 18h-3c.0871972-.6693314.0395963-1.3493441-.14-2-.2483537-1.0132124-.8425143-1.9079899-1.68-2.53.8039561-.6181705 1.3777897-1.4877219 1.63-2.47.3540406-1.24915897.1956941-2.58790642-.44-3.72-1.252594-2.02994109-3.7646627-2.89241802-6-2.06-.3463882-2.40112944-2.4040142-4.1832217-4.83-4.1832217s-4.4836118 1.78209226-4.83 4.1832217c-2.2472173-.86185681-4.7895789-.00039541-6.05 2.05-.6476268 1.13071312-.8202527 2.4721603-.48 3.73.2522039 1.0115194.8455685 1.9050981 1.68 2.53-.8225871.6102554-1.4146519 1.4807318-1.68 2.47-.1930107.6479468-.2542158 1.3280028-.18 2h-8.67l-1.52-3c-.7447595-1.4631971-2.5273616-2.0559123-4-1.33l-2.71 1.33-4.53-8.9.9-.45c.9634651-.4985026 1.353882-1.6741897.88-2.65l-.91-1.78c-.2326138-.48068161-.6477971-.8483768-1.1530708-1.02118419-.5052738-.17280738-1.058672-.13637425-1.5369292.10118419l-7.13 3.62c-.47404241.23866702-.83378307.65596618-1 1.16-.16227843.50263507-.11913995 1.04905586.12 1.52l.9 1.79c.3432953.67189037 1.03549567 1.09339786 1.79 1.09.31195198-.00162379.6195436-.07339516.9-.21l.89-.46 4.52 8.92-.53.27h-9.21c-.55228475 0-1 .4477153-1 1s.44771525 1 1 1h6c-.66549904.9087275-.76590969 2.1136551-.26 3.12l2.66 5.24c-2.4925431.8356897-4.23162137 3.0964915-4.4 5.72-2.88833015.4882163-5.00191381 2.9906993-5 5.92 0 .5522847.44771525 1 1 1h34c.5522847 0 1-.4477153 1-1 0-4.418278-3.581722-8-8-8-.27 0-.54 0-.8 0l.25-.76c.9205083-2.7693202.6899081-5.7923445-.64-8.39l-1.46-2.85h8.44c.9630387 1.3681692 2.5369536 2.1756884 4.21 2.16.5838733.0032607 1.1622942-.1124235 1.7-.34.2154337 1.4400187 1.0576406 2.7106525 2.3 3.47.1431481 1.3328514.7522812 2.5723662 1.72 3.5.7965938.6728944 1.2633098 1.6573735 1.28 2.7.0258351.7208206-.2004909 1.4280895-.64 2-.187391.2534289-.387654.4970821-.6.73-.9119176.8725914-1.5096232 2.0222956-1.7 3.27l-3.56 2.83c-.9474531.7585692-1.4992415 1.9062892-1.5 3.12v1.15l-1.71 1.7c-.1893127.1877666-.2957983.4433625-.2957983.71s.1064856.5222334.2957983.71c.1887188.1871865.444197.2915368.71.29.2623399-.0011046.5137394-.1052558.7-.29l1.3-1.3 1.29 1.3c.1887188.1871865.444197.2915368.71.29.4044441-.0016958.7680455-.2468472.9212679-.6211476s.0658935-.8040433-.2212679-1.0888524l-1.7-1.7v-1.15c.0003792-.6068554.2762735-1.1807154.75-1.56l2.49-2c.3208784.9012303.8364396 1.7206654 1.51 2.4.7863952.686246 1.2413905 1.6763158 1.25 2.72 0 .5522847.4477153 1 1 1s1-.4477153 1-1c-.014956-1.5179172-.6509965-2.9634637-1.76-4-.7912996-.6801066-1.2465101-1.6715921-1.2465101-2.715s.4552105-2.0348934 1.2465101-2.715l3.49 2.91c2.0473443 1.7062438 3.2427553 4.2250151 3.27 6.89v.22l-1.71 1.7c-.1893127.1877666-.2957983.4433625-.2957983.71s.1064856.5222334.2957983.71c.1887188.1871865.444197.2915368.71.29.2623399-.0011046.5137394-.1052558.7-.29l1.3-1.3 1.29 1.3c.1887188.1871865.444197.2915368.71.29.4044441-.0016958.7680455-.2468472.9212679-.6211476s.0658935-.8040433-.2212679-1.0888524l-1.7-1.7v-.22c-.0035128-1.7148964-.4039664-3.4057006-1.17-4.94-.6931817-1.3599164-1.6560862-2.5643977-2.83-3.54l-3.59-3c.3943998-.7380247.5972635-1.5632331.59-2.4-.0111896-1.5166719-.6437107-2.9624343-1.75-4-.4224469-.4268724-.761578-.9287865-1-1.48h.28c2.4061727-.0493254 4.4358103-1.8058234 4.83-4.18.5338515.2286883 1.1092453.344448 1.69.34 1.6537086-.0062256 3.2013156-.8154563 4.15-2.17h3.8c.5522847 0 1-.4477153 1-1s-.4477153-1-1-1zm-54.57-10.52-.91-1.78 7.14-3.62.9 1.79-1.78.9-3.57 1.81zm5.36-.48 7.21 14.28c.2469243.4916536.050313 1.0904244-.44 1.34-.2371744.1217785-.5131586.1438052-.7666461.061187-.2534876-.0826182-.4634886-.26304-.5833539-.501187l-2.21-4.45-5-9.82zm15.76 23.66-.64 2c-.7428266.3058646-1.4342312.7240801-2.05 1.24-.848428.7182941-1.5308084 1.6122124-2 2.62-.1917647.4882666.0263608 1.0417222.499686 1.2678664.4733253.2261443 1.0409449.0481004 1.300314-.4078664.3598628-.7691651.8817889-1.4514214 1.53-2 .5598489-.4737839 1.2046145-.8368887 1.9-1.07.6139554-.2129842 1.2601988-.3178719 1.91-.31 2.9255207.0029647 5.4224145 2.1153959 5.91 5h-31.78c.45572018-1.7649988 2.04711774-2.9986403 3.87-3 .28935718.0024569.56559199-.1205483.75736079-.3372471.1917688-.2166987.28026743-.5058422.24263921-.7927529 0-.12 0-.24 0-.37-.00707592-2.0337573 1.36258661-3.8147299 3.33-4.33l.43.85c1.3066251 2.611472 3.6098744 4.5867156 6.39 5.48l1 .31c.1028338.0143697.2071662.0143697.31 0 .5522847.0856041 1.0693958-.2927153 1.155-.845.0856041-.5522847-.2927153-1.0693959-.845-1.155l-.95-.31c-2.2732931-.7320522-4.1575355-2.3460877-5.23-4.48l-.72-1.43c-.0265549-.0748481-.0635903-.145552-.11-.21l-3.23-6.16c-.11970767-.2408725-.13733234-.5198133-.04889435-.7738373s.27548093-.4617102.51889435-.5761627l2.68-1.35 1.81 3.56c.3580005.7110636.9839493 1.2506746 1.74 1.5.3036671.0984092.6207868.1490134.94.15.4700955.0010449.9333983-.1122069 1.35-.33 1.4594338-.7483448 2.047382-2.530006 1.32-4l-1.84-3.6 2.67-1.35c.2425648-.119726.5219778-.1412193.78-.06.2482683.085381.4530015.2649714.57.5l4 7.9c1.0897136 2.1265734 1.2806429 4.6014486.53 6.87zm21.29-13.35-.08.05c-1.3606116.7200365-2.9893884.7200365-4.35 0l-.11-.07c-1.3647357-.7372812-2.2390839-2.1400399-2.3-3.69 0 0 0-.07 0-.1s0-.06 0-.09c.0153596-1.5284632.826428-2.9383579 2.14-3.72h.05l.09-.05c1.3570774-.7200163 2.9829226-.7200163 4.34 0l.1.07c1.352773.7468844 2.2172751 2.1460128 2.28 3.69v.19c-.0195679 1.5325064-.8387452 2.9433118-2.16 3.72zm6.8-9.06c.3671985.6765397.4534105 1.47040774.24 2.21-.1342776.6073524-.4910122 1.1424543-1 1.5-.537531.259277-1.1103601.4378649-1.7.53h-.26c-.2589999-1.5814621-1.1009812-3.00854902-2.36-4l.07-.1c.3922596-.50229076.8534791-.94667737 1.37-1.32 1.3392627-.53194605 2.8675457-.03651365 3.64 1.18zm-9.14-5.25c1.4452621.03085596 2.6536502 1.1078054 2.85 2.54-.0336277.57738718-.1515429 1.14674907-.35 1.69l-.17.22c-1.5019948-.56478633-3.1580052-.56478633-4.66 0l-.06-.13c-.236028-.57694771-.3778348-1.18806754-.42-1.81.2032271-1.4078347 1.3882429-2.46633632 2.81-2.51zm-9.15 5.25c.7734168-1.22141808 2.307943-1.7175115 3.65-1.18.4883598.32831948.9234265.72966007 1.29 1.19l.1.23c-1.2463558.99476493-2.0713321 2.4232953-2.31 4h-.13c-.6279484-.0703923-1.2415911-.2356038-1.82-.49-.5061905-.3646694-.8617948-.9016318-1-1.51-.2278176-.7461781-.1486349-1.55240206.22-2.24zm0 10.5c-.3671985-.6765397-.4534105-1.4704077-.24-2.21.1378426-.605827.4937915-1.1397503 1-1.5.538161-.257677 1.110751-.4361903 1.7-.53h.27c.2571342 1.5821377 1.0994877 3.0098555 2.36 4l-.08.1c-.3784364.5111158-.8378177.956986-1.36 1.32-1.342057.5375115-2.8765832.0414181-3.65-1.18zm9.15 5.25c-1.4469051-.0266686-2.6576216-1.1056932-2.85-2.54.0372172-.5830189.1654347-1.1566236.38-1.7l.16-.21c.7376508.284311 1.519568.4366325 2.31.45.8111358-.0010408 1.6149335-.1536606 2.37-.45l.05.13c.242714.5753134.3880308 1.1869959.43 1.81-.2097014 1.4203164-1.4145704 2.4814467-2.85 2.51zm5.5-4.07c-.4883598-.3283195-.9234265-.7296601-1.29-1.19l-.11-.23c1.2523905-.9910669 2.0816347-2.4207984 2.32-4h.12c.6314793.0822756 1.2458342.2645567 1.82.54.509637.3613434.866202.8997566 1 1.51.2134105.7395923.1271985 1.5334603-.24 2.21-.7764831 1.1993583-2.2910588 1.6846919-3.62 1.16z"/><path id="Shape" d="m13 46c0-2.209139-1.790861-4-4-4s-4 1.790861-4 4 1.790861 4 4 4 4-1.790861 4-4zm-6 0c0-1.1045695.8954305-2 2-2s2 .8954305 2 2-.8954305 2-2 2-2-.8954305-2-2z"/><path id="Shape" d="m28 46.5c0-1.9329966-1.5670034-3.5-3.5-3.5s-3.5 1.5670034-3.5 3.5 1.5670034 3.5 3.5 3.5 3.5-1.5670034 3.5-3.5zm-5 0c0-.8284271.6715729-1.5 1.5-1.5s1.5.6715729 1.5 1.5-.6715729 1.5-1.5 1.5-1.5-.6715729-1.5-1.5z"/><circle id="Oval" cx="18" cy="50" r="1"/></g></g></svg>