<svg height="512" viewBox="0 0 55 60" width="512" xmlns="http://www.w3.org/2000/svg"><g id="Page-1" fill="none" fill-rule="evenodd"><g id="021---Pest-Control" fill="rgb(0,0,0)" fill-rule="nonzero"><path id="Shape" d="m18 9v-3c0-1.1045695-.8954305-2-2-2h-8.25c-1.1045695 0-2 .8954305-2 2v3c0 1.1045695.8954305 2 2 2h8.25c1.1045695 0 2-.8954305 2-2zm-10.25-3h8.25v3h-8.25z"/><path id="Shape" d="m19 44c.5522847 0 1-.4477153 1-1s-.4477153-1-1-1h-2c-.0281464-.5828017-.1254966-1.1601888-.29-1.72l2.76-1.39c.3460386-.1440974.5824323-.4696151.6123817-.8432591s-.1515756-.73266-.4702434-.9300368c-.3186678-.1973769-.7209575-.1999648-1.0421383-.0067041l-2.67 1.33c-.271197-.4687651-.6079273-.8964126-1-1.27.708376-1.1011648 1.0898104-2.3807038 1.1-3.69 0-.5522847-.4477153-1-1-1s-1 .4477153-1 1c-.0154903.9665359-.3337632 1.9038669-.91 2.68-.3542145-.1033522-.7210261-.1571961-1.09-.16-.3722681.0026494-.742403.0564872-1.1.16-.5794749-.7737884-.8949816-1.7132971-.9-2.68 0-.5522847-.44771525-1-1-1s-1 .4477153-1 1c.02508307 1.3142597.4239774 2.5941903 1.15 3.69-.40977011.3701415-.76347842.7979601-1.05 1.27l-2.65-1.33c-.48352717-.2013504-1.04049627.0045141-1.2768341.4719378s-.07195864 1.0380149.3768341 1.3080622l2.76 1.39c-.17128033.558986-.27534718 1.1363892-.31 1.72h-2c-.55228475 0-1 .4477153-1 1s.44771525 1 1 1h2.14c.10476517.5842253.2758726 1.1545834.51 1.7l-3.21 2.14c-.36553376.2456378-.5273388.7014949-.39847014 1.1226193.12886865.4211243.51807046.7083673.95847014.7073807.19944269.0004453.39446265-.0587572.56-.17l3.16-2.11c.80659663.9888508 2.0043357 1.5767654 3.28 1.61 1.2756643-.0332346 2.4734034-.6211492 3.28-1.61l3.16 2.11c.1655373.1112428.3605573.1704453.56.17.4403997.0009866.8296015-.2862564.9584701-.7073807.1288687-.4211244-.0329363-.8769815-.3984701-1.1226193l-3.21-2.14c.2341274-.5454166.4052348-1.1157747.51-1.7zm-7 3c-1.63 0-3-2.06-3-4.5s1.37-4.5 3-4.5 3 2.06 3 4.5-1.37 4.5-3 4.5z"/><path id="Shape" d="m50 47.77v-19.77c1.1045695 0 2-.8954305 2-2v-2c0-1.1045695-.8954305-2-2-2v-10c0-4.418278-3.581722-8-8-8h-6c-4.418278 0-8 3.581722-8 8v38c0 1.1045695-.8954305 2-2 2h-2v-23c-.0029647-2.9255207-2.1153959-5.4224145-5-5.91v-2.09c0-1.6568542-1.3431458-3-3-3h-1v-3h1c3.3137085 0 6-2.6862915 6-6v-3c0-3.3137085-2.6862915-6-6-6h-8.25c-3.3137085 0-6 2.6862915-6 6v3c0 3.3137085 2.6862915 6 6 6h1.25v3h-1c-1.65685425 0-3 1.3431458-3 3v2.09c-2.88460406.4875855-4.99703532 2.9844793-5 5.91v28c0 1.6568542 1.34314575 3 3 3h18c1.2682549-.0035644 2.3972517-.8042713 2.82-2h2.18c4.418278 0 8-3.581722 8-8v-38c0-1.1045695.8954305-2 2-2h6c1.1045695 0 2 .8954305 2 2v10c-1.1045695 0-2 .8954305-2 2v2c0 1.1045695.8954305 2 2 2v21c-.0083072.5179602.1303877 1.0276641.4 1.47.1259663.2398457.2878334.4590407.48.65l4.12 4.09c1.1689364 1.1565592 3.0510636 1.1565592 4.22 0 1.1565592-1.1689364 1.1565592-3.0510636 0-4.22zm-48-16.77h20v21h-20zm1.75-22v-3c0-2.209139 1.790861-4 4-4h8.25c2.209139 0 4 1.790861 4 4v3c0 2.209139-1.790861 4-4 4h-8.25c-2.209139 0-4-1.790861-4-4zm7.25 6h2v3h-2zm-4 6c0-.5522847.44771525-1 1-1h8c.5522847 0 1 .4477153 1 1v2h-10zm-1 4h12c2.209139 0 4 1.790861 4 4h-20c0-2.209139 1.790861-4 4-4zm15 33h-18c-.55228475 0-1-.4477153-1-1v-3h20v3c0 .5522847-.4477153 1-1 1zm21-50h-6c-2.209139 0-4 1.790861-4 4v38c0 3.3137085-2.6862915 6-6 6h-2v-2h2c2.209139 0 4-1.790861 4-4v-38c0-3.3137085 2.6862915-6 6-6h6c3.3137085 0 6 2.6862915 6 6v10h-2v-10c0-2.209139-1.790861-4-4-4zm2 16h6v2h-6zm7.8 29.79c-.3888435.3811429-1.0111565.3811429-1.4 0l-4.1-4.09c-.0680937-.0637461-.1254932-.1380277-.17-.22-.0880616-.1443975-.1331554-.3108979-.13-.48v-21h2v20.18c-.0015368.265803.1028135.5212812.29.71l3.51 3.5c.3811429.3888435.3811429 1.0111565 0 1.4z"/></g></g></svg>