<svg height="512" viewBox="0 0 60 60" width="512" xmlns="http://www.w3.org/2000/svg"><g id="Page-1" fill="none" fill-rule="evenodd"><g id="022---Hose-Pipe" fill="rgb(0,0,0)" fill-rule="nonzero"><path id="Shape" d="m48 52h-.56c.3635516-.6039929.5570448-1.2950401.56-2 0-2.209139-1.790861-4-4-4h-.56c.3635516-.6039929.5570448-1.2950401.56-2 0-2.209139-1.790861-4-4-4h-1.55c.408989-.6908421.6006308-1.4887689.55-2.29-.2084308-2.1355972-2.0246565-3.7514719-4.17-3.71h-12.21c-1.8075853-.0031979-3.3884061-1.2182548-3.8564843-2.9641865s.2929178-3.5888215 1.8564843-4.4958135l14-8.11c.8275399 1.430739 2.6564236 1.9226148 4.09 1.1l1.74-1 1.73-1c1.1274694-.6563589 1.701504-1.9661281 1.42-3.24l11.61-8.76c.7999552-.60974511 1.0226097-1.71873607.52-2.59l-1.12-1.94c-.504525-.867615-1.5739445-1.22693998-2.5-.84l-13.38 5.64c-.961432-.87784395-2.3793201-1.03538708-3.51-.39l-3.47 2c-1.4271108.83095431-1.9143013 2.6590361-1.09 4.09l-14 8.11c-4.8134656 2.6209404-7.16509296 8.2299454-5.66 13.5.7221714 2.8167734 2.4556608 5.2692872 4.87 6.89h-3.87c-2.209139 0-4 1.790861-4 4 .00295516.7049599.19644839 1.3960071.56 2h-.56c-2.209139 0-4 1.790861-4 4 .00295516.7049599.19644839 1.3960071.56 2h-.56c-2.209139 0-4 1.790861-4 4s1.790861 4 4 4h44c2.209139 0 4-1.790861 4-4s-1.790861-4-4-4zm4.88-50 1.12 1.94-11.25 8.51-.26-.45-2.61-4.52zm-16.16 5c.3551111.00214346.6824477.19245546.86.5l4 6.93c.1343739.2293087.1719353.5026768.1043886.7597298-.0675468.257053-.2346444.4766422-.4643886.6102702l-.87.5-5-8.66.87-.5c.1514328-.08987659.3239138-.13817126.5-.14zm-4 2.14.87-.5 5 8.66-.87.5c-.4779792.2713883-1.0853915.1061364-1.36-.37l-4-6.93c-.1329611-.2299933-.168941-.50344065-.1-.76.0760872-.2577105.252688-.4739564.49-.6zm-19.72 23.45c-1.2553925-4.3775883.6768484-9.0423331 4.66-11.25l14-8.1 2 3.46-14 8.1c-2.3558698 1.356128-3.5056936 4.1266746-2.8023689 6.7524202.7033248 2.6257457 3.0840612 4.4506064 5.8023689 4.4475798h12.17c1.091965-.0345932 2.031407.7663136 2.17 1.85.041813.555907-.150293 1.1040384-.529993 1.5122158-.3796999.4081775-.912532.6393545-1.470007.6377842h-12.38c-4.5349758.0535577-8.5142603-3.0115669-9.62-7.41zm-3 11.41c0-1.1045695.8954305-2 2-2h28c1.1045695 0 2 .8954305 2 2s-.8954305 2-2 2h-28c-1.1045695 0-2-.8954305-2-2zm-4 6c0-1.1045695.8954305-2 2-2h36c1.1045695 0 2 .8954305 2 2s-.8954305 2-2 2h-36c-1.1045695 0-2-.8954305-2-2zm42 8h-44c-1.1045695 0-2-.8954305-2-2s.8954305-2 2-2h44c1.1045695 0 2 .8954305 2 2s-.8954305 2-2 2z"/><path id="Shape" d="m52.53 11.64c-1.53 1.67-4.2 5.57-4.5 9.62-.3489496 3.2656465 1.9254825 6.2307667 5.17 6.74.2664383.0156079.5335617.0156079.8 0 3.3137085 0 6-2.6862915 6-6 0-4.29-2.85-8.53-4.53-10.36-.8121113-.8112483-2.1278887-.8112483-2.94 0zm4.11 13.36c-.8724155.7622244-2.0324435 1.1087737-3.18.95-2.1762276-.3539401-3.6957946-2.3478228-3.46-4.54.26-3.51 2.72-7 4-8.41 1.39 1.5 4 5.32 4 9-.0014549 1.1489086-.496863 2.2417206-1.36 3z"/><path id="Shape" d="m52.53 31.64c-1.53 1.67-4.2 5.57-4.5 9.62-.3489496 3.2656465 1.9254825 6.2307667 5.17 6.74.2664383.0156079.5335617.0156079.8 0 3.3137085 0 6-2.6862915 6-6 0-4.29-2.85-8.53-4.53-10.36-.8121113-.8112483-2.1278887-.8112483-2.94 0zm4.11 13.36c-.8639847.7801881-2.0249867 1.1452831-3.18 1-2.1977323-.3543673-3.7244084-2.3796399-3.46-4.59.26-3.51 2.72-7 4-8.41 1.39 1.5 4 5.32 4 9-.0014549 1.1489086-.496863 2.2417206-1.36 3z"/></g></g></svg>