<svg height="512" viewBox="0 0 48 60" width="512" xmlns="http://www.w3.org/2000/svg"><g id="Page-1" fill="none" fill-rule="evenodd"><g id="024---Trowel-and-Fork" fill="rgb(0,0,0)" fill-rule="nonzero" transform="translate(0 -1)"><path id="Shape" d="m19.06 46.88c-.4822555-2.6567749-.7365145-5.3499127-.76-8.05.0045557-.307807.0279326-.6150472.07-.92.1825336-1.0038412.0998052-2.0379459-.24-3-.2420051-.5420987-.6341126-1.0036058-1.13-1.33v-3.58h2.6c1.6743018.0049284 3.2745064-.6899579 4.4139375-1.9167454s1.7144334-2.873874 1.5860625-4.5432546l-1.46-19.77c-.1204399-1.56642093-1.4289625-2.77462341-3-2.77h-.14c-1.6568542 0-3 1.34314575-3 3v14c0 .5522847-.4477153 1-1 1s-1-.4477153-1-1v-14c0-1.65685425-1.3431458-3-3-3s-3 1.34314575-3 3v14c0 .5522847-.44771525 1-1 1s-1-.4477153-1-1v-14c0-1.65685425-1.34314575-3-3-3h-.15c-1.57103753-.00462341-2.87956007 1.20357907-3 2.77l-1.43 19.77c-.12837095 1.6693806.44663142 3.3164671 1.58606253 4.5432546s2.73963567 1.9216738 4.41393747 1.9167454h2.58v3.58c-.49588736.3263942-.88799487.7879013-1.13 1.33-.3398052.9620541-.42253358 1.9961588-.24 3 .04168744.3016415.06506359.6055315.07.91-.0230622 2.7034217-.27732229 5.3999168-.76 8.06-.09.5-.17 1-.26 1.49-.39107579 1.8902565-.61858356 3.8106897-.68 5.74 0 2.2.32 4.9 2.82 6.19 1.3113709.5842162 2.7498426.8251086 4.18.7h.64c1.2190557.0538564 2.4331875-.1862261 3.54-.7 2.5-1.29 2.82-4 2.82-6.2-.0620381-1.9259579-.2895424-3.8430168-.68-5.73-.09-.49-.17-.99-.26-1.49zm-15.6-20.16c-.74933588-.812051-1.12938223-1.8978977-1.05-3l1.44-19.8c.04179703-.52082193.47750629-.92167446 1-.92h.15c.55228475 0 1 .44771525 1 1v14c0 1.6568542 1.34314575 3 3 3 1.6568542 0 3-1.3431458 3-3v-14c0-.55228475.4477153-1 1-1s1 .44771525 1 1v14c0 1.6568542 1.3431458 3 3 3s3-1.3431458 3-3v-14c0-.55228475.4477153-1 1-1h.15c.5224937-.00167446.958203.39917807 1 .92l1.45 19.77c.0865596 1.1134732-.2963359 2.212429-1.0560673 3.0310396s-1.8271051 1.2823198-2.9439327 1.2789604h-13.2c-1.1156186.001993-2.18137992-.462012-2.94-1.28zm11.54 3.28v3h-4v-3zm-6.35 18.72c.09-.5.18-1 .26-1.51.50169643-2.7791765.76598323-5.5960055.79-8.42-.00785607-.3611468-.03455907-.7216373-.08-1.08-.13027524-.6637363-.10287311-1.3487896.08-2 .25125565-.4764302.7633544-.7561149 1.3-.71h4c.5283862-.0319156 1.0260402.250219 1.27.72.1828731.6512104.2102752 1.3362637.08 2-.0458079.3616745-.0725117.725513-.08 1.09.0244869 2.8206576.2887722 5.6341254.79 8.41.08.5.17 1 .26 1.51.25 1.39.48 2.71.59 4-1.6271764.2173205-3.268806.3075934-4.91.27-1.6468201.052469-3.29521802-.024434-4.93-.23.1-1.34.33-2.67.58-4.05zm7.61 9.8c-1.0273993.4373569-2.1501429.6026688-3.26.48-1.0991173.1206111-2.2108344-.0411558-3.23-.47-1.1-.57-1.63-1.71-1.72-3.74 1.64301178.1862765 3.297115.2564506 4.95.21h1.18c1.2765797.0147156 2.552726-.055439 3.82-.21-.11 2.03-.64 3.21-1.74 3.73z"/><path id="Shape" d="m41.6 32h-2.6v-3.58c.4958874-.3263942.8879949-.7879013 1.13-1.33.3398052-.9620541.4225336-1.9961588.24-3-.0416874-.3016415-.0650636-.6055315-.07-.91.0230622-2.7034217.2773223-5.3999168.76-8.06.09-.5.17-1 .26-1.49.3910758-1.8902565.6185836-3.81068974.68-5.74 0-2.2-.32-4.89-2.82-6.19-1.3100752-.5885069-2.7496698-.82958734-4.18-.7-1.4301225-.1242263-2.8683746.11662929-4.18.7-2.5 1.3-2.82 3.99-2.82 6.2.0620381 1.92595794.2895424 3.8430168.68 5.73.09.5.17 1 .26 1.49.4822555 2.6567749.7365145 5.3499127.76 8.05-.0045557.307807-.0279326.6150472-.07.92-.1825336 1.0038412-.0998052 2.0379459.24 3 .2420051.5420987.6341126 1.0036058 1.13 1.33v3.58h-2.6c-2.7785296.0281595-5.1742037 1.9604217-5.79 4.67-.2999078 1.4881437-.3472353 3.0161484-.14 4.52.89 9.81 4.12 15.23 11.53 19.54.6188022.3572656 1.3811978.3572656 2 0 7.4-4.31 10.63-9.78 11.52-19.54.2072353-1.5038516.1599078-3.0318563-.14-4.52-.614925-2.7059796-3.0052234-4.6372415-5.78-4.67zm-9.86-28.52c.8307727-.37435401 1.7407019-.53917138 2.65-.48h.61c1.0991173-.12061112 2.2108344.04115577 3.23.47 1.1.57 1.63 1.71 1.72 3.74-1.6430118-.1862765-3.297115-.25645057-4.95-.21-1.669534-.04807485-3.3403769.02210056-5 .21.11-2.02.64-3.16 1.74-3.73zm-1.09 9.8c-.25-1.39-.48-2.71-.59-4 1.6368252-.22222385 3.2885475-.31584373 4.94-.28 1.6468201-.05246899 3.295218.02443395 4.93.23-.11 1.33-.34 2.66-.59 4-.09.5-.18 1-.26 1.51-.5016964 2.7791765-.7659832 5.5960055-.79 8.42.0078561.3611468.0345591.7216373.08 1.08.1302752.6637363.1028731 1.3487896-.08 2-.23517.4923384-.7453735.7929234-1.29.76h-4c-.5283862.0319156-1.0260402-.250219-1.27-.72-.1828731-.6512104-.2102752-1.3362637-.08-2 .0458079-.3616745.0725117-.725513.08-1.09-.0244869-2.8206576-.2887722-5.6341254-.79-8.41-.11-.49-.2-1-.29-1.5zm2.35 15.72h4v3h-4zm2 30c-.66-.39-1.27-.78-1.86-1.19l1.78-16.72c0-.11.17-.13.19 0l1.77 16.7c-.6.42-1.22.82-1.88 1.21zm10.54-18c-.66 7.25-2.61 11.81-6.81 15.38l-1.64-15.47c-.0759188-1.0955753-.9867974-1.9455182-2.085-1.9455182s-2.0090812.8499429-2.085 1.9455182l-1.65 15.5c-4.2-3.56-6.15-8.13-6.81-15.38-.1823624-1.2832284-.1485617-2.5879354.1-3.86.3860841-1.8216807 1.9781665-3.1359779 3.84-3.17h13.2c1.8558048.0319119 3.4458575 1.336252 3.84 3.15.2474406 1.2688164.2812388 2.570049.1 3.85z"/></g></g></svg>