<svg height="512" viewBox="0 0 49 60" width="512" xmlns="http://www.w3.org/2000/svg"><g id="Page-1" fill="none" fill-rule="evenodd"><g id="025---Flower" fill="rgb(0,0,0)" fill-rule="nonzero" transform="translate(-1)"><path id="Shape" d="m44.67 53c-1.0313455-2.9863792-4.2018713-4.6612915-7.25-3.83-.7661996-1.7296705-2.1998603-3.0755783-3.974417-3.731147s-3.7388998-.5649744-5.445583.251147v-5.94c.8809857.8254707 1.9373751 1.4408432 3.09 1.8.9706548.3044853 1.982728.4562962 3 .45 2.1180532-.015421 4.1920467-.6065091 6-1.71.8466532-.5523098 1.6430587-1.1780569 2.38-1.87.5805795-.5429352 1.1987845-1.0441826 1.85-1.5.8600273-.5383876 1.8130265-.9114477 2.81-1.1l.29-.07c.8324794-.2087169 1.4498209-.9094944 1.5519017-1.7616472.1020808-.8521527-.3322742-1.6789147-1.0919017-2.0783528-11.58-6.1-17.28-1.15-19.9 1.94v-7c.7869177.7167579 1.8156279 1.1096681 2.88 1.1 2.086814-.139578 4.0359877-1.0908322 5.43-2.65 2.92-2.92 3.5-6.41 1.42-8.49-1.4375102-1.2059128-3.0711904-2.1563562-4.83-2.81 1.7682813-.6509663 3.4095236-1.6052557 4.85-2.82 2.08-2.09 1.5-5.57-1.42-8.49-2.92-2.92-6.4-3.5-8.48-1.41-1.2188497 1.42443752-2.1768628 3.05272126-2.83 4.81-.6489008-1.77139525-1.6070989-3.41353689-2.83-4.85-2.08-2.08-5.57-1.5-8.48 1.41s-3.5 6.4-1.42 8.49c1.4374533 1.2289544 3.0788758 2.196886 4.85 2.86-1.7672559.6576716-3.4079377 1.6150179-4.85 2.83-2.08 2.08-1.5 5.57 1.42 8.49 1.3940123 1.5591678 3.343186 2.510422 5.43 2.65 1.0697952-.0012144 2.0992018-.4086879 2.88-1.14v7c-2.62-3.09-8.32-8-19.9-1.94-.75962755.3994381-1.1939825 1.2262001-1.0919017 2.0783528.1020808.8521528.71942225 1.5529303 1.5519017 1.7616472l.29.07c.99697352.1885523 1.94997267.5616124 2.81 1.1.65121547.4558174 1.26942055.9570648 1.85 1.5.73694135.6919431 1.53334676 1.3176902 2.38 1.87 1.8079533 1.1034909 3.8819468 1.694579 6 1.71 1.017272.0062962 2.0293452-.1455147 3-.45 1.1579233-.3505417 2.2212618-.9591406 3.11-1.78v3.41c-.4941068-.098754-.9961799-.1523085-1.5-.16-3.184516-.0128558-6.0270382 1.9945751-7.08 5-3.0853354.2996181-5.43451388 2.9001847-5.42 6-.00498938.0865949-.00498938.1734051 0 .26-1.50659028.539257-2.6191571 1.8302901-2.93 3.4-.10047713.5721955.05281207 1.1598041.42 1.61.38760043.460571.95804194.7275084 1.56.73h40.82c.6189933-.0014878 1.2024148-.289506 1.58-.78.3789383-.487086.5117918-1.1218309.36-1.72-.608793-2.4241793-2.6566159-4.2170203-5.14-4.5zm-16-16.88c2.17-2.79 6.67-8.58 18.26-2.48l.47-.89-.49 1-.25.06c-1.2323241.2405363-2.4090607.708518-3.47 1.38-.7275046.5085061-1.4191396 1.0664918-2.07 1.67-.6481893.611765-1.3473915 1.1671122-2.09 1.66-2.1966574 1.3784899-4.873891 1.7635465-7.37 1.06-1.4940424-.4518576-2.7486649-1.4764061-3.49-2.85zm-10.37 3.52c-2.496109.7035465-5.1733426.3184899-7.37-1.06-.7444538-.4903447-1.44387015-1.0458619-2.09-1.66-.65086037-.6035082-1.34249541-1.1614939-2.07-1.67-1.0609393-.671482-2.23767594-1.1394637-3.47-1.38l-.25-.06-.25 1 .2-1.13c11.59-6.1 16.09-.31 18.26 2.48l.5.63c-.7343241 1.3675034-1.9771574 2.3912244-3.46 2.85zm6.38-30.64h.66c2.4985422.1645002 4.4901328 2.1518169 4.66 4.65.014842.2164125.014842.4335875 0 .65-.1468294 2.5248061-2.155843 4.5424052-4.68 4.7-.2195461.0199862-.4404539.0199862-.66 0-2.5235261-.1683205-4.5239758-2.1945272-4.66-4.72-.014842-.2164125-.014842-.4335875 0-.65.1805719-2.4974783 2.1807262-4.47626347 4.68-4.63zm10.22 14.86c-1.76 1.76-4.27 2.81-5.66 1.42-1.0978892-1.3513914-1.9507589-2.8845262-2.52-4.53 1.2407091-.3026466 2.3749827-.9389464 3.28-1.84.8932288-.8911593 1.5289804-2.0071798 1.84-3.23 1.641981.5748382 3.1714476 1.4309335 4.52 2.53 1.35 1.39.3 3.9-1.46 5.65zm-5.66-21.21c1.4-1.39 3.9-.34 5.66 1.41s2.81 4.27 1.41 5.66c-1.3515704 1.100074-2.884499 1.9562129-4.53 2.53-.6287715-2.49033743-2.5709088-4.43631296-5.06-5.07.5692411-1.64547379 1.4221108-3.17860863 2.52-4.53zm-14.14 1.41c1.76-1.75 4.26-2.8 5.66-1.41 1.0978892 1.35139137 1.9507589 2.88452621 2.52 4.53-1.2231117.29919599-2.3404688.92879038-3.23 1.82-.889324.89018336-1.5245757 2.0018739-1.84 3.22-1.6426311-.5687861-3.1725552-1.4217527-4.52-2.52-1.4-1.37-.35-3.88 1.41-5.64zm0 19.8c-1.76-1.75-2.81-4.26-1.41-5.65 1.3515704-1.100074 2.884499-1.9562129 4.53-2.53.6287715 2.4903374 2.5709088 4.436313 5.06 5.07-.5692411 1.6454738-1.4221108 3.1786086-2.52 4.53-1.39 1.39-3.9.34-5.66-1.42zm8.9.14c.3768-.7024998.7107437-1.4271575 1-2.17.2892563.7428425.6232 1.4675002 1 2.17v21.4c-.5746127-.6229257-1.2509069-1.1436722-2-1.54zm-16.95 34c.21246131-1.063218 1.08360392-1.8698315 2.16-2 .27389974-.0294122.52353528-.1705105.69-.39.1659871-.2235962.2312215-.5062787.18-.78-.0480991-.2741804-.0748461-.5516803-.08-.83 0-2.209139 1.790861-4 4-4 .5176201.0818957 1.0106645-.2497093 1.13-.76.5419663-2.3284383 2.5284128-4.0384717 4.9115592-4.2281181 2.3831463-.1896464 4.615042 1.1846992 5.5184408 3.3981181.1322255.3240763.4242666.5554336.77.61.3399099.0539218.683663-.0707359.91-.33 1.2267502-1.3815175 3.1153582-1.9739485 4.9113954-1.5406389 1.7960372.4333097 3.2067475 1.8217301 3.6686046 3.6106389.074673.2915566.2766887.5339754.55.66.274806.1327594.595194.1327594.87 0 .5460135-.2749869 1.1486514-.4187982 1.76-.42 1.9041465.0005768 3.5439311 1.3433596 3.92 3.21.056246.2819507.2311248.5260523.48.67.182549.1017087.3923745.1436738.6.12 1.8079659.0194563 3.378087 1.2493162 3.83 3z"/><path id="Shape" d="m31 49c-.8532257-.0060548-1.6669944.3588639-2.23 1-.3645079.416975-.321975 1.0504921.095 1.415s1.0504921.321975 1.415-.095c.1771414-.212878.4432845-.3311638.72-.32.4677664-.0148006.883234.2968001 1 .75s.5322336.7648006 1 .75c.0830052.0104577.1669948.0104577.25 0 .2575067-.0659011.4781813-.2316107.6132779-.4605245.1350967-.2289138.1734983-.5021944.1067221-.7594755-.3360395-1.3603484-1.569019-2.3068781-2.97-2.28z"/><path id="Shape" d="m20.5 47c-1.6216648-.0050568-3.0318695 1.110664-3.4 2.69-.0598468.2585983-.0144271.5303806.1262522.7554674.1406792.2250868.3650749.3850091.6237478.4445326.0763126.0104205.1536874.0104205.23 0 .4736615.0126631.8911882-.3088324 1-.77.146222-.6319295.6844533-1.0966655 1.3309478-1.1492075.6464945-.0525419 1.2527067.3191828 1.4990522.9192075.0997768.247471.2943172.4448032.5403415.5480958.2460242.1032926.5231262.1039782.7696585.0019042.506169-.2118006.7471349-.7919039.54-1.3-.5451651-1.314225-1.8373662-2.1624797-3.26-2.14z"/><circle id="Oval" cx="15" cy="53" r="1"/><circle id="Oval" cx="26" cy="52" r="1"/><circle id="Oval" cx="22" cy="55" r="1"/><circle id="Oval" cx="39" cy="54" r="1"/><path id="Shape" d="m23 15c.5522847 0 1-.4477153 1-1s.4477153-1 1-1 1-.4477153 1-1-.4477153-1-1-1c-1.6568542 0-3 1.3431458-3 3 0 .2652165.1053568.5195704.2928932.7071068s.4418903.2928932.7071068.2928932z"/></g></g></svg>