<svg height="512" viewBox="0 0 60 60" width="512" xmlns="http://www.w3.org/2000/svg"><g id="Page-1" fill="none" fill-rule="evenodd"><g id="026---Tree" fill="rgb(0,0,0)" fill-rule="nonzero"><circle id="Oval" cx="35" cy="51" r="1"/><circle id="Oval" cx="17" cy="54" r="1"/><circle id="Oval" cx="39" cy="53" r="1"/><circle id="Oval" cx="30" cy="55" r="1"/><path id="Shape" d="m59 58h-2.56c-2.19-6.13-10.84-10.74-21.74-11.77l-.43-5.23 7.17-6.15c4.2488434 2.0374815 9.3110006 1.2742404 12.7702205-1.9254157 3.4592198-3.1996561 4.6141932-8.1870411 2.9136322-12.5815938-1.7005609-4.3945527-5.911891-7.3053382-10.6238527-7.3429905-.8549059.0003586-1.7070148.0976466-2.54.29-.5530775-7.30083978-6.6382409-12.94245567-13.96-12.94245567s-13.4069225 5.64161589-13.96 12.94245567c-.8337184-.1880577-1.6853481-.285291-2.54-.29-4.74686256-.01009-9.01216231 2.8974317-10.73771603 7.3195659-1.72555371 4.4221341-.55674398 9.4500908 2.94243026 12.6576733 3.49917423 3.2075825 8.60959997 3.9356027 12.86528577 1.8327608l7.16 6.19-.43 5.28c-10.9.98-19.55 5.59-21.74 11.72h-2.56c-.55228475 0-1 .4477153-1 1s.44771525 1 1 1h58c.5522847 0 1-.4477153 1-1s-.4477153-1-1-1zm-23.73-31c.2236202 1.04823.5974803 2.0586628 1.11 3l-2.87 1.64-.32-3.93c.7104307-.183258 1.4057945-.4206177 2.08-.71zm-1.58 6.8 3.79-2.16c.6191418.7991857 1.3421937 1.5121486 2.15 2.12l-5.56 4.76zm22.31-9.3c.0045654 3.38964-1.7991438 6.5243596-4.7319709 8.2238318s-6.5494271 1.7056351-9.4880291.0161682c-1.2908384-.7302371-2.3880877-1.7589084-3.2-3-.7404883-1.1300854-1.2314104-2.4051194-1.44-3.74 3.8312477-2.2777481 6.348956-6.2436956 6.78-10.68.8406214-.2277232 1.7092168-.3354559 2.58-.32 5.2444204.0055117 9.4944883 4.2555796 9.5 9.5zm-26-22.5c6.627417 0 12 5.372583 12 12v.56c-.2000789 4.2451813-2.6306352 8.0678871-6.39 10.05-1.1286069.6031979-2.3478887 1.0186319-3.61 1.23-1.2982232.2100746-2.6217768.2100746-3.92 0-1.0656953-.1725544-2.1022632-.492275-3.08-.95 0-.13 0-.26 0-.39-.0091293-4.6087246-2.7618679-8.7692924-7-10.58.0439753-6.59615376 5.4036997-11.92014659 12-11.92zm-5.27 25c.6748178.2771857 1.3702691.5012013 2.08.67l-.32 3.93-2.86-1.63c.5047621-.933231.8750912-1.9331196 1.1-2.97zm-20.73-2.5c0-5.2467051 4.25329488-9.5 9.5-9.5 5.2467051 0 9.5 4.2532949 9.5 9.5.0038394 1.8814638-.557015 3.7207876-1.61 5.28-2.3278567 3.4711367-6.6508428 5.0131796-10.6500093 3.7989416-3.99916647-1.2142381-6.73502193-4.899506-6.7399907-9.0789416zm16.36 9.21c.8094892-.6089269 1.5386209-1.3178982 2.17-2.11l3.78 2.16-.38 4.72zm8-.35c.0048892-.0264426.0048892-.0535574 0-.08l.43-5.28c.41 0 .81.05 1.21.05s.8 0 1.21-.05l.43 5.33c-.0048892.0264426-.0048892.0535574 0 .08l1 12.72c-.84-.13-1.74-.13-2.64-.13s-1.8 0-2.68.08zm1.64 14.64c11.59 0 21.63 4.22 24.3 10h-48.6c2.67-5.78 12.71-10 24.3-10z"/><path id="Shape" d="m22.24 12.06c.8901202-3.5610369 4.0894009-6.05944424 7.76-6.06.5522847 0 1-.44771525 1-1s-.4477153-1-1-1c-4.5867939.00012058-8.5854091 3.12068938-9.7 7.57-.1404156.5297792.1717681 1.0738709.7 1.22h.25c.4583294.0123965.8663734-.2884844.99-.73z"/><path id="Shape" d="m13.5 17c-4.14213562 0-7.5 3.3578644-7.5 7.5 0 .5522847.44771525 1 1 1s1-.4477153 1-1c.0055037-3.0352835 2.4647165-5.4944963 5.5-5.5.5522847 0 1-.4477153 1-1s-.4477153-1-1-1z"/></g></g></svg>