<svg height="512" viewBox="0 0 60 57" width="512" xmlns="http://www.w3.org/2000/svg"><g id="Page-1" fill="none" fill-rule="evenodd"><g id="027---Gardening-Hat" fill="rgb(0,0,0)" fill-rule="nonzero" transform="translate(-1)"><path id="Shape" d="m50.92 22.51-4.26-18.74c-.3296972-1.45268197-1.3099588-2.67262288-2.6575787-3.3073714s-2.9124588-.61358678-4.2424213.0573714c-2.7879128 1.08774778-5.7694776 1.59148247-8.76 1.48-2.9905224.11148247-5.9720872-.39225222-8.76-1.48-1.3299625-.67095818-2.8948014-.69211992-4.2424213-.0573714s-2.3278815 1.85468943-2.6575787 3.3073714l-4.26 18.74-9.62 10.21c-.49698484.5966708-.60366749 1.427085-.27363961 2.1300015s1.03710343 1.1512613 1.81363961 1.1499985h7.05c.51 8.66 7.6 16 17 17.65.3579657 1.8882014 2.0081665 3.2549497 3.93 3.2549497s3.5720343-1.3667483 3.93-3.2549497c9.44-1.65 16.53-8.99 17.09-17.65h7c.775221-.0001499 1.4805311-.4482751 1.81-1.15.3393114-.7252111.2134128-1.5828951-.32-2.18zm-37.21-2.51h34.58l.46 2h-35.5zm3.58-15.78c.1980076-.85445317.7771356-1.57080316 1.5711458-1.94342221.7940103-.37261906 1.7150938-.36029955 2.4988542.03342221 2.16 1.06 5.77 1.69 9.64 1.69s7.48-.63 9.64-1.69c.7837604-.39372176 1.7048439-.40604127 2.4988542-.03342221.7940102.37261905 1.3731382 1.08896904 1.5711458 1.94342221l3.13 13.78h-33.68zm13.71 50.78c-1.1045695 0-2-.8954305-2-2s.8954305-2 2-2 2 .8954305 2 2-.8954305 2-2 2zm3.75-3.35c-.5819295-1.5677644-2.077718-2.6080589-3.75-2.6080589s-3.1680705 1.0402945-3.75 2.6080589c-8.39-1.51-14.69-8-15.2-15.65h37.95c-.56 7.64-6.86 14.14-15.25 15.65zm16.25-17.65h-39.81c-.0632056-.0056875-.1267944-.0056875-.19 0-.0665838-.0047007-.1334162-.0047007-.2 0h-7.8l9.47-10h37.1l9.43 10z"/><path id="Shape" d="m46.16 26.16c-.4632328.2987099-.5974116.9159327-.3 1.38l2.6 4c.1835955.2861601.5000079.4594336.84.46.1916116-.0004966.3790464-.0560328.54-.16.4632328-.2987099.5974116-.9159327.3-1.38l-2.6-4c-.2987099-.4632328-.9159327-.5974116-1.38-.3z"/><path id="Shape" d="m15.84 26.16c-.4640673-.2974116-1.0812901-.1632328-1.38.3l-2.6 4c-.2974116.4640673-.1632328 1.0812901.3 1.38.1609536.1039672.3483884.1595034.54.16.3399921-.0005664.6564045-.1738399.84-.46l2.6-4c.2974116-.4640673.1632328-1.0812901-.3-1.38z"/><path id="Shape" d="m39.8 26.69c-.1004945-.3521353-.385425-.6211779-.7427411-.7013255-.357316-.0801476-.7298622.0414201-.9711327.3168959s-.3126723.6607954-.1861262 1.0044296l1.3 4c.1340978.411264.5174261.6896813.95.69.1028338.0143697.2071662.0143697.31 0 .5243985-.1715258.8107915-.7353618.64-1.26z"/><path id="Shape" d="m23.46 26.05c-.5246382-.1707915-1.0884742.1156015-1.26.64l-1.3 4c-.0978932.2581955-.0846667.5453776.0365446.793482.1212113.2481045.3396177.4350459.6034554.516518.1028338.0143697.2071662.0143697.31 0 .4325739-.0003187.8159022-.278736.95-.69l1.3-4c.1707915-.5246382-.1156015-1.0884742-.64-1.26z"/><path id="Shape" d="m19.76 12h.24c.4706972.0137136.8871845-.3028167 1-.76l1-4c.0857438-.3572656-.0256247-.73313637-.2921539-.98602544-.2665292-.25288906-.6477271-.34437655-1-.24-.352273.10437654-.6221024.38875984-.7078461.74602544l-1 4c-.071912.2656553-.0311592.5492047.1126584.7838545.1438177.2346498.3779853.3996547.6473416.4561455z"/><path id="Shape" d="m31 13c.5522847 0 1-.4477153 1-1v-4c0-.55228475-.4477153-1-1-1s-1 .44771525-1 1v4c0 .5522847.4477153 1 1 1z"/><path id="Shape" d="m24.84 16h.16c.4953928.006376.9207716-.3509422 1-.84l.67-4.05c.091127-.5522847-.2827153-1.073873-.835-1.165-.5522847-.09112698-1.073873.2827153-1.165.835l-.67 4.06c-.046008.2657014.0172397.5387225.1753952.7571276.1581554.2184052.3978127.3636814.6646048.4028724z"/><path id="Shape" d="m41 11.24c.1128155.4571833.5293028.7737136 1 .76h.24c.2693563-.0564908.5035239-.2214957.6473416-.4561455.1438176-.2346498.1845704-.5181992.1126584-.7838545l-1-4c-.1325483-.55228475-.6877153-.89254834-1.24-.76s-.8925483.68771525-.76 1.24z"/><path id="Shape" d="m37 16h.16c.2667921-.039191.5064494-.1844672.6646048-.4028724.1581555-.2184051.2214032-.4914262.1753952-.7571276l-.68-4.06c-.0589488-.3572656-.3040187-.6559438-.6428942-.78352545-.3388755-.12758163-.7200733-.06468398-1 .16500005-.2799267.2296839-.4160546.5912598-.3571058.9485254l.68 4.05c.0792284.4890578.5046072.846376 1 .84z"/><path id="Shape" d="m31 26c-.5522847 0-1 .4477153-1 1v4c0 .5522847.4477153 1 1 1s1-.4477153 1-1v-4c0-.5522847-.4477153-1-1-1z"/></g></g></svg>