<svg height="512" viewBox="0 0 50 61" width="512" xmlns="http://www.w3.org/2000/svg"><g id="Page-1" fill="none" fill-rule="evenodd"><g id="028---Welly" fill="rgb(0,0,0)" fill-rule="nonzero"><path id="Shape" d="m34.94 43c-2.36.15-5.56-.15-7.44-2.38-2.78-3.32-1.8-8.62-1.08-12.56v-.13c.37-2 .89-4 1.35-5.65.59-2.16 1-4.37 1.46-6.51.34-1.69.7-3.42 1.12-5.12 1.0024628-.5050778 1.6390903-1.52754005 1.65-2.65v-5c0-1.65685425-1.3431458-3-3-3h-26c-1.65685425 0-3 1.34314575-3 3v5c.00669263 1.28503067.83107866 2.4230855 2.05 2.83.17 2.47.4 5.23.64 8.16.41 5 .84 10.15 1 14.24.1445291 3.3084339.01408089 6.6231562-.39 9.91-.15 1.16-.37 2.35-.58 3.49s-.44 2.37-.6 3.54c-.13 1-.43 3.37-.69 5.37-.14581817 1.1339442.20055102 2.2760888.95164656 3.138033.75109554.8619443 1.83512182 1.3612968 2.97835344 1.371967h7.72c1.6451497-.0436478 2.9480077-1.4045098 2.92-3.05v-1c0-.5522847.4477153-1 1-1h3c.5522847 0 1 .4477153 1 1v1.08c0 1.6568542 1.3431458 3 3 3h.38c7.7742471.1140821 15.5401885-.5559733 23.18-2 .8242962-.1781005 1.4483069-.854112 1.56-1.69.24-1.89.45-6.64-2.71-10-2.41-2.56-6.31-3.71-11.47-3.39zm.12 2c4.54-.29 7.86.66 9.87 2.8.9242443 1.0044732 1.5810517 2.2252408 1.91 3.55-8.5611382 1.1836981-17.1978376 1.7351901-25.84 1.65h-3c-.19-3.52-1.35-6.21-3.5-8-2.95-2.43-7-2.44-9.12-2.22.36111173-3.1964716.47144876-6.4163067.33-9.63-.14-4.14-.57-9.32-1-14.34-.23-2.8-.45-5.45-.61-7.82h24.13c-.34 1.46-.65 2.94-.94 4.37-.17.87-.35 1.75-.54 2.63h-7.22c-1.3699537-.0024026-2.5675132.9235454-2.91 2.25-1 3.82-2.84 13.23.55 18.3 1.66 2.5 4.63 3.76 8.83 3.76h.36c1.93 2 4.92 2.94 8.7 2.7zm-30.95 5.43c.15-1.14.36-2.31.57-3.44.13-.7.26-1.43.38-2.16 1.66-.23 5.49-.45 8.13 1.73 1.67 1.37 2.6 3.53 2.77 6.41-6-.07-9.79-.27-12.12-.46.16-.87.21-1.62.27-2.08zm20.36-22.86v.13c-.65 3.53-1.59 8.64.43 12.57-2.88-.2-4.92-1.13-6.05-2.83-3-4.53-1-13.92-.27-16.7.1206641-.4492179.5351312-.7559235 1-.74h6.76c-.14.58-.27 1.17-.43 1.75-.52 1.71-1.06 3.74-1.44 5.82zm-22.47-24.57c0-.55228475.44771525-1 1-1h26c.5522847 0 1 .44771525 1 1v5c0 .55228475-.4477153 1-1 1h-26c-.55228475 0-1-.44771525-1-1zm12 54c0 .5522847-.4477153 1-1 1-2.29 0-5.42 0-7.65 0-.5725377-.0061141-1.11499907-.257321-1.49-.69-.38087336-.4282226-.55292088-1.0029345-.47-1.57.05-.42.11-.86.16-1.3 2.13.18 5.48.37 10.62.46-.1232491.3194763-.1908929.6576953-.2 1zm33.13-.86c-7.5068782 1.397643-15.1351874 2.0375231-22.77 1.91h-.36c-.5522847 0-1-.4477153-1-1v-1.05c-.0023737-.3420771-.0667481-.6808898-.19-1 8.1522467.0096015 16.29527-.5484144 24.37-1.67.0796587.9459136.0629058 1.8974766-.05 2.84z"/><path id="Shape" d="m8.21 26c-.26554398.0203885-.51198506.1458604-.68468824.3485989s-.25739937.465993-.23531176.7314011c.42776839 4.292763.5313952 8.6116611.31 12.92-.00129033.5260642.40522456.963177.93 1h.07c.52967725.0009542.96822017-.4112761 1-.94.22175584-4.4049639.11814113-8.8202872-.31-13.21-.07741812-.5250256-.55148452-.8981334-1.08-.85z"/><circle id="Oval" cx="8" cy="23" r="1"/></g></g></svg>