<svg height="512" viewBox="0 0 60 60" width="512" xmlns="http://www.w3.org/2000/svg"><g id="Page-1" fill="none" fill-rule="evenodd"><g id="030---No-Trespassing" fill="rgb(0,0,0)" fill-rule="nonzero"><circle id="Oval" cx="22" cy="48" r="1"/><circle id="Oval" cx="31" cy="49" r="1"/><path id="Shape" d="m8.78 8.78c-11.69173325 11.7309629-11.69173325 30.7090371 0 42.44 11.7177121 11.7102048 30.7091662 11.7061476 42.4218739-.0090626s11.7127077-30.7066646 0-42.42187483c-11.7127077-11.71521018-30.7041618-11.71926732-42.4218739-.00906257zm41 41c-5.2511007 5.2516366-12.3734433 8.2020203-19.8 8.2020203s-14.5488993-2.9503837-19.8-8.2020203c-10.93385929-10.934975-10.93325629-28.6630751.0013468-39.5973063 10.9346032-10.9342312 28.6627032-10.9342312 39.5973064 0 10.9346031 10.9342312 10.9352061 28.6623313.0013468 39.5973063z"/><path id="Shape" d="m33.21 35.33-21.15-21.15c-.2008542-.2021062-.4783867-.308932-.7629144-.2936553-.2845276.0152766-.5490264.1512047-.7270856.3736553-7.41485619 9.1139401-7.45652543 22.1689122-.1 31.33 0 0 .06.09.1.13.55.67 1.13 1.33 1.75 2 9.0492724 9.0529896 23.4747114 9.8083612 33.42 1.75.2218191-.1794132.3564457-.4450279.37-.73.0153924-.2829813-.0900086-.5592046-.29-.76zm-14.87-12 10.71 10.67-15.82-7.34c-.3472838-.1654027-.5689111-.5153406-.57-.9.0249423-.7338815.3958428-1.4126294 1-1.83.5392181-.2529787 1.1246437-.3925279 1.72-.41.85-.08 1.7-.15 2.56-.2zm-6.89-6.93 5 5-1.32.1c-.8944174.0422967-1.7685041.2813047-2.56.7-1.2092554.7895936-1.9387561 2.1357857-1.94 3.58.0184905 1.1394901.6810286 2.1701048 1.71 2.66.8.41 4 1.9 18.13 8.45.3958917.1801392.8250744.2755132 1.26.28.1364894.0098432.2735106.0098432.41 0l6.91 6.83h-6.83l.47-2.33c.1345124-.6580941-.0703096-1.3397627-.5452734-1.8147266-.4749639-.4749638-1.1566325-.6797858-1.8147266-.5452734l-2.33.47v-1.37c-.0033854-.8063114-.4906258-1.5317303-1.2357575-1.8398346s-1.6024026-.138627-2.1742425.4298346l-1.51 1.5-1.52-1.9c-.5310241-.6618932-1.4219309-.9166267-2.22259-.6354964s-1.3367488 1.0369159-1.33741 1.8854964v2.15h-1.38c-.6920863.0003672-1.3347954.3585153-1.6992185.9468854-.364423.5883702-.3987601 1.3233301-.0907815 1.9431146l.55 1.11h-3.6c-6.26842926-8.091469-6.40317327-19.3609684-.33-27.6zm2.29 29.86c-.0850457-.0818693-.1651851-.1686869-.24-.26h3.5c.3465932-.0010489.6679286-.1814922.8492369-.4768822.1813084-.2953899.1967323-.6635996.0407631-.9731178l-1.27-2.55h2.38c.5522847 0 1-.4477153 1-1v-3.15l2.22 2.77c.1752428.2230505.4369674.3611829.72.38.2863879.0182954.5668339-.0873272.77-.29l2.29-2.3v2.59c.0019778.2990833.137723.58158.37.77.2311972.1908836.5358417.2679624.83.21l3.53-.71-.73 3.53c-.0579624.2941583.0191164.5988028.21.83.1928228.2377465.483916.3740813.79.37h10l2.55 2.55c-9.1353911 6.7146559-21.8073831 5.7411953-29.81-2.29z"/><path id="Shape" d="m45.45 10.37c-9.1575296-7.2477609-22.1209254-7.16045131-31.18.21-.2218191.1794132-.3564457.4450279-.37.73-.0153924.2829813.0900086.5592046.29.76l33.75 33.75c.1916338.1827337.445233.2863165.71.29h.05c.2849721-.0135543.5505868-.1481809.73-.37 8.0583612-9.9452886 7.3029896-24.3707276-1.75-33.42-.7049335-.6926472-1.449522-1.3437447-2.23-1.95zm-7.36 10.19-3.54-1.64-2.82-1.31c-.2368519-.1125736-.4200044-.3136823-.51-.56-.1027779-.2463777-.1027779-.5236223 0-.77l4-8.67c2.9469819.69920821 5.7268433 1.97359454 8.18 3.75l-4.05 8.72c-.2346755.4940805-.8227736.7079343-1.32.48zm-9.09 3.52 3.69 1.71 2.42 1.12.9.42-1.15 2.57zm6 .59-.66-.3-3.88-1.8 1.26-2.72 2.65 1.23 1.89.87zm-1.75-17.45-3.82 8.23c-.3318706.721344-.3642349 1.5448352-.09 2.29.1557179.415391.4016218.7910776.72 1.1l-1.35 2.91c-.9361495-.3761373-1.9030889-.6705686-2.89-.88l-9.42-9.42c4.8444407-3.56550566 10.8959267-5.08466209 16.85-4.23zm15.3 36.38-12.19-12.19 1.51-3.24c.222744-.485005.242398-1.0389198.0545889-1.5384921-.1878091-.4995722-.5675007-.9033572-1.0545889-1.1215079l1.34-2.88h.28c.3414676-.0083453.6792667-.0725271 1-.19.7444433-.2770796 1.3486112-.8380925 1.68-1.56l3.84-8.26c.4.35.81.7 1.19 1.09 8.0949982 7.9983561 9.095576 20.7248541 2.35 29.89z"/></g></g></svg>